<svg xmlns="http://www.w3.org/2000/svg" viewBox="0 0 820 190" width="820" height="190" font-family="Inter, ui-sans-serif, Segoe UI, Roboto, DejaVu Sans, Helvetica, Arial, sans-serif">
<defs>
<linearGradient id="g_concept" x1="0" y1="0" x2="0" y2="1"><stop offset="0" stop-color="#eff5ff"/><stop offset="1" stop-color="#dde9ff"/></linearGradient>
<linearGradient id="g_example" x1="0" y1="0" x2="0" y2="1"><stop offset="0" stop-color="#eefaf0"/><stop offset="1" stop-color="#d7f1de"/></linearGradient>
<linearGradient id="g_key" x1="0" y1="0" x2="0" y2="1"><stop offset="0" stop-color="#fff6ea"/><stop offset="1" stop-color="#ffecca"/></linearGradient>
<linearGradient id="g_practice" x1="0" y1="0" x2="0" y2="1"><stop offset="0" stop-color="#f4f0ff"/><stop offset="1" stop-color="#e7defb"/></linearGradient>
<linearGradient id="g_deep" x1="0" y1="0" x2="0" y2="1"><stop offset="0" stop-color="#eafaf6"/><stop offset="1" stop-color="#d3f1ea"/></linearGradient>
<linearGradient id="g_note" x1="0" y1="0" x2="0" y2="1"><stop offset="0" stop-color="#f1f5f9"/><stop offset="1" stop-color="#e5edf6"/></linearGradient>
<linearGradient id="g_warn" x1="0" y1="0" x2="0" y2="1"><stop offset="0" stop-color="#fef1ef"/><stop offset="1" stop-color="#fde2dd"/></linearGradient>
<linearGradient id="g_ink" x1="0" y1="0" x2="0" y2="1"><stop offset="0" stop-color="#eef2f7"/><stop offset="1" stop-color="#dfe6f0"/></linearGradient>
<linearGradient id="g_plain" x1="0" y1="0" x2="0" y2="1"><stop offset="0" stop-color="#ffffff"/><stop offset="1" stop-color="#f3f7fc"/></linearGradient>
<linearGradient id="g_accent" x1="0" y1="0" x2="0" y2="1"><stop offset="0" stop-color="#eef0fe"/><stop offset="1" stop-color="#dfe2fd"/></linearGradient>
</defs>
<rect x="0" y="0" width="820" height="190" fill="#ffffff"/>
<rect x="24" y="60.5" width="206" height="78" rx="13" ry="13" fill="#0f172a" opacity="0.055"/>
<rect x="24" y="63" width="206" height="78" rx="13" ry="13" fill="#1e293b" opacity="0.035"/>
<rect x="24" y="58" width="206" height="78" rx="13" ry="13" fill="url(#g_note)" stroke="#64748b" stroke-width="1.8"/>
<text x="127.0" y="88.0" font-family="Inter, ui-sans-serif, Segoe UI, Roboto, DejaVu Sans, Helvetica, Arial, sans-serif" font-size="16" fill="#1e293b" text-anchor="middle" font-weight="bold" dominant-baseline="middle" xml:space="preserve">Write code</text>
<text x="127.0" y="102.0" font-family="Inter, ui-sans-serif, Segoe UI, Roboto, DejaVu Sans, Helvetica, Arial, sans-serif" font-size="13" fill="#5b6675" text-anchor="middle" font-weight="normal" dominant-baseline="middle" xml:space="preserve">in a cell</text>
<rect x="305" y="60.5" width="210" height="78" rx="13" ry="13" fill="#0f172a" opacity="0.055"/>
<rect x="305" y="63" width="210" height="78" rx="13" ry="13" fill="#1e293b" opacity="0.035"/>
<rect x="305" y="58" width="210" height="78" rx="13" ry="13" fill="url(#g_accent)" stroke="#4f46e5" stroke-width="1.8"/>
<text x="410.0" y="88.0" font-family="Inter, ui-sans-serif, Segoe UI, Roboto, DejaVu Sans, Helvetica, Arial, sans-serif" font-size="15.5" fill="#312e81" text-anchor="middle" font-weight="bold" dominant-baseline="middle" xml:space="preserve">Google's computer</text>
<text x="410.0" y="101.75" font-family="Inter, ui-sans-serif, Segoe UI, Roboto, DejaVu Sans, Helvetica, Arial, sans-serif" font-size="13" fill="#5b6675" text-anchor="middle" font-weight="normal" dominant-baseline="middle" xml:space="preserve">runs it for you</text>
<rect x="590" y="60.5" width="206" height="78" rx="13" ry="13" fill="#0f172a" opacity="0.055"/>
<rect x="590" y="63" width="206" height="78" rx="13" ry="13" fill="#1e293b" opacity="0.035"/>
<rect x="590" y="58" width="206" height="78" rx="13" ry="13" fill="url(#g_example)" stroke="#16a34a" stroke-width="1.8"/>
<text x="693.0" y="88.0" font-family="Inter, ui-sans-serif, Segoe UI, Roboto, DejaVu Sans, Helvetica, Arial, sans-serif" font-size="15.5" fill="#14532d" text-anchor="middle" font-weight="bold" dominant-baseline="middle" xml:space="preserve">Output appears</text>
<text x="693.0" y="101.75" font-family="Inter, ui-sans-serif, Segoe UI, Roboto, DejaVu Sans, Helvetica, Arial, sans-serif" font-size="13" fill="#5b6675" text-anchor="middle" font-weight="normal" dominant-baseline="middle" xml:space="preserve">right below</text>
<line x1="230" y1="97" x2="291.0" y2="97.0" stroke="#475569" stroke-width="2.2" stroke-linecap="round"/>
<polygon points="303.0,97.0 291.0,101.8 291.0,92.2" fill="#475569"/>
<text x="266.5" y="83.0" font-family="Inter, ui-sans-serif, Segoe UI, Roboto, DejaVu Sans, Helvetica, Arial, sans-serif" font-size="12.5" fill="#4f46e5" text-anchor="middle" font-weight="bold" dominant-baseline="middle" xml:space="preserve">press  ▶</text>
<line x1="515" y1="97" x2="576.0" y2="97.0" stroke="#475569" stroke-width="2.2" stroke-linecap="round"/>
<polygon points="588.0,97.0 576.0,101.8 576.0,92.2" fill="#475569"/>
<text x="410" y="168" font-family="Inter, ui-sans-serif, Segoe UI, Roboto, DejaVu Sans, Helvetica, Arial, sans-serif" font-size="12.5" fill="#64748b" text-anchor="middle" font-weight="bold" dominant-baseline="middle" xml:space="preserve">You never install or manage anything — Google runs the code, you just read the results.</text>
</svg>
