<svg xmlns="http://www.w3.org/2000/svg" viewBox="0 0 764 118" width="764" height="118" font-family="Inter, ui-sans-serif, Segoe UI, Roboto, DejaVu Sans, Helvetica, Arial, sans-serif">
<defs>
<linearGradient id="g_concept" x1="0" y1="0" x2="0" y2="1"><stop offset="0" stop-color="#eff5ff"/><stop offset="1" stop-color="#dde9ff"/></linearGradient>
<linearGradient id="g_example" x1="0" y1="0" x2="0" y2="1"><stop offset="0" stop-color="#eefaf0"/><stop offset="1" stop-color="#d7f1de"/></linearGradient>
<linearGradient id="g_key" x1="0" y1="0" x2="0" y2="1"><stop offset="0" stop-color="#fff6ea"/><stop offset="1" stop-color="#ffecca"/></linearGradient>
<linearGradient id="g_practice" x1="0" y1="0" x2="0" y2="1"><stop offset="0" stop-color="#f4f0ff"/><stop offset="1" stop-color="#e7defb"/></linearGradient>
<linearGradient id="g_deep" x1="0" y1="0" x2="0" y2="1"><stop offset="0" stop-color="#eafaf6"/><stop offset="1" stop-color="#d3f1ea"/></linearGradient>
<linearGradient id="g_note" x1="0" y1="0" x2="0" y2="1"><stop offset="0" stop-color="#f1f5f9"/><stop offset="1" stop-color="#e5edf6"/></linearGradient>
<linearGradient id="g_warn" x1="0" y1="0" x2="0" y2="1"><stop offset="0" stop-color="#fef1ef"/><stop offset="1" stop-color="#fde2dd"/></linearGradient>
<linearGradient id="g_ink" x1="0" y1="0" x2="0" y2="1"><stop offset="0" stop-color="#eef2f7"/><stop offset="1" stop-color="#dfe6f0"/></linearGradient>
<linearGradient id="g_plain" x1="0" y1="0" x2="0" y2="1"><stop offset="0" stop-color="#ffffff"/><stop offset="1" stop-color="#f3f7fc"/></linearGradient>
<linearGradient id="g_accent" x1="0" y1="0" x2="0" y2="1"><stop offset="0" stop-color="#eef0fe"/><stop offset="1" stop-color="#dfe2fd"/></linearGradient>
</defs>
<rect x="0" y="0" width="764" height="118" fill="#ffffff"/>
<rect x="20" y="36.5" width="86" height="50" rx="13" ry="13" fill="#0f172a" opacity="0.055"/>
<rect x="20" y="39" width="86" height="50" rx="13" ry="13" fill="#1e293b" opacity="0.035"/>
<rect x="20" y="34" width="86" height="50" rx="13" ry="13" fill="url(#g_concept)" stroke="#2563eb" stroke-width="1.8"/>
<text x="63.0" y="59.0" font-family="Inter, ui-sans-serif, Segoe UI, Roboto, DejaVu Sans, Helvetica, Arial, sans-serif" font-size="13.5" fill="#1e3a8a" text-anchor="middle" font-weight="bold" dominant-baseline="middle" xml:space="preserve">Concept</text>
<rect x="124" y="36.5" width="86" height="50" rx="13" ry="13" fill="#0f172a" opacity="0.055"/>
<rect x="124" y="39" width="86" height="50" rx="13" ry="13" fill="#1e293b" opacity="0.035"/>
<rect x="124" y="34" width="86" height="50" rx="13" ry="13" fill="url(#g_example)" stroke="#16a34a" stroke-width="1.8"/>
<text x="167.0" y="59.0" font-family="Inter, ui-sans-serif, Segoe UI, Roboto, DejaVu Sans, Helvetica, Arial, sans-serif" font-size="13.5" fill="#14532d" text-anchor="middle" font-weight="bold" dominant-baseline="middle" xml:space="preserve">Example</text>
<line x1="106" y1="59" x2="114.0" y2="59.0" stroke="#94a3b8" stroke-width="2" stroke-linecap="round"/>
<polygon points="122.0,59.0 114.0,62.2 114.0,55.8" fill="#94a3b8"/>
<rect x="228" y="36.5" width="86" height="50" rx="13" ry="13" fill="#0f172a" opacity="0.055"/>
<rect x="228" y="39" width="86" height="50" rx="13" ry="13" fill="#1e293b" opacity="0.035"/>
<rect x="228" y="34" width="86" height="50" rx="13" ry="13" fill="url(#g_accent)" stroke="#4f46e5" stroke-width="1.8"/>
<text x="271.0" y="59.0" font-family="Inter, ui-sans-serif, Segoe UI, Roboto, DejaVu Sans, Helvetica, Arial, sans-serif" font-size="13.5" fill="#312e81" text-anchor="middle" font-weight="bold" dominant-baseline="middle" xml:space="preserve">Demo</text>
<line x1="210" y1="59" x2="218.0" y2="59.0" stroke="#94a3b8" stroke-width="2" stroke-linecap="round"/>
<polygon points="226.0,59.0 218.0,62.2 218.0,55.8" fill="#94a3b8"/>
<rect x="332" y="36.5" width="86" height="50" rx="13" ry="13" fill="#0f172a" opacity="0.055"/>
<rect x="332" y="39" width="86" height="50" rx="13" ry="13" fill="#1e293b" opacity="0.035"/>
<rect x="332" y="34" width="86" height="50" rx="13" ry="13" fill="url(#g_key)" stroke="#d97706" stroke-width="1.8"/>
<text x="375.0" y="50.25" font-family="Inter, ui-sans-serif, Segoe UI, Roboto, DejaVu Sans, Helvetica, Arial, sans-serif" font-size="13.5" fill="#7c2d12" text-anchor="middle" font-weight="bold" dominant-baseline="middle" xml:space="preserve">Key</text>
<text x="375.0" y="67.75" font-family="Inter, ui-sans-serif, Segoe UI, Roboto, DejaVu Sans, Helvetica, Arial, sans-serif" font-size="13.5" fill="#7c2d12" text-anchor="middle" font-weight="bold" dominant-baseline="middle" xml:space="preserve">points</text>
<line x1="314" y1="59" x2="322.0" y2="59.0" stroke="#94a3b8" stroke-width="2" stroke-linecap="round"/>
<polygon points="330.0,59.0 322.0,62.2 322.0,55.8" fill="#94a3b8"/>
<rect x="436" y="36.5" width="86" height="50" rx="13" ry="13" fill="#0f172a" opacity="0.055"/>
<rect x="436" y="39" width="86" height="50" rx="13" ry="13" fill="#1e293b" opacity="0.035"/>
<rect x="436" y="34" width="86" height="50" rx="13" ry="13" fill="url(#g_practice)" stroke="#7c3aed" stroke-width="1.8"/>
<text x="479.0" y="59.0" font-family="Inter, ui-sans-serif, Segoe UI, Roboto, DejaVu Sans, Helvetica, Arial, sans-serif" font-size="13.5" fill="#4c1d95" text-anchor="middle" font-weight="bold" dominant-baseline="middle" xml:space="preserve">Quiz</text>
<line x1="418" y1="59" x2="426.0" y2="59.0" stroke="#94a3b8" stroke-width="2" stroke-linecap="round"/>
<polygon points="434.0,59.0 426.0,62.2 426.0,55.8" fill="#94a3b8"/>
<rect x="540" y="36.5" width="86" height="50" rx="13" ry="13" fill="#0f172a" opacity="0.055"/>
<rect x="540" y="39" width="86" height="50" rx="13" ry="13" fill="#1e293b" opacity="0.035"/>
<rect x="540" y="34" width="86" height="50" rx="13" ry="13" fill="url(#g_practice)" stroke="#7c3aed" stroke-width="1.8"/>
<text x="583.0" y="59.0" font-family="Inter, ui-sans-serif, Segoe UI, Roboto, DejaVu Sans, Helvetica, Arial, sans-serif" font-size="13.5" fill="#4c1d95" text-anchor="middle" font-weight="bold" dominant-baseline="middle" xml:space="preserve">Practice</text>
<line x1="522" y1="59" x2="530.0" y2="59.0" stroke="#94a3b8" stroke-width="2" stroke-linecap="round"/>
<polygon points="538.0,59.0 530.0,62.2 530.0,55.8" fill="#94a3b8"/>
<rect x="644" y="36.5" width="86" height="50" rx="13" ry="13" fill="#0f172a" opacity="0.055"/>
<rect x="644" y="39" width="86" height="50" rx="13" ry="13" fill="#1e293b" opacity="0.035"/>
<rect x="644" y="34" width="86" height="50" rx="13" ry="13" fill="url(#g_deep)" stroke="#0d9488" stroke-width="1.8"/>
<text x="687.0" y="50.25" font-family="Inter, ui-sans-serif, Segoe UI, Roboto, DejaVu Sans, Helvetica, Arial, sans-serif" font-size="13.5" fill="#134e4a" text-anchor="middle" font-weight="bold" dominant-baseline="middle" xml:space="preserve">Deep</text>
<text x="687.0" y="67.75" font-family="Inter, ui-sans-serif, Segoe UI, Roboto, DejaVu Sans, Helvetica, Arial, sans-serif" font-size="13.5" fill="#134e4a" text-anchor="middle" font-weight="bold" dominant-baseline="middle" xml:space="preserve">dive</text>
<line x1="626" y1="59" x2="634.0" y2="59.0" stroke="#94a3b8" stroke-width="2" stroke-linecap="round"/>
<polygon points="642.0,59.0 634.0,62.2 634.0,55.8" fill="#94a3b8"/>
</svg>
