<svg xmlns="http://www.w3.org/2000/svg" viewBox="0 0 720 300" width="720" height="300" font-family="Inter, ui-sans-serif, Segoe UI, Roboto, DejaVu Sans, Helvetica, Arial, sans-serif">
<defs>
<linearGradient id="g_concept" x1="0" y1="0" x2="0" y2="1"><stop offset="0" stop-color="#eff5ff"/><stop offset="1" stop-color="#dde9ff"/></linearGradient>
<linearGradient id="g_example" x1="0" y1="0" x2="0" y2="1"><stop offset="0" stop-color="#eefaf0"/><stop offset="1" stop-color="#d7f1de"/></linearGradient>
<linearGradient id="g_key" x1="0" y1="0" x2="0" y2="1"><stop offset="0" stop-color="#fff6ea"/><stop offset="1" stop-color="#ffecca"/></linearGradient>
<linearGradient id="g_practice" x1="0" y1="0" x2="0" y2="1"><stop offset="0" stop-color="#f4f0ff"/><stop offset="1" stop-color="#e7defb"/></linearGradient>
<linearGradient id="g_deep" x1="0" y1="0" x2="0" y2="1"><stop offset="0" stop-color="#eafaf6"/><stop offset="1" stop-color="#d3f1ea"/></linearGradient>
<linearGradient id="g_note" x1="0" y1="0" x2="0" y2="1"><stop offset="0" stop-color="#f1f5f9"/><stop offset="1" stop-color="#e5edf6"/></linearGradient>
<linearGradient id="g_warn" x1="0" y1="0" x2="0" y2="1"><stop offset="0" stop-color="#fef1ef"/><stop offset="1" stop-color="#fde2dd"/></linearGradient>
<linearGradient id="g_ink" x1="0" y1="0" x2="0" y2="1"><stop offset="0" stop-color="#eef2f7"/><stop offset="1" stop-color="#dfe6f0"/></linearGradient>
<linearGradient id="g_plain" x1="0" y1="0" x2="0" y2="1"><stop offset="0" stop-color="#ffffff"/><stop offset="1" stop-color="#f3f7fc"/></linearGradient>
<linearGradient id="g_accent" x1="0" y1="0" x2="0" y2="1"><stop offset="0" stop-color="#eef0fe"/><stop offset="1" stop-color="#dfe2fd"/></linearGradient>
</defs>
<rect x="0" y="0" width="720" height="300" fill="#ffffff"/>
<text x="360" y="32" font-family="Inter, ui-sans-serif, Segoe UI, Roboto, DejaVu Sans, Helvetica, Arial, sans-serif" font-size="16" fill="#0f172a" text-anchor="middle" font-weight="bold" dominant-baseline="middle" xml:space="preserve">The context window = how much it can see at once</text>
<rect x="268" y="136" width="406" height="58" rx="12" ry="12" fill="#eef0fe" stroke="#4f46e5" stroke-width="2.5"/>
<rect x="24" y="150" width="30" height="30" rx="6" ry="6" fill="#eef1f5" stroke="#d3dae3" stroke-width="1.5"/>
<rect x="60" y="150" width="30" height="30" rx="6" ry="6" fill="#eef1f5" stroke="#d3dae3" stroke-width="1.5"/>
<rect x="96" y="150" width="30" height="30" rx="6" ry="6" fill="#eef1f5" stroke="#d3dae3" stroke-width="1.5"/>
<rect x="132" y="150" width="30" height="30" rx="6" ry="6" fill="#eef1f5" stroke="#d3dae3" stroke-width="1.5"/>
<rect x="168" y="150" width="30" height="30" rx="6" ry="6" fill="#eef1f5" stroke="#d3dae3" stroke-width="1.5"/>
<rect x="204" y="150" width="30" height="30" rx="6" ry="6" fill="#eef1f5" stroke="#d3dae3" stroke-width="1.5"/>
<rect x="240" y="150" width="30" height="30" rx="6" ry="6" fill="#eef1f5" stroke="#d3dae3" stroke-width="1.5"/>
<rect x="276" y="150" width="30" height="30" rx="6" ry="6" fill="#eff5ff" stroke="#2563eb" stroke-width="1.8"/>
<rect x="312" y="150" width="30" height="30" rx="6" ry="6" fill="#eff5ff" stroke="#2563eb" stroke-width="1.8"/>
<rect x="348" y="150" width="30" height="30" rx="6" ry="6" fill="#eff5ff" stroke="#2563eb" stroke-width="1.8"/>
<rect x="384" y="150" width="30" height="30" rx="6" ry="6" fill="#eff5ff" stroke="#2563eb" stroke-width="1.8"/>
<rect x="420" y="150" width="30" height="30" rx="6" ry="6" fill="#eff5ff" stroke="#2563eb" stroke-width="1.8"/>
<rect x="456" y="150" width="30" height="30" rx="6" ry="6" fill="#eff5ff" stroke="#2563eb" stroke-width="1.8"/>
<rect x="492" y="150" width="30" height="30" rx="6" ry="6" fill="#eff5ff" stroke="#2563eb" stroke-width="1.8"/>
<rect x="528" y="150" width="30" height="30" rx="6" ry="6" fill="#eff5ff" stroke="#2563eb" stroke-width="1.8"/>
<rect x="564" y="150" width="30" height="30" rx="6" ry="6" fill="#eff5ff" stroke="#2563eb" stroke-width="1.8"/>
<rect x="600" y="150" width="30" height="30" rx="6" ry="6" fill="#eff5ff" stroke="#2563eb" stroke-width="1.8"/>
<rect x="636" y="150" width="30" height="30" rx="6" ry="6" fill="#eff5ff" stroke="#2563eb" stroke-width="1.8"/>
<text x="471.0" y="122" font-family="Inter, ui-sans-serif, Segoe UI, Roboto, DejaVu Sans, Helvetica, Arial, sans-serif" font-size="12.5" fill="#4f46e5" text-anchor="middle" font-weight="bold" dominant-baseline="middle" xml:space="preserve">context window  (today: ~8K to 200K+ tokens)</text>
<text x="147.0" y="206" font-family="Inter, ui-sans-serif, Segoe UI, Roboto, DejaVu Sans, Helvetica, Arial, sans-serif" font-size="12" fill="#94a3b8" text-anchor="middle" font-weight="bold" dominant-baseline="middle" xml:space="preserve">earlier tokens —</text>
<text x="147.0" y="222" font-family="Inter, ui-sans-serif, Segoe UI, Roboto, DejaVu Sans, Helvetica, Arial, sans-serif" font-size="12" fill="#94a3b8" text-anchor="middle" font-weight="bold" dominant-baseline="middle" xml:space="preserve">no longer visible</text>
<text x="360" y="256" font-family="Inter, ui-sans-serif, Segoe UI, Roboto, DejaVu Sans, Helvetica, Arial, sans-serif" font-size="12.5" fill="#64748b" text-anchor="middle" font-weight="bold" dominant-baseline="middle" xml:space="preserve">Your prompt + the whole conversation + the model’s own reply all share this one budget.</text>
</svg>
