<svg xmlns="http://www.w3.org/2000/svg" viewBox="0 0 820 196" width="820" height="196" font-family="Inter, ui-sans-serif, Segoe UI, Roboto, DejaVu Sans, Helvetica, Arial, sans-serif">
<defs>
<linearGradient id="g_concept" x1="0" y1="0" x2="0" y2="1"><stop offset="0" stop-color="#eff5ff"/><stop offset="1" stop-color="#dde9ff"/></linearGradient>
<linearGradient id="g_example" x1="0" y1="0" x2="0" y2="1"><stop offset="0" stop-color="#eefaf0"/><stop offset="1" stop-color="#d7f1de"/></linearGradient>
<linearGradient id="g_key" x1="0" y1="0" x2="0" y2="1"><stop offset="0" stop-color="#fff6ea"/><stop offset="1" stop-color="#ffecca"/></linearGradient>
<linearGradient id="g_practice" x1="0" y1="0" x2="0" y2="1"><stop offset="0" stop-color="#f4f0ff"/><stop offset="1" stop-color="#e7defb"/></linearGradient>
<linearGradient id="g_deep" x1="0" y1="0" x2="0" y2="1"><stop offset="0" stop-color="#eafaf6"/><stop offset="1" stop-color="#d3f1ea"/></linearGradient>
<linearGradient id="g_note" x1="0" y1="0" x2="0" y2="1"><stop offset="0" stop-color="#f1f5f9"/><stop offset="1" stop-color="#e5edf6"/></linearGradient>
<linearGradient id="g_warn" x1="0" y1="0" x2="0" y2="1"><stop offset="0" stop-color="#fef1ef"/><stop offset="1" stop-color="#fde2dd"/></linearGradient>
<linearGradient id="g_ink" x1="0" y1="0" x2="0" y2="1"><stop offset="0" stop-color="#eef2f7"/><stop offset="1" stop-color="#dfe6f0"/></linearGradient>
<linearGradient id="g_plain" x1="0" y1="0" x2="0" y2="1"><stop offset="0" stop-color="#ffffff"/><stop offset="1" stop-color="#f3f7fc"/></linearGradient>
<linearGradient id="g_accent" x1="0" y1="0" x2="0" y2="1"><stop offset="0" stop-color="#eef0fe"/><stop offset="1" stop-color="#dfe2fd"/></linearGradient>
</defs>
<rect x="0" y="0" width="820" height="196" fill="#ffffff"/>
<rect x="24" y="64.5" width="210" height="78" rx="13" ry="13" fill="#0f172a" opacity="0.055"/>
<rect x="24" y="67" width="210" height="78" rx="13" ry="13" fill="#1e293b" opacity="0.035"/>
<rect x="24" y="62" width="210" height="78" rx="13" ry="13" fill="url(#g_note)" stroke="#64748b" stroke-width="1.8"/>
<text x="129.0" y="101.0" font-family="ui-monospace, SFMono-Regular, Menlo, DejaVu Sans Mono, monospace" font-size="15" fill="#1e293b" text-anchor="middle" font-weight="bold" dominant-baseline="middle" xml:space="preserve">"a fluffy kitten"</text>
<rect x="312" y="64.5" width="180" height="78" rx="13" ry="13" fill="#0f172a" opacity="0.055"/>
<rect x="312" y="67" width="180" height="78" rx="13" ry="13" fill="#1e293b" opacity="0.035"/>
<rect x="312" y="62" width="180" height="78" rx="13" ry="13" fill="url(#g_accent)" stroke="#4f46e5" stroke-width="1.8"/>
<text x="402.0" y="92.25" font-family="Inter, ui-sans-serif, Segoe UI, Roboto, DejaVu Sans, Helvetica, Arial, sans-serif" font-size="15.5" fill="#312e81" text-anchor="middle" font-weight="bold" dominant-baseline="middle" xml:space="preserve">embedding model</text>
<text x="402.0" y="106.0" font-family="Inter, ui-sans-serif, Segoe UI, Roboto, DejaVu Sans, Helvetica, Arial, sans-serif" font-size="12.5" fill="#5b6675" text-anchor="middle" font-weight="normal" dominant-baseline="middle" xml:space="preserve">a neural net</text>
<rect x="566" y="50" width="230" height="102" rx="12" ry="12" fill="#ffffff" stroke="#94a3b8" stroke-width="2"/>
<text x="681" y="76" font-family="Inter, ui-sans-serif, Segoe UI, Roboto, DejaVu Sans, Helvetica, Arial, sans-serif" font-size="14" fill="#0f172a" text-anchor="middle" font-weight="bold" dominant-baseline="middle" xml:space="preserve">one vector</text>
<text x="681" y="100" font-family="DejaVu Sans Mono, monospace" font-size="13" fill="#4f46e5" text-anchor="middle" font-weight="normal" dominant-baseline="middle" xml:space="preserve">[0.12, −0.44, 0.91, …]</text>
<text x="681" y="124" font-family="Inter, ui-sans-serif, Segoe UI, Roboto, DejaVu Sans, Helvetica, Arial, sans-serif" font-size="11.5" fill="#64748b" text-anchor="middle" font-weight="normal" dominant-baseline="middle" xml:space="preserve">often 384–3072 numbers</text>
<line x1="234" y1="101" x2="298.0" y2="101.0" stroke="#475569" stroke-width="2.2" stroke-linecap="round"/>
<polygon points="310.0,101.0 298.0,105.8 298.0,96.2" fill="#475569"/>
<line x1="492" y1="101" x2="552.0" y2="101.0" stroke="#475569" stroke-width="2.2" stroke-linecap="round"/>
<polygon points="564.0,101.0 552.0,105.8 552.0,96.2" fill="#475569"/>
<text x="410" y="180" font-family="Inter, ui-sans-serif, Segoe UI, Roboto, DejaVu Sans, Helvetica, Arial, sans-serif" font-size="12.5" fill="#64748b" text-anchor="middle" font-weight="bold" dominant-baseline="middle" xml:space="preserve">An embedding turns text into a point in “meaning space.”</text>
</svg>
