<svg xmlns="http://www.w3.org/2000/svg" viewBox="0 0 900 250" width="900" height="250" font-family="Inter, ui-sans-serif, Segoe UI, Roboto, DejaVu Sans, Helvetica, Arial, sans-serif">
<defs>
<linearGradient id="g_concept" x1="0" y1="0" x2="0" y2="1"><stop offset="0" stop-color="#eff5ff"/><stop offset="1" stop-color="#dde9ff"/></linearGradient>
<linearGradient id="g_example" x1="0" y1="0" x2="0" y2="1"><stop offset="0" stop-color="#eefaf0"/><stop offset="1" stop-color="#d7f1de"/></linearGradient>
<linearGradient id="g_key" x1="0" y1="0" x2="0" y2="1"><stop offset="0" stop-color="#fff6ea"/><stop offset="1" stop-color="#ffecca"/></linearGradient>
<linearGradient id="g_practice" x1="0" y1="0" x2="0" y2="1"><stop offset="0" stop-color="#f4f0ff"/><stop offset="1" stop-color="#e7defb"/></linearGradient>
<linearGradient id="g_deep" x1="0" y1="0" x2="0" y2="1"><stop offset="0" stop-color="#eafaf6"/><stop offset="1" stop-color="#d3f1ea"/></linearGradient>
<linearGradient id="g_note" x1="0" y1="0" x2="0" y2="1"><stop offset="0" stop-color="#f1f5f9"/><stop offset="1" stop-color="#e5edf6"/></linearGradient>
<linearGradient id="g_warn" x1="0" y1="0" x2="0" y2="1"><stop offset="0" stop-color="#fef1ef"/><stop offset="1" stop-color="#fde2dd"/></linearGradient>
<linearGradient id="g_ink" x1="0" y1="0" x2="0" y2="1"><stop offset="0" stop-color="#eef2f7"/><stop offset="1" stop-color="#dfe6f0"/></linearGradient>
<linearGradient id="g_plain" x1="0" y1="0" x2="0" y2="1"><stop offset="0" stop-color="#ffffff"/><stop offset="1" stop-color="#f3f7fc"/></linearGradient>
<linearGradient id="g_accent" x1="0" y1="0" x2="0" y2="1"><stop offset="0" stop-color="#eef0fe"/><stop offset="1" stop-color="#dfe2fd"/></linearGradient>
</defs>
<rect x="0" y="0" width="900" height="250" fill="#ffffff"/>
<text x="450" y="30" font-family="Inter, ui-sans-serif, Segoe UI, Roboto, DejaVu Sans, Helvetica, Arial, sans-serif" font-size="16" fill="#0f172a" text-anchor="middle" font-weight="bold" dominant-baseline="middle" xml:space="preserve">The whole engine, in one picture</text>
<rect x="20" y="86.5" width="120" height="80" rx="13" ry="13" fill="#0f172a" opacity="0.055"/>
<rect x="20" y="89" width="120" height="80" rx="13" ry="13" fill="#1e293b" opacity="0.035"/>
<rect x="20" y="84" width="120" height="80" rx="13" ry="13" fill="url(#g_note)" stroke="#64748b" stroke-width="1.8"/>
<text x="80.0" y="124.0" font-family="Inter, ui-sans-serif, Segoe UI, Roboto, DejaVu Sans, Helvetica, Arial, sans-serif" font-size="15" fill="#1e293b" text-anchor="middle" font-weight="bold" dominant-baseline="middle" xml:space="preserve">Your text</text>
<rect x="168" y="86.5" width="140" height="80" rx="13" ry="13" fill="#0f172a" opacity="0.055"/>
<rect x="168" y="89" width="140" height="80" rx="13" ry="13" fill="#1e293b" opacity="0.035"/>
<rect x="168" y="84" width="140" height="80" rx="13" ry="13" fill="url(#g_concept)" stroke="#2563eb" stroke-width="1.8"/>
<text x="238.0" y="115.5" font-family="Inter, ui-sans-serif, Segoe UI, Roboto, DejaVu Sans, Helvetica, Arial, sans-serif" font-size="15.5" fill="#1e3a8a" text-anchor="middle" font-weight="bold" dominant-baseline="middle" xml:space="preserve">Tokenize</text>
<text x="238.0" y="129.25" font-family="Inter, ui-sans-serif, Segoe UI, Roboto, DejaVu Sans, Helvetica, Arial, sans-serif" font-size="12" fill="#5b6675" text-anchor="middle" font-weight="normal" dominant-baseline="middle" xml:space="preserve">1.2</text>
<rect x="336" y="86.5" width="214" height="80" rx="13" ry="13" fill="#0f172a" opacity="0.055"/>
<rect x="336" y="89" width="214" height="80" rx="13" ry="13" fill="#1e293b" opacity="0.035"/>
<rect x="336" y="84" width="214" height="80" rx="13" ry="13" fill="url(#g_accent)" stroke="#4f46e5" stroke-width="1.8"/>
<text x="443.0" y="116.0" font-family="Inter, ui-sans-serif, Segoe UI, Roboto, DejaVu Sans, Helvetica, Arial, sans-serif" font-size="13.8" fill="#312e81" text-anchor="middle" font-weight="bold" dominant-baseline="middle" xml:space="preserve">Embeddings + attention</text>
<text x="443.0" y="128.9" font-family="Inter, ui-sans-serif, Segoe UI, Roboto, DejaVu Sans, Helvetica, Arial, sans-serif" font-size="11" fill="#5b6675" text-anchor="middle" font-weight="normal" dominant-baseline="middle" xml:space="preserve">inside the model · 1.3–1.4</text>
<rect x="578" y="86.5" width="170" height="80" rx="13" ry="13" fill="#0f172a" opacity="0.055"/>
<rect x="578" y="89" width="170" height="80" rx="13" ry="13" fill="#1e293b" opacity="0.035"/>
<rect x="578" y="84" width="170" height="80" rx="13" ry="13" fill="url(#g_key)" stroke="#d97706" stroke-width="1.8"/>
<text x="663.0" y="115.5" font-family="Inter, ui-sans-serif, Segoe UI, Roboto, DejaVu Sans, Helvetica, Arial, sans-serif" font-size="14.5" fill="#7c2d12" text-anchor="middle" font-weight="bold" dominant-baseline="middle" xml:space="preserve">Next-token odds</text>
<text x="663.0" y="128.75" font-family="Inter, ui-sans-serif, Segoe UI, Roboto, DejaVu Sans, Helvetica, Arial, sans-serif" font-size="12" fill="#5b6675" text-anchor="middle" font-weight="normal" dominant-baseline="middle" xml:space="preserve">1.1</text>
<rect x="776" y="86.5" width="104" height="80" rx="13" ry="13" fill="#0f172a" opacity="0.055"/>
<rect x="776" y="89" width="104" height="80" rx="13" ry="13" fill="#1e293b" opacity="0.035"/>
<rect x="776" y="84" width="104" height="80" rx="13" ry="13" fill="url(#g_example)" stroke="#16a34a" stroke-width="1.8"/>
<text x="828.0" y="115.5" font-family="Inter, ui-sans-serif, Segoe UI, Roboto, DejaVu Sans, Helvetica, Arial, sans-serif" font-size="14.5" fill="#14532d" text-anchor="middle" font-weight="bold" dominant-baseline="middle" xml:space="preserve">Sample</text>
<text x="828.0" y="128.75" font-family="Inter, ui-sans-serif, Segoe UI, Roboto, DejaVu Sans, Helvetica, Arial, sans-serif" font-size="12" fill="#5b6675" text-anchor="middle" font-weight="normal" dominant-baseline="middle" xml:space="preserve">1.5</text>
<line x1="140" y1="124" x2="154.0" y2="124.0" stroke="#475569" stroke-width="2.2" stroke-linecap="round"/>
<polygon points="166.0,124.0 154.0,128.8 154.0,119.2" fill="#475569"/>
<line x1="308" y1="124" x2="322.0" y2="124.0" stroke="#475569" stroke-width="2.2" stroke-linecap="round"/>
<polygon points="334.0,124.0 322.0,128.8 322.0,119.2" fill="#475569"/>
<line x1="550" y1="124" x2="564.0" y2="124.0" stroke="#475569" stroke-width="2.2" stroke-linecap="round"/>
<polygon points="576.0,124.0 564.0,128.8 564.0,119.2" fill="#475569"/>
<line x1="748" y1="124" x2="762.0" y2="124.0" stroke="#475569" stroke-width="2.2" stroke-linecap="round"/>
<polygon points="774.0,124.0 762.0,128.8 762.0,119.2" fill="#475569"/>
<line x1="828" y1="164" x2="828" y2="206" stroke="#16a34a" stroke-width="2.2" stroke-linecap="round"/>
<line x1="828" y1="206" x2="80" y2="206" stroke="#16a34a" stroke-width="2.2" stroke-linecap="round"/>
<line x1="80" y1="206" x2="80.0" y2="178.0" stroke="#16a34a" stroke-width="2.2" stroke-linecap="round"/>
<polygon points="80.0,166.0 84.8,178.0 75.2,178.0" fill="#16a34a"/>
<text x="454" y="224" font-family="Inter, ui-sans-serif, Segoe UI, Roboto, DejaVu Sans, Helvetica, Arial, sans-serif" font-size="12.5" fill="#16a34a" text-anchor="middle" font-weight="bold" dominant-baseline="middle" xml:space="preserve">append the chosen token and repeat — that loop is autoregression</text>
</svg>
