<svg xmlns="http://www.w3.org/2000/svg" viewBox="0 0 920 200" width="920" height="200" font-family="Inter, ui-sans-serif, Segoe UI, Roboto, DejaVu Sans, Helvetica, Arial, sans-serif">
<defs>
<linearGradient id="g_concept" x1="0" y1="0" x2="0" y2="1"><stop offset="0" stop-color="#eff5ff"/><stop offset="1" stop-color="#dde9ff"/></linearGradient>
<linearGradient id="g_example" x1="0" y1="0" x2="0" y2="1"><stop offset="0" stop-color="#eefaf0"/><stop offset="1" stop-color="#d7f1de"/></linearGradient>
<linearGradient id="g_key" x1="0" y1="0" x2="0" y2="1"><stop offset="0" stop-color="#fff6ea"/><stop offset="1" stop-color="#ffecca"/></linearGradient>
<linearGradient id="g_practice" x1="0" y1="0" x2="0" y2="1"><stop offset="0" stop-color="#f4f0ff"/><stop offset="1" stop-color="#e7defb"/></linearGradient>
<linearGradient id="g_deep" x1="0" y1="0" x2="0" y2="1"><stop offset="0" stop-color="#eafaf6"/><stop offset="1" stop-color="#d3f1ea"/></linearGradient>
<linearGradient id="g_note" x1="0" y1="0" x2="0" y2="1"><stop offset="0" stop-color="#f1f5f9"/><stop offset="1" stop-color="#e5edf6"/></linearGradient>
<linearGradient id="g_warn" x1="0" y1="0" x2="0" y2="1"><stop offset="0" stop-color="#fef1ef"/><stop offset="1" stop-color="#fde2dd"/></linearGradient>
<linearGradient id="g_ink" x1="0" y1="0" x2="0" y2="1"><stop offset="0" stop-color="#eef2f7"/><stop offset="1" stop-color="#dfe6f0"/></linearGradient>
<linearGradient id="g_plain" x1="0" y1="0" x2="0" y2="1"><stop offset="0" stop-color="#ffffff"/><stop offset="1" stop-color="#f3f7fc"/></linearGradient>
<linearGradient id="g_accent" x1="0" y1="0" x2="0" y2="1"><stop offset="0" stop-color="#eef0fe"/><stop offset="1" stop-color="#dfe2fd"/></linearGradient>
</defs>
<rect x="0" y="0" width="920" height="200" fill="#ffffff"/>
<text x="460" y="30" font-family="Inter, ui-sans-serif, Segoe UI, Roboto, DejaVu Sans, Helvetica, Arial, sans-serif" font-size="16" fill="#0f172a" text-anchor="middle" font-weight="bold" dominant-baseline="middle" xml:space="preserve">The interview loop — each round maps to a track</text>
<rect x="20" y="86.5" width="130" height="56" rx="10" ry="10" fill="#0f172a" opacity="0.055"/>
<rect x="20" y="89" width="130" height="56" rx="10" ry="10" fill="#1e293b" opacity="0.035"/>
<rect x="20" y="84" width="130" height="56" rx="10" ry="10" fill="url(#g_note)" stroke="#64748b" stroke-width="1.8"/>
<text x="85.0" y="106" font-family="Inter, ui-sans-serif, Segoe UI, Roboto, DejaVu Sans, Helvetica, Arial, sans-serif" font-size="11.5" fill="#1e293b" text-anchor="middle" font-weight="bold" dominant-baseline="middle" xml:space="preserve">Recruiter</text>
<text x="85.0" y="123" font-family="Inter, ui-sans-serif, Segoe UI, Roboto, DejaVu Sans, Helvetica, Arial, sans-serif" font-size="10.5" fill="#1e293b" text-anchor="middle" font-weight="bold" dominant-baseline="middle" xml:space="preserve">screen</text>
<rect x="175" y="86.5" width="130" height="56" rx="10" ry="10" fill="#0f172a" opacity="0.055"/>
<rect x="175" y="89" width="130" height="56" rx="10" ry="10" fill="#1e293b" opacity="0.035"/>
<rect x="175" y="84" width="130" height="56" rx="10" ry="10" fill="url(#g_concept)" stroke="#2563eb" stroke-width="1.8"/>
<text x="240.0" y="106" font-family="Inter, ui-sans-serif, Segoe UI, Roboto, DejaVu Sans, Helvetica, Arial, sans-serif" font-size="11.5" fill="#1e3a8a" text-anchor="middle" font-weight="bold" dominant-baseline="middle" xml:space="preserve">Technical</text>
<text x="240.0" y="123" font-family="Inter, ui-sans-serif, Segoe UI, Roboto, DejaVu Sans, Helvetica, Arial, sans-serif" font-size="10.5" fill="#1e3a8a" text-anchor="middle" font-weight="bold" dominant-baseline="middle" xml:space="preserve">(fund. + coding)</text>
<rect x="345" y="86.5" width="130" height="56" rx="10" ry="10" fill="#0f172a" opacity="0.055"/>
<rect x="345" y="89" width="130" height="56" rx="10" ry="10" fill="#1e293b" opacity="0.035"/>
<rect x="345" y="84" width="130" height="56" rx="10" ry="10" fill="url(#g_key)" stroke="#d97706" stroke-width="1.8"/>
<text x="410.0" y="106" font-family="Inter, ui-sans-serif, Segoe UI, Roboto, DejaVu Sans, Helvetica, Arial, sans-serif" font-size="11.5" fill="#7c2d12" text-anchor="middle" font-weight="bold" dominant-baseline="middle" xml:space="preserve">System</text>
<text x="410.0" y="123" font-family="Inter, ui-sans-serif, Segoe UI, Roboto, DejaVu Sans, Helvetica, Arial, sans-serif" font-size="10.5" fill="#7c2d12" text-anchor="middle" font-weight="bold" dominant-baseline="middle" xml:space="preserve">design</text>
<rect x="515" y="86.5" width="130" height="56" rx="10" ry="10" fill="#0f172a" opacity="0.055"/>
<rect x="515" y="89" width="130" height="56" rx="10" ry="10" fill="#1e293b" opacity="0.035"/>
<rect x="515" y="84" width="130" height="56" rx="10" ry="10" fill="url(#g_example)" stroke="#16a34a" stroke-width="1.8"/>
<text x="580.0" y="106" font-family="Inter, ui-sans-serif, Segoe UI, Roboto, DejaVu Sans, Helvetica, Arial, sans-serif" font-size="11.5" fill="#14532d" text-anchor="middle" font-weight="bold" dominant-baseline="middle" xml:space="preserve">Project /</text>
<text x="580.0" y="123" font-family="Inter, ui-sans-serif, Segoe UI, Roboto, DejaVu Sans, Helvetica, Arial, sans-serif" font-size="10.5" fill="#14532d" text-anchor="middle" font-weight="bold" dominant-baseline="middle" xml:space="preserve">take-home</text>
<rect x="685" y="86.5" width="130" height="56" rx="10" ry="10" fill="#0f172a" opacity="0.055"/>
<rect x="685" y="89" width="130" height="56" rx="10" ry="10" fill="#1e293b" opacity="0.035"/>
<rect x="685" y="84" width="130" height="56" rx="10" ry="10" fill="url(#g_practice)" stroke="#7c3aed" stroke-width="1.8"/>
<text x="750.0" y="106" font-family="Inter, ui-sans-serif, Segoe UI, Roboto, DejaVu Sans, Helvetica, Arial, sans-serif" font-size="11.5" fill="#4c1d95" text-anchor="middle" font-weight="bold" dominant-baseline="middle" xml:space="preserve">Behavioral</text>
<text x="750.0" y="123" font-family="Inter, ui-sans-serif, Segoe UI, Roboto, DejaVu Sans, Helvetica, Arial, sans-serif" font-size="10.5" fill="#4c1d95" text-anchor="middle" font-weight="bold" dominant-baseline="middle" xml:space="preserve">+ judgment</text>
<rect x="840" y="86.5" width="70" height="56" rx="10" ry="10" fill="#0f172a" opacity="0.055"/>
<rect x="840" y="89" width="70" height="56" rx="10" ry="10" fill="#1e293b" opacity="0.035"/>
<rect x="840" y="84" width="70" height="56" rx="10" ry="10" fill="url(#g_accent)" stroke="#4f46e5" stroke-width="1.8"/>
<text x="875.0" y="112" font-family="Inter, ui-sans-serif, Segoe UI, Roboto, DejaVu Sans, Helvetica, Arial, sans-serif" font-size="12.5" fill="#312e81" text-anchor="middle" font-weight="bold" dominant-baseline="middle" xml:space="preserve">Offer</text>
<line x1="150" y1="112" x2="161.0" y2="112.0" stroke="#475569" stroke-width="2.2" stroke-linecap="round"/>
<polygon points="173.0,112.0 161.0,116.8 161.0,107.2" fill="#475569"/>
<line x1="305" y1="112" x2="331.0" y2="112.0" stroke="#475569" stroke-width="2.2" stroke-linecap="round"/>
<polygon points="343.0,112.0 331.0,116.8 331.0,107.2" fill="#475569"/>
<line x1="475" y1="112" x2="501.0" y2="112.0" stroke="#475569" stroke-width="2.2" stroke-linecap="round"/>
<polygon points="513.0,112.0 501.0,116.8 501.0,107.2" fill="#475569"/>
<line x1="645" y1="112" x2="671.0" y2="112.0" stroke="#475569" stroke-width="2.2" stroke-linecap="round"/>
<polygon points="683.0,112.0 671.0,116.8 671.0,107.2" fill="#475569"/>
<line x1="815" y1="112" x2="826.0" y2="112.0" stroke="#475569" stroke-width="2.2" stroke-linecap="round"/>
<polygon points="838.0,112.0 826.0,116.8 826.0,107.2" fill="#475569"/>
<text x="460" y="178" font-family="Inter, ui-sans-serif, Segoe UI, Roboto, DejaVu Sans, Helvetica, Arial, sans-serif" font-size="11.5" fill="#64748b" text-anchor="middle" font-weight="bold" dominant-baseline="middle" xml:space="preserve">Fundamentals (T1–2), RAG/agents (T3–4), system design (T9.4), your project (T10), judgment (T9.6).</text>
</svg>
