<svg xmlns="http://www.w3.org/2000/svg" viewBox="0 0 980 340" width="980" height="340" font-family="Inter, ui-sans-serif, Segoe UI, Roboto, DejaVu Sans, Helvetica, Arial, sans-serif">
<defs>
<linearGradient id="g_concept" x1="0" y1="0" x2="0" y2="1"><stop offset="0" stop-color="#eff5ff"/><stop offset="1" stop-color="#dde9ff"/></linearGradient>
<linearGradient id="g_example" x1="0" y1="0" x2="0" y2="1"><stop offset="0" stop-color="#eefaf0"/><stop offset="1" stop-color="#d7f1de"/></linearGradient>
<linearGradient id="g_key" x1="0" y1="0" x2="0" y2="1"><stop offset="0" stop-color="#fff6ea"/><stop offset="1" stop-color="#ffecca"/></linearGradient>
<linearGradient id="g_practice" x1="0" y1="0" x2="0" y2="1"><stop offset="0" stop-color="#f4f0ff"/><stop offset="1" stop-color="#e7defb"/></linearGradient>
<linearGradient id="g_deep" x1="0" y1="0" x2="0" y2="1"><stop offset="0" stop-color="#eafaf6"/><stop offset="1" stop-color="#d3f1ea"/></linearGradient>
<linearGradient id="g_note" x1="0" y1="0" x2="0" y2="1"><stop offset="0" stop-color="#f1f5f9"/><stop offset="1" stop-color="#e5edf6"/></linearGradient>
<linearGradient id="g_warn" x1="0" y1="0" x2="0" y2="1"><stop offset="0" stop-color="#fef1ef"/><stop offset="1" stop-color="#fde2dd"/></linearGradient>
<linearGradient id="g_ink" x1="0" y1="0" x2="0" y2="1"><stop offset="0" stop-color="#eef2f7"/><stop offset="1" stop-color="#dfe6f0"/></linearGradient>
<linearGradient id="g_plain" x1="0" y1="0" x2="0" y2="1"><stop offset="0" stop-color="#ffffff"/><stop offset="1" stop-color="#f3f7fc"/></linearGradient>
<linearGradient id="g_accent" x1="0" y1="0" x2="0" y2="1"><stop offset="0" stop-color="#eef0fe"/><stop offset="1" stop-color="#dfe2fd"/></linearGradient>
</defs>
<rect x="0" y="0" width="980" height="340" fill="#ffffff"/>
<text x="490" y="30" font-family="Inter, ui-sans-serif, Segoe UI, Roboto, DejaVu Sans, Helvetica, Arial, sans-serif" font-size="16" fill="#0f172a" text-anchor="middle" font-weight="bold" dominant-baseline="middle" xml:space="preserve">Text-to-SQL: a question in, an answer out</text>
<rect x="30" y="94.5" width="168" height="76" rx="13" ry="13" fill="#0f172a" opacity="0.055"/>
<rect x="30" y="97" width="168" height="76" rx="13" ry="13" fill="#1e293b" opacity="0.035"/>
<rect x="30" y="92" width="168" height="76" rx="13" ry="13" fill="url(#g_concept)" stroke="#2563eb" stroke-width="1.8"/>
<text x="114.0" y="122.0" font-family="Inter, ui-sans-serif, Segoe UI, Roboto, DejaVu Sans, Helvetica, Arial, sans-serif" font-size="14" fill="#1e3a8a" text-anchor="middle" font-weight="bold" dominant-baseline="middle" xml:space="preserve">Question</text>
<text x="114.0" y="135.0" font-family="Inter, ui-sans-serif, Segoe UI, Roboto, DejaVu Sans, Helvetica, Arial, sans-serif" font-size="11" fill="#5b6675" text-anchor="middle" font-weight="normal" dominant-baseline="middle" xml:space="preserve">plain English</text>
<rect x="218" y="94.5" width="168" height="76" rx="13" ry="13" fill="#0f172a" opacity="0.055"/>
<rect x="218" y="97" width="168" height="76" rx="13" ry="13" fill="#1e293b" opacity="0.035"/>
<rect x="218" y="92" width="168" height="76" rx="13" ry="13" fill="url(#g_accent)" stroke="#4f46e5" stroke-width="1.8"/>
<text x="302.0" y="122.0" font-family="Inter, ui-sans-serif, Segoe UI, Roboto, DejaVu Sans, Helvetica, Arial, sans-serif" font-size="14" fill="#312e81" text-anchor="middle" font-weight="bold" dominant-baseline="middle" xml:space="preserve">LLM + schema</text>
<text x="302.0" y="135.0" font-family="Inter, ui-sans-serif, Segoe UI, Roboto, DejaVu Sans, Helvetica, Arial, sans-serif" font-size="11" fill="#5b6675" text-anchor="middle" font-weight="normal" dominant-baseline="middle" xml:space="preserve">sees tables/columns</text>
<line x1="198" y1="130" x2="204.0" y2="130.0" stroke="#475569" stroke-width="2.2" stroke-linecap="round"/>
<polygon points="216.0,130.0 204.0,134.8 204.0,125.2" fill="#475569"/>
<rect x="406" y="94.5" width="168" height="76" rx="13" ry="13" fill="#0f172a" opacity="0.055"/>
<rect x="406" y="97" width="168" height="76" rx="13" ry="13" fill="#1e293b" opacity="0.035"/>
<rect x="406" y="92" width="168" height="76" rx="13" ry="13" fill="url(#g_key)" stroke="#d97706" stroke-width="1.8"/>
<text x="490.0" y="122.0" font-family="Inter, ui-sans-serif, Segoe UI, Roboto, DejaVu Sans, Helvetica, Arial, sans-serif" font-size="14" fill="#7c2d12" text-anchor="middle" font-weight="bold" dominant-baseline="middle" xml:space="preserve">SQL</text>
<text x="490.0" y="135.0" font-family="Inter, ui-sans-serif, Segoe UI, Roboto, DejaVu Sans, Helvetica, Arial, sans-serif" font-size="11" fill="#5b6675" text-anchor="middle" font-weight="normal" dominant-baseline="middle" xml:space="preserve">SELECT ...</text>
<line x1="386" y1="130" x2="392.0" y2="130.0" stroke="#475569" stroke-width="2.2" stroke-linecap="round"/>
<polygon points="404.0,130.0 392.0,134.8 392.0,125.2" fill="#475569"/>
<rect x="594" y="94.5" width="168" height="76" rx="13" ry="13" fill="#0f172a" opacity="0.055"/>
<rect x="594" y="97" width="168" height="76" rx="13" ry="13" fill="#1e293b" opacity="0.035"/>
<rect x="594" y="92" width="168" height="76" rx="13" ry="13" fill="url(#g_example)" stroke="#16a34a" stroke-width="1.8"/>
<text x="678.0" y="122.0" font-family="Inter, ui-sans-serif, Segoe UI, Roboto, DejaVu Sans, Helvetica, Arial, sans-serif" font-size="14" fill="#14532d" text-anchor="middle" font-weight="bold" dominant-baseline="middle" xml:space="preserve">Run read-only</text>
<text x="678.0" y="135.0" font-family="Inter, ui-sans-serif, Segoe UI, Roboto, DejaVu Sans, Helvetica, Arial, sans-serif" font-size="11" fill="#5b6675" text-anchor="middle" font-weight="normal" dominant-baseline="middle" xml:space="preserve">on the database</text>
<line x1="574" y1="130" x2="580.0" y2="130.0" stroke="#475569" stroke-width="2.2" stroke-linecap="round"/>
<polygon points="592.0,130.0 580.0,134.8 580.0,125.2" fill="#475569"/>
<rect x="782" y="94.5" width="168" height="76" rx="13" ry="13" fill="#0f172a" opacity="0.055"/>
<rect x="782" y="97" width="168" height="76" rx="13" ry="13" fill="#1e293b" opacity="0.035"/>
<rect x="782" y="92" width="168" height="76" rx="13" ry="13" fill="url(#g_deep)" stroke="#0d9488" stroke-width="1.8"/>
<text x="866.0" y="122.0" font-family="Inter, ui-sans-serif, Segoe UI, Roboto, DejaVu Sans, Helvetica, Arial, sans-serif" font-size="14" fill="#134e4a" text-anchor="middle" font-weight="bold" dominant-baseline="middle" xml:space="preserve">Answer</text>
<text x="866.0" y="135.0" font-family="Inter, ui-sans-serif, Segoe UI, Roboto, DejaVu Sans, Helvetica, Arial, sans-serif" font-size="11" fill="#5b6675" text-anchor="middle" font-weight="normal" dominant-baseline="middle" xml:space="preserve">results, in words</text>
<line x1="762" y1="130" x2="768.0" y2="130.0" stroke="#475569" stroke-width="2.2" stroke-linecap="round"/>
<polygon points="780.0,130.0 768.0,134.8 768.0,125.2" fill="#475569"/>
<line x1="678" y1="168" x2="678" y2="246" stroke="#dc2626" stroke-width="2.2" stroke-linecap="round"/>
<line x1="678" y1="246" x2="302" y2="246" stroke="#dc2626" stroke-width="2.2" stroke-linecap="round"/>
<line x1="302" y1="246" x2="302.0" y2="181.0" stroke="#dc2626" stroke-width="2.2" stroke-linecap="round"/>
<polygon points="302.0,170.0 306.4,181.0 297.6,181.0" fill="#dc2626"/>
<text x="490" y="236" font-family="Inter, ui-sans-serif, Segoe UI, Roboto, DejaVu Sans, Helvetica, Arial, sans-serif" font-size="11.5" fill="#b91c1c" text-anchor="middle" font-weight="bold" dominant-baseline="middle" xml:space="preserve">on error → resend the database's error message so it fixes the query (self-correct)</text>
<text x="490" y="300" font-family="Inter, ui-sans-serif, Segoe UI, Roboto, DejaVu Sans, Helvetica, Arial, sans-serif" font-size="12" fill="#64748b" text-anchor="middle" font-weight="bold" dominant-baseline="middle" xml:space="preserve">The model writes SQL from your schema; a safe read-only run returns rows; errors loop back for a fix.</text>
</svg>
