<svg xmlns="http://www.w3.org/2000/svg" viewBox="0 0 980 250" width="980" height="250" font-family="Inter, ui-sans-serif, Segoe UI, Roboto, DejaVu Sans, Helvetica, Arial, sans-serif">
<defs>
<linearGradient id="g_concept" x1="0" y1="0" x2="0" y2="1"><stop offset="0" stop-color="#eff5ff"/><stop offset="1" stop-color="#dde9ff"/></linearGradient>
<linearGradient id="g_example" x1="0" y1="0" x2="0" y2="1"><stop offset="0" stop-color="#eefaf0"/><stop offset="1" stop-color="#d7f1de"/></linearGradient>
<linearGradient id="g_key" x1="0" y1="0" x2="0" y2="1"><stop offset="0" stop-color="#fff6ea"/><stop offset="1" stop-color="#ffecca"/></linearGradient>
<linearGradient id="g_practice" x1="0" y1="0" x2="0" y2="1"><stop offset="0" stop-color="#f4f0ff"/><stop offset="1" stop-color="#e7defb"/></linearGradient>
<linearGradient id="g_deep" x1="0" y1="0" x2="0" y2="1"><stop offset="0" stop-color="#eafaf6"/><stop offset="1" stop-color="#d3f1ea"/></linearGradient>
<linearGradient id="g_note" x1="0" y1="0" x2="0" y2="1"><stop offset="0" stop-color="#f1f5f9"/><stop offset="1" stop-color="#e5edf6"/></linearGradient>
<linearGradient id="g_warn" x1="0" y1="0" x2="0" y2="1"><stop offset="0" stop-color="#fef1ef"/><stop offset="1" stop-color="#fde2dd"/></linearGradient>
<linearGradient id="g_ink" x1="0" y1="0" x2="0" y2="1"><stop offset="0" stop-color="#eef2f7"/><stop offset="1" stop-color="#dfe6f0"/></linearGradient>
<linearGradient id="g_plain" x1="0" y1="0" x2="0" y2="1"><stop offset="0" stop-color="#ffffff"/><stop offset="1" stop-color="#f3f7fc"/></linearGradient>
<linearGradient id="g_accent" x1="0" y1="0" x2="0" y2="1"><stop offset="0" stop-color="#eef0fe"/><stop offset="1" stop-color="#dfe2fd"/></linearGradient>
</defs>
<rect x="0" y="0" width="980" height="250" fill="#ffffff"/>
<text x="490" y="30" font-family="Inter, ui-sans-serif, Segoe UI, Roboto, DejaVu Sans, Helvetica, Arial, sans-serif" font-size="16" fill="#0f172a" text-anchor="middle" font-weight="bold" dominant-baseline="middle" xml:space="preserve">CI with an eval gate: quality can't regress silently</text>
<rect x="24" y="98.5" width="190" height="64" rx="13" ry="13" fill="#0f172a" opacity="0.055"/>
<rect x="24" y="101" width="190" height="64" rx="13" ry="13" fill="#1e293b" opacity="0.035"/>
<rect x="24" y="96" width="190" height="64" rx="13" ry="13" fill="url(#g_concept)" stroke="#2563eb" stroke-width="1.8"/>
<text x="119.0" y="120.25" font-family="Inter, ui-sans-serif, Segoe UI, Roboto, DejaVu Sans, Helvetica, Arial, sans-serif" font-size="13.5" fill="#1e3a8a" text-anchor="middle" font-weight="bold" dominant-baseline="middle" xml:space="preserve">Change</text>
<text x="119.0" y="133.0" font-family="Inter, ui-sans-serif, Segoe UI, Roboto, DejaVu Sans, Helvetica, Arial, sans-serif" font-size="10.5" fill="#5b6675" text-anchor="middle" font-weight="normal" dominant-baseline="middle" xml:space="preserve">prompt / model / code</text>
<rect x="238" y="98.5" width="190" height="64" rx="13" ry="13" fill="#0f172a" opacity="0.055"/>
<rect x="238" y="101" width="190" height="64" rx="13" ry="13" fill="#1e293b" opacity="0.035"/>
<rect x="238" y="96" width="190" height="64" rx="13" ry="13" fill="url(#g_accent)" stroke="#4f46e5" stroke-width="1.8"/>
<text x="333.0" y="120.25" font-family="Inter, ui-sans-serif, Segoe UI, Roboto, DejaVu Sans, Helvetica, Arial, sans-serif" font-size="13.5" fill="#312e81" text-anchor="middle" font-weight="bold" dominant-baseline="middle" xml:space="preserve">Run in CI</text>
<text x="333.0" y="133.0" font-family="Inter, ui-sans-serif, Segoe UI, Roboto, DejaVu Sans, Helvetica, Arial, sans-serif" font-size="10.5" fill="#5b6675" text-anchor="middle" font-weight="normal" dominant-baseline="middle" xml:space="preserve">tests + golden-set eval</text>
<rect x="452" y="98.5" width="190" height="64" rx="13" ry="13" fill="#0f172a" opacity="0.055"/>
<rect x="452" y="101" width="190" height="64" rx="13" ry="13" fill="#1e293b" opacity="0.035"/>
<rect x="452" y="96" width="190" height="64" rx="13" ry="13" fill="url(#g_key)" stroke="#d97706" stroke-width="1.8"/>
<text x="547.0" y="120.25" font-family="Inter, ui-sans-serif, Segoe UI, Roboto, DejaVu Sans, Helvetica, Arial, sans-serif" font-size="13.5" fill="#7c2d12" text-anchor="middle" font-weight="bold" dominant-baseline="middle" xml:space="preserve">Eval gate</text>
<text x="547.0" y="133.0" font-family="Inter, ui-sans-serif, Segoe UI, Roboto, DejaVu Sans, Helvetica, Arial, sans-serif" font-size="10.5" fill="#5b6675" text-anchor="middle" font-weight="normal" dominant-baseline="middle" xml:space="preserve">score &gt;= threshold?</text>
<rect x="706" y="58.5" width="150" height="52" rx="13" ry="13" fill="#0f172a" opacity="0.055"/>
<rect x="706" y="61" width="150" height="52" rx="13" ry="13" fill="#1e293b" opacity="0.035"/>
<rect x="706" y="56" width="150" height="52" rx="13" ry="13" fill="url(#g_example)" stroke="#16a34a" stroke-width="1.8"/>
<text x="781.0" y="74.25" font-family="Inter, ui-sans-serif, Segoe UI, Roboto, DejaVu Sans, Helvetica, Arial, sans-serif" font-size="13" fill="#14532d" text-anchor="middle" font-weight="bold" dominant-baseline="middle" xml:space="preserve">Deploy</text>
<text x="781.0" y="86.75" font-family="Inter, ui-sans-serif, Segoe UI, Roboto, DejaVu Sans, Helvetica, Arial, sans-serif" font-size="10.5" fill="#5b6675" text-anchor="middle" font-weight="normal" dominant-baseline="middle" xml:space="preserve">ship it</text>
<rect x="706" y="152.5" width="150" height="52" rx="13" ry="13" fill="#0f172a" opacity="0.055"/>
<rect x="706" y="155" width="150" height="52" rx="13" ry="13" fill="#1e293b" opacity="0.035"/>
<rect x="706" y="150" width="150" height="52" rx="13" ry="13" fill="url(#g_warn)" stroke="#dc2626" stroke-width="1.8"/>
<text x="781.0" y="168.25" font-family="Inter, ui-sans-serif, Segoe UI, Roboto, DejaVu Sans, Helvetica, Arial, sans-serif" font-size="13" fill="#7f1d1d" text-anchor="middle" font-weight="bold" dominant-baseline="middle" xml:space="preserve">Block</text>
<text x="781.0" y="180.75" font-family="Inter, ui-sans-serif, Segoe UI, Roboto, DejaVu Sans, Helvetica, Arial, sans-serif" font-size="10.5" fill="#5b6675" text-anchor="middle" font-weight="normal" dominant-baseline="middle" xml:space="preserve">fail + report</text>
<line x1="214" y1="128" x2="224.0" y2="128.0" stroke="#475569" stroke-width="2.2" stroke-linecap="round"/>
<polygon points="236.0,128.0 224.0,132.8 224.0,123.2" fill="#475569"/>
<line x1="428" y1="128" x2="438.0" y2="128.0" stroke="#475569" stroke-width="2.2" stroke-linecap="round"/>
<polygon points="450.0,128.0 438.0,132.8 438.0,123.2" fill="#475569"/>
<line x1="642" y1="118" x2="693.1980889830138" y2="93.22673113725136" stroke="#16a34a" stroke-width="2.2" stroke-linecap="round"/>
<polygon points="704.0,88.0 695.3,97.5 691.1,88.9" fill="#16a34a"/>
<line x1="642" y1="138" x2="693.4782510959442" y2="166.23000866551777" stroke="#dc2626" stroke-width="2.2" stroke-linecap="round"/>
<polygon points="704.0,172.0 691.2,170.4 695.8,162.0" fill="#dc2626"/>
<text x="676" y="92" font-family="Inter, ui-sans-serif, Segoe UI, Roboto, DejaVu Sans, Helvetica, Arial, sans-serif" font-size="11" fill="#15803d" text-anchor="start" font-weight="bold" dominant-baseline="middle" xml:space="preserve">pass</text>
<text x="676" y="176" font-family="Inter, ui-sans-serif, Segoe UI, Roboto, DejaVu Sans, Helvetica, Arial, sans-serif" font-size="11" fill="#b91c1c" text-anchor="start" font-weight="bold" dominant-baseline="middle" xml:space="preserve">fail</text>
<text x="490" y="232" font-family="Inter, ui-sans-serif, Segoe UI, Roboto, DejaVu Sans, Helvetica, Arial, sans-serif" font-size="12" fill="#64748b" text-anchor="middle" font-weight="bold" dominant-baseline="middle" xml:space="preserve">No prompt or model change ships unless it passes your evals — regressions get blocked, not shipped to users.</text>
</svg>
