<svg xmlns="http://www.w3.org/2000/svg" viewBox="0 0 940 208" width="940" height="208" font-family="Inter, ui-sans-serif, Segoe UI, Roboto, DejaVu Sans, Helvetica, Arial, sans-serif">
<defs>
<linearGradient id="g_concept" x1="0" y1="0" x2="0" y2="1"><stop offset="0" stop-color="#eff5ff"/><stop offset="1" stop-color="#dde9ff"/></linearGradient>
<linearGradient id="g_example" x1="0" y1="0" x2="0" y2="1"><stop offset="0" stop-color="#eefaf0"/><stop offset="1" stop-color="#d7f1de"/></linearGradient>
<linearGradient id="g_key" x1="0" y1="0" x2="0" y2="1"><stop offset="0" stop-color="#fff6ea"/><stop offset="1" stop-color="#ffecca"/></linearGradient>
<linearGradient id="g_practice" x1="0" y1="0" x2="0" y2="1"><stop offset="0" stop-color="#f4f0ff"/><stop offset="1" stop-color="#e7defb"/></linearGradient>
<linearGradient id="g_deep" x1="0" y1="0" x2="0" y2="1"><stop offset="0" stop-color="#eafaf6"/><stop offset="1" stop-color="#d3f1ea"/></linearGradient>
<linearGradient id="g_note" x1="0" y1="0" x2="0" y2="1"><stop offset="0" stop-color="#f1f5f9"/><stop offset="1" stop-color="#e5edf6"/></linearGradient>
<linearGradient id="g_warn" x1="0" y1="0" x2="0" y2="1"><stop offset="0" stop-color="#fef1ef"/><stop offset="1" stop-color="#fde2dd"/></linearGradient>
<linearGradient id="g_ink" x1="0" y1="0" x2="0" y2="1"><stop offset="0" stop-color="#eef2f7"/><stop offset="1" stop-color="#dfe6f0"/></linearGradient>
<linearGradient id="g_plain" x1="0" y1="0" x2="0" y2="1"><stop offset="0" stop-color="#ffffff"/><stop offset="1" stop-color="#f3f7fc"/></linearGradient>
<linearGradient id="g_accent" x1="0" y1="0" x2="0" y2="1"><stop offset="0" stop-color="#eef0fe"/><stop offset="1" stop-color="#dfe2fd"/></linearGradient>
</defs>
<rect x="0" y="0" width="940" height="208" fill="#ffffff"/>
<text x="470" y="30" font-family="Inter, ui-sans-serif, Segoe UI, Roboto, DejaVu Sans, Helvetica, Arial, sans-serif" font-size="16" fill="#0f172a" text-anchor="middle" font-weight="bold" dominant-baseline="middle" xml:space="preserve">From notebook to a service anyone can call</text>
<rect x="54" y="74.5" width="190" height="72" rx="13" ry="13" fill="#0f172a" opacity="0.055"/>
<rect x="54" y="77" width="190" height="72" rx="13" ry="13" fill="#1e293b" opacity="0.035"/>
<rect x="54" y="72" width="190" height="72" rx="13" ry="13" fill="url(#g_concept)" stroke="#2563eb" stroke-width="1.8"/>
<text x="149.0" y="100.0" font-family="Inter, ui-sans-serif, Segoe UI, Roboto, DejaVu Sans, Helvetica, Arial, sans-serif" font-size="13.5" fill="#1e3a8a" text-anchor="middle" font-weight="bold" dominant-baseline="middle" xml:space="preserve">Notebook / script</text>
<text x="149.0" y="112.75" font-family="Inter, ui-sans-serif, Segoe UI, Roboto, DejaVu Sans, Helvetica, Arial, sans-serif" font-size="11" fill="#5b6675" text-anchor="middle" font-weight="normal" dominant-baseline="middle" xml:space="preserve">your working code</text>
<rect x="268" y="74.5" width="190" height="72" rx="13" ry="13" fill="#0f172a" opacity="0.055"/>
<rect x="268" y="77" width="190" height="72" rx="13" ry="13" fill="#1e293b" opacity="0.035"/>
<rect x="268" y="72" width="190" height="72" rx="13" ry="13" fill="url(#g_accent)" stroke="#4f46e5" stroke-width="1.8"/>
<text x="363.0" y="100.0" font-family="Inter, ui-sans-serif, Segoe UI, Roboto, DejaVu Sans, Helvetica, Arial, sans-serif" font-size="13.5" fill="#312e81" text-anchor="middle" font-weight="bold" dominant-baseline="middle" xml:space="preserve">FastAPI service</text>
<text x="363.0" y="112.75" font-family="Inter, ui-sans-serif, Segoe UI, Roboto, DejaVu Sans, Helvetica, Arial, sans-serif" font-size="11" fill="#5b6675" text-anchor="middle" font-weight="normal" dominant-baseline="middle" xml:space="preserve">POST /ask</text>
<line x1="244" y1="108" x2="252.0" y2="108.0" stroke="#475569" stroke-width="2.2" stroke-linecap="round"/>
<polygon points="264.0,108.0 252.0,112.8 252.0,103.2" fill="#475569"/>
<rect x="482" y="74.5" width="190" height="72" rx="13" ry="13" fill="#0f172a" opacity="0.055"/>
<rect x="482" y="77" width="190" height="72" rx="13" ry="13" fill="#1e293b" opacity="0.035"/>
<rect x="482" y="72" width="190" height="72" rx="13" ry="13" fill="url(#g_key)" stroke="#d97706" stroke-width="1.8"/>
<text x="577.0" y="100.0" font-family="Inter, ui-sans-serif, Segoe UI, Roboto, DejaVu Sans, Helvetica, Arial, sans-serif" font-size="13.5" fill="#7c2d12" text-anchor="middle" font-weight="bold" dominant-baseline="middle" xml:space="preserve">Docker image</text>
<text x="577.0" y="112.75" font-family="Inter, ui-sans-serif, Segoe UI, Roboto, DejaVu Sans, Helvetica, Arial, sans-serif" font-size="11" fill="#5b6675" text-anchor="middle" font-weight="normal" dominant-baseline="middle" xml:space="preserve">runs anywhere</text>
<line x1="458" y1="108" x2="466.0" y2="108.0" stroke="#475569" stroke-width="2.2" stroke-linecap="round"/>
<polygon points="478.0,108.0 466.0,112.8 466.0,103.2" fill="#475569"/>
<rect x="696" y="74.5" width="190" height="72" rx="13" ry="13" fill="#0f172a" opacity="0.055"/>
<rect x="696" y="77" width="190" height="72" rx="13" ry="13" fill="#1e293b" opacity="0.035"/>
<rect x="696" y="72" width="190" height="72" rx="13" ry="13" fill="url(#g_example)" stroke="#16a34a" stroke-width="1.8"/>
<text x="791.0" y="100.0" font-family="Inter, ui-sans-serif, Segoe UI, Roboto, DejaVu Sans, Helvetica, Arial, sans-serif" font-size="13.5" fill="#14532d" text-anchor="middle" font-weight="bold" dominant-baseline="middle" xml:space="preserve">Deployed</text>
<text x="791.0" y="112.75" font-family="Inter, ui-sans-serif, Segoe UI, Roboto, DejaVu Sans, Helvetica, Arial, sans-serif" font-size="11" fill="#5b6675" text-anchor="middle" font-weight="normal" dominant-baseline="middle" xml:space="preserve">public URL, scalable</text>
<line x1="672" y1="108" x2="680.0" y2="108.0" stroke="#475569" stroke-width="2.2" stroke-linecap="round"/>
<polygon points="692.0,108.0 680.0,112.8 680.0,103.2" fill="#475569"/>
<text x="470" y="182" font-family="Inter, ui-sans-serif, Segoe UI, Roboto, DejaVu Sans, Helvetica, Arial, sans-serif" font-size="12" fill="#64748b" text-anchor="middle" font-weight="bold" dominant-baseline="middle" xml:space="preserve">Same logic — wrapped in an API, boxed in a container, run on a server the world can reach.</text>
</svg>
