<svg xmlns="http://www.w3.org/2000/svg" viewBox="0 0 920 336" width="920" height="336" font-family="Inter, ui-sans-serif, Segoe UI, Roboto, DejaVu Sans, Helvetica, Arial, sans-serif">
<defs>
<linearGradient id="g_concept" x1="0" y1="0" x2="0" y2="1"><stop offset="0" stop-color="#eff5ff"/><stop offset="1" stop-color="#dde9ff"/></linearGradient>
<linearGradient id="g_example" x1="0" y1="0" x2="0" y2="1"><stop offset="0" stop-color="#eefaf0"/><stop offset="1" stop-color="#d7f1de"/></linearGradient>
<linearGradient id="g_key" x1="0" y1="0" x2="0" y2="1"><stop offset="0" stop-color="#fff6ea"/><stop offset="1" stop-color="#ffecca"/></linearGradient>
<linearGradient id="g_practice" x1="0" y1="0" x2="0" y2="1"><stop offset="0" stop-color="#f4f0ff"/><stop offset="1" stop-color="#e7defb"/></linearGradient>
<linearGradient id="g_deep" x1="0" y1="0" x2="0" y2="1"><stop offset="0" stop-color="#eafaf6"/><stop offset="1" stop-color="#d3f1ea"/></linearGradient>
<linearGradient id="g_note" x1="0" y1="0" x2="0" y2="1"><stop offset="0" stop-color="#f1f5f9"/><stop offset="1" stop-color="#e5edf6"/></linearGradient>
<linearGradient id="g_warn" x1="0" y1="0" x2="0" y2="1"><stop offset="0" stop-color="#fef1ef"/><stop offset="1" stop-color="#fde2dd"/></linearGradient>
<linearGradient id="g_ink" x1="0" y1="0" x2="0" y2="1"><stop offset="0" stop-color="#eef2f7"/><stop offset="1" stop-color="#dfe6f0"/></linearGradient>
<linearGradient id="g_plain" x1="0" y1="0" x2="0" y2="1"><stop offset="0" stop-color="#ffffff"/><stop offset="1" stop-color="#f3f7fc"/></linearGradient>
<linearGradient id="g_accent" x1="0" y1="0" x2="0" y2="1"><stop offset="0" stop-color="#eef0fe"/><stop offset="1" stop-color="#dfe2fd"/></linearGradient>
</defs>
<rect x="0" y="0" width="920" height="336" fill="#ffffff"/>
<text x="460" y="30" font-family="Inter, ui-sans-serif, Segoe UI, Roboto, DejaVu Sans, Helvetica, Arial, sans-serif" font-size="16" fill="#0f172a" text-anchor="middle" font-weight="bold" dominant-baseline="middle" xml:space="preserve">What to watch in production (and why)</text>
<text x="210" y="66" font-family="Inter, ui-sans-serif, Segoe UI, Roboto, DejaVu Sans, Helvetica, Arial, sans-serif" font-size="13" fill="#475569" text-anchor="middle" font-weight="bold" dominant-baseline="middle" xml:space="preserve">Watch</text>
<text x="650" y="66" font-family="Inter, ui-sans-serif, Segoe UI, Roboto, DejaVu Sans, Helvetica, Arial, sans-serif" font-size="13" fill="#475569" text-anchor="middle" font-weight="bold" dominant-baseline="middle" xml:space="preserve">So you can</text>
<rect x="30" y="90.5" width="360" height="48" rx="9" ry="9" fill="#0f172a" opacity="0.055"/>
<rect x="30" y="93" width="360" height="48" rx="9" ry="9" fill="#1e293b" opacity="0.035"/>
<rect x="30" y="88" width="360" height="48" rx="9" ry="9" fill="url(#g_accent)" stroke="#4f46e5" stroke-width="1.8"/>
<text x="46" y="112.0" font-family="Inter, ui-sans-serif, Segoe UI, Roboto, DejaVu Sans, Helvetica, Arial, sans-serif" font-size="12" fill="#312e81" text-anchor="start" font-weight="bold" dominant-baseline="middle" xml:space="preserve">Traces of every request</text>
<line x1="396" y1="112.0" x2="423.0" y2="112.0" stroke="#16a34a" stroke-width="2" stroke-linecap="round"/>
<polygon points="432.0,112.0 423.0,115.6 423.0,108.4" fill="#16a34a"/>
<rect x="438" y="90.5" width="452" height="48" rx="9" ry="9" fill="#0f172a" opacity="0.055"/>
<rect x="438" y="93" width="452" height="48" rx="9" ry="9" fill="#1e293b" opacity="0.035"/>
<rect x="438" y="88" width="452" height="48" rx="9" ry="9" fill="url(#g_deep)" stroke="#0d9488" stroke-width="1.8"/>
<text x="454" y="112.0" font-family="Inter, ui-sans-serif, Segoe UI, Roboto, DejaVu Sans, Helvetica, Arial, sans-serif" font-size="12" fill="#134e4a" text-anchor="start" font-weight="bold" dominant-baseline="middle" xml:space="preserve">see exactly what happened when it breaks</text>
<rect x="30" y="146.5" width="360" height="48" rx="9" ry="9" fill="#0f172a" opacity="0.055"/>
<rect x="30" y="149" width="360" height="48" rx="9" ry="9" fill="#1e293b" opacity="0.035"/>
<rect x="30" y="144" width="360" height="48" rx="9" ry="9" fill="url(#g_accent)" stroke="#4f46e5" stroke-width="1.8"/>
<text x="46" y="168.0" font-family="Inter, ui-sans-serif, Segoe UI, Roboto, DejaVu Sans, Helvetica, Arial, sans-serif" font-size="12" fill="#312e81" text-anchor="start" font-weight="bold" dominant-baseline="middle" xml:space="preserve">Cost &amp; latency per call</text>
<line x1="396" y1="168.0" x2="423.0" y2="168.0" stroke="#16a34a" stroke-width="2" stroke-linecap="round"/>
<polygon points="432.0,168.0 423.0,171.6 423.0,164.4" fill="#16a34a"/>
<rect x="438" y="146.5" width="452" height="48" rx="9" ry="9" fill="#0f172a" opacity="0.055"/>
<rect x="438" y="149" width="452" height="48" rx="9" ry="9" fill="#1e293b" opacity="0.035"/>
<rect x="438" y="144" width="452" height="48" rx="9" ry="9" fill="url(#g_deep)" stroke="#0d9488" stroke-width="1.8"/>
<text x="454" y="168.0" font-family="Inter, ui-sans-serif, Segoe UI, Roboto, DejaVu Sans, Helvetica, Arial, sans-serif" font-size="12" fill="#134e4a" text-anchor="start" font-weight="bold" dominant-baseline="middle" xml:space="preserve">catch runaway bills and slowdowns early</text>
<rect x="30" y="202.5" width="360" height="48" rx="9" ry="9" fill="#0f172a" opacity="0.055"/>
<rect x="30" y="205" width="360" height="48" rx="9" ry="9" fill="#1e293b" opacity="0.035"/>
<rect x="30" y="200" width="360" height="48" rx="9" ry="9" fill="url(#g_accent)" stroke="#4f46e5" stroke-width="1.8"/>
<text x="46" y="224.0" font-family="Inter, ui-sans-serif, Segoe UI, Roboto, DejaVu Sans, Helvetica, Arial, sans-serif" font-size="12" fill="#312e81" text-anchor="start" font-weight="bold" dominant-baseline="middle" xml:space="preserve">Quality signals + feedback</text>
<line x1="396" y1="224.0" x2="423.0" y2="224.0" stroke="#16a34a" stroke-width="2" stroke-linecap="round"/>
<polygon points="432.0,224.0 423.0,227.6 423.0,220.4" fill="#16a34a"/>
<rect x="438" y="202.5" width="452" height="48" rx="9" ry="9" fill="#0f172a" opacity="0.055"/>
<rect x="438" y="205" width="452" height="48" rx="9" ry="9" fill="#1e293b" opacity="0.035"/>
<rect x="438" y="200" width="452" height="48" rx="9" ry="9" fill="url(#g_deep)" stroke="#0d9488" stroke-width="1.8"/>
<text x="454" y="224.0" font-family="Inter, ui-sans-serif, Segoe UI, Roboto, DejaVu Sans, Helvetica, Arial, sans-serif" font-size="12" fill="#134e4a" text-anchor="start" font-weight="bold" dominant-baseline="middle" xml:space="preserve">know if answers are getting worse</text>
<rect x="30" y="258.5" width="360" height="48" rx="9" ry="9" fill="#0f172a" opacity="0.055"/>
<rect x="30" y="261" width="360" height="48" rx="9" ry="9" fill="#1e293b" opacity="0.035"/>
<rect x="30" y="256" width="360" height="48" rx="9" ry="9" fill="url(#g_accent)" stroke="#4f46e5" stroke-width="1.8"/>
<text x="46" y="280.0" font-family="Inter, ui-sans-serif, Segoe UI, Roboto, DejaVu Sans, Helvetica, Arial, sans-serif" font-size="12" fill="#312e81" text-anchor="start" font-weight="bold" dominant-baseline="middle" xml:space="preserve">Errors, retries, refusals</text>
<line x1="396" y1="280.0" x2="423.0" y2="280.0" stroke="#16a34a" stroke-width="2" stroke-linecap="round"/>
<polygon points="432.0,280.0 423.0,283.6 423.0,276.4" fill="#16a34a"/>
<rect x="438" y="258.5" width="452" height="48" rx="9" ry="9" fill="#0f172a" opacity="0.055"/>
<rect x="438" y="261" width="452" height="48" rx="9" ry="9" fill="#1e293b" opacity="0.035"/>
<rect x="438" y="256" width="452" height="48" rx="9" ry="9" fill="url(#g_deep)" stroke="#0d9488" stroke-width="1.8"/>
<text x="454" y="280.0" font-family="Inter, ui-sans-serif, Segoe UI, Roboto, DejaVu Sans, Helvetica, Arial, sans-serif" font-size="12" fill="#134e4a" text-anchor="start" font-weight="bold" dominant-baseline="middle" xml:space="preserve">find problems before users report them</text>
<text x="460" y="320" font-family="Inter, ui-sans-serif, Segoe UI, Roboto, DejaVu Sans, Helvetica, Arial, sans-serif" font-size="12" fill="#64748b" text-anchor="middle" font-weight="bold" dominant-baseline="middle" xml:space="preserve">Production is where you learn the truth. Feed every real failure back into your golden set (Track 6).</text>
</svg>
