<svg xmlns="http://www.w3.org/2000/svg" viewBox="0 0 960 218" width="960" height="218" font-family="Inter, ui-sans-serif, Segoe UI, Roboto, DejaVu Sans, Helvetica, Arial, sans-serif">
<defs>
<linearGradient id="g_concept" x1="0" y1="0" x2="0" y2="1"><stop offset="0" stop-color="#eff5ff"/><stop offset="1" stop-color="#dde9ff"/></linearGradient>
<linearGradient id="g_example" x1="0" y1="0" x2="0" y2="1"><stop offset="0" stop-color="#eefaf0"/><stop offset="1" stop-color="#d7f1de"/></linearGradient>
<linearGradient id="g_key" x1="0" y1="0" x2="0" y2="1"><stop offset="0" stop-color="#fff6ea"/><stop offset="1" stop-color="#ffecca"/></linearGradient>
<linearGradient id="g_practice" x1="0" y1="0" x2="0" y2="1"><stop offset="0" stop-color="#f4f0ff"/><stop offset="1" stop-color="#e7defb"/></linearGradient>
<linearGradient id="g_deep" x1="0" y1="0" x2="0" y2="1"><stop offset="0" stop-color="#eafaf6"/><stop offset="1" stop-color="#d3f1ea"/></linearGradient>
<linearGradient id="g_note" x1="0" y1="0" x2="0" y2="1"><stop offset="0" stop-color="#f1f5f9"/><stop offset="1" stop-color="#e5edf6"/></linearGradient>
<linearGradient id="g_warn" x1="0" y1="0" x2="0" y2="1"><stop offset="0" stop-color="#fef1ef"/><stop offset="1" stop-color="#fde2dd"/></linearGradient>
<linearGradient id="g_ink" x1="0" y1="0" x2="0" y2="1"><stop offset="0" stop-color="#eef2f7"/><stop offset="1" stop-color="#dfe6f0"/></linearGradient>
<linearGradient id="g_plain" x1="0" y1="0" x2="0" y2="1"><stop offset="0" stop-color="#ffffff"/><stop offset="1" stop-color="#f3f7fc"/></linearGradient>
<linearGradient id="g_accent" x1="0" y1="0" x2="0" y2="1"><stop offset="0" stop-color="#eef0fe"/><stop offset="1" stop-color="#dfe2fd"/></linearGradient>
</defs>
<rect x="0" y="0" width="960" height="218" fill="#ffffff"/>
<text x="480" y="30" font-family="Inter, ui-sans-serif, Segoe UI, Roboto, DejaVu Sans, Helvetica, Arial, sans-serif" font-size="16" fill="#0f172a" text-anchor="middle" font-weight="bold" dominant-baseline="middle" xml:space="preserve">How a model “sees”: images become tokens</text>
<rect x="20" y="76.5" width="168" height="72" rx="13" ry="13" fill="#0f172a" opacity="0.055"/>
<rect x="20" y="79" width="168" height="72" rx="13" ry="13" fill="#1e293b" opacity="0.035"/>
<rect x="20" y="74" width="168" height="72" rx="13" ry="13" fill="url(#g_concept)" stroke="#2563eb" stroke-width="1.8"/>
<text x="104.0" y="102.25" font-family="Inter, ui-sans-serif, Segoe UI, Roboto, DejaVu Sans, Helvetica, Arial, sans-serif" font-size="13" fill="#1e3a8a" text-anchor="middle" font-weight="bold" dominant-baseline="middle" xml:space="preserve">Image</text>
<text x="104.0" y="114.75" font-family="Inter, ui-sans-serif, Segoe UI, Roboto, DejaVu Sans, Helvetica, Arial, sans-serif" font-size="10.5" fill="#5b6675" text-anchor="middle" font-weight="normal" dominant-baseline="middle" xml:space="preserve">a photo / scan</text>
<rect x="208" y="76.5" width="168" height="72" rx="13" ry="13" fill="#0f172a" opacity="0.055"/>
<rect x="208" y="79" width="168" height="72" rx="13" ry="13" fill="#1e293b" opacity="0.035"/>
<rect x="208" y="74" width="168" height="72" rx="13" ry="13" fill="url(#g_note)" stroke="#64748b" stroke-width="1.8"/>
<text x="292.0" y="102.25" font-family="Inter, ui-sans-serif, Segoe UI, Roboto, DejaVu Sans, Helvetica, Arial, sans-serif" font-size="13" fill="#1e293b" text-anchor="middle" font-weight="bold" dominant-baseline="middle" xml:space="preserve">Split to patches</text>
<text x="292.0" y="114.75" font-family="Inter, ui-sans-serif, Segoe UI, Roboto, DejaVu Sans, Helvetica, Arial, sans-serif" font-size="10.5" fill="#5b6675" text-anchor="middle" font-weight="normal" dominant-baseline="middle" xml:space="preserve">a grid of tiles</text>
<line x1="188" y1="110" x2="194.0" y2="110.0" stroke="#475569" stroke-width="2.2" stroke-linecap="round"/>
<polygon points="206.0,110.0 194.0,114.8 194.0,105.2" fill="#475569"/>
<rect x="396" y="76.5" width="168" height="72" rx="13" ry="13" fill="#0f172a" opacity="0.055"/>
<rect x="396" y="79" width="168" height="72" rx="13" ry="13" fill="#1e293b" opacity="0.035"/>
<rect x="396" y="74" width="168" height="72" rx="13" ry="13" fill="url(#g_accent)" stroke="#4f46e5" stroke-width="1.8"/>
<text x="480.0" y="102.25" font-family="Inter, ui-sans-serif, Segoe UI, Roboto, DejaVu Sans, Helvetica, Arial, sans-serif" font-size="13" fill="#312e81" text-anchor="middle" font-weight="bold" dominant-baseline="middle" xml:space="preserve">Vision encoder</text>
<text x="480.0" y="114.75" font-family="Inter, ui-sans-serif, Segoe UI, Roboto, DejaVu Sans, Helvetica, Arial, sans-serif" font-size="10.5" fill="#5b6675" text-anchor="middle" font-weight="normal" dominant-baseline="middle" xml:space="preserve">patches -&gt; vectors</text>
<line x1="376" y1="110" x2="382.0" y2="110.0" stroke="#475569" stroke-width="2.2" stroke-linecap="round"/>
<polygon points="394.0,110.0 382.0,114.8 382.0,105.2" fill="#475569"/>
<rect x="584" y="76.5" width="168" height="72" rx="13" ry="13" fill="#0f172a" opacity="0.055"/>
<rect x="584" y="79" width="168" height="72" rx="13" ry="13" fill="#1e293b" opacity="0.035"/>
<rect x="584" y="74" width="168" height="72" rx="13" ry="13" fill="url(#g_key)" stroke="#d97706" stroke-width="1.8"/>
<text x="668.0" y="102.25" font-family="Inter, ui-sans-serif, Segoe UI, Roboto, DejaVu Sans, Helvetica, Arial, sans-serif" font-size="13" fill="#7c2d12" text-anchor="middle" font-weight="bold" dominant-baseline="middle" xml:space="preserve">Image tokens</text>
<text x="668.0" y="114.75" font-family="Inter, ui-sans-serif, Segoe UI, Roboto, DejaVu Sans, Helvetica, Arial, sans-serif" font-size="10.5" fill="#5b6675" text-anchor="middle" font-weight="normal" dominant-baseline="middle" xml:space="preserve">+ your text prompt</text>
<line x1="564" y1="110" x2="570.0" y2="110.0" stroke="#475569" stroke-width="2.2" stroke-linecap="round"/>
<polygon points="582.0,110.0 570.0,114.8 570.0,105.2" fill="#475569"/>
<rect x="772" y="76.5" width="168" height="72" rx="13" ry="13" fill="#0f172a" opacity="0.055"/>
<rect x="772" y="79" width="168" height="72" rx="13" ry="13" fill="#1e293b" opacity="0.035"/>
<rect x="772" y="74" width="168" height="72" rx="13" ry="13" fill="url(#g_deep)" stroke="#0d9488" stroke-width="1.8"/>
<text x="856.0" y="102.25" font-family="Inter, ui-sans-serif, Segoe UI, Roboto, DejaVu Sans, Helvetica, Arial, sans-serif" font-size="13" fill="#134e4a" text-anchor="middle" font-weight="bold" dominant-baseline="middle" xml:space="preserve">VLM answers</text>
<text x="856.0" y="114.75" font-family="Inter, ui-sans-serif, Segoe UI, Roboto, DejaVu Sans, Helvetica, Arial, sans-serif" font-size="10.5" fill="#5b6675" text-anchor="middle" font-weight="normal" dominant-baseline="middle" xml:space="preserve">reasons over both</text>
<line x1="752" y1="110" x2="758.0" y2="110.0" stroke="#475569" stroke-width="2.2" stroke-linecap="round"/>
<polygon points="770.0,110.0 758.0,114.8 758.0,105.2" fill="#475569"/>
<text x="480" y="192" font-family="Inter, ui-sans-serif, Segoe UI, Roboto, DejaVu Sans, Helvetica, Arial, sans-serif" font-size="12" fill="#64748b" text-anchor="middle" font-weight="bold" dominant-baseline="middle" xml:space="preserve">A vision-language model turns image patches into tokens and reasons over them together with your words.</text>
</svg>
