<svg xmlns="http://www.w3.org/2000/svg" viewBox="0 0 940 226" width="940" height="226" font-family="Inter, ui-sans-serif, Segoe UI, Roboto, DejaVu Sans, Helvetica, Arial, sans-serif">
<defs>
<linearGradient id="g_concept" x1="0" y1="0" x2="0" y2="1"><stop offset="0" stop-color="#eff5ff"/><stop offset="1" stop-color="#dde9ff"/></linearGradient>
<linearGradient id="g_example" x1="0" y1="0" x2="0" y2="1"><stop offset="0" stop-color="#eefaf0"/><stop offset="1" stop-color="#d7f1de"/></linearGradient>
<linearGradient id="g_key" x1="0" y1="0" x2="0" y2="1"><stop offset="0" stop-color="#fff6ea"/><stop offset="1" stop-color="#ffecca"/></linearGradient>
<linearGradient id="g_practice" x1="0" y1="0" x2="0" y2="1"><stop offset="0" stop-color="#f4f0ff"/><stop offset="1" stop-color="#e7defb"/></linearGradient>
<linearGradient id="g_deep" x1="0" y1="0" x2="0" y2="1"><stop offset="0" stop-color="#eafaf6"/><stop offset="1" stop-color="#d3f1ea"/></linearGradient>
<linearGradient id="g_note" x1="0" y1="0" x2="0" y2="1"><stop offset="0" stop-color="#f1f5f9"/><stop offset="1" stop-color="#e5edf6"/></linearGradient>
<linearGradient id="g_warn" x1="0" y1="0" x2="0" y2="1"><stop offset="0" stop-color="#fef1ef"/><stop offset="1" stop-color="#fde2dd"/></linearGradient>
<linearGradient id="g_ink" x1="0" y1="0" x2="0" y2="1"><stop offset="0" stop-color="#eef2f7"/><stop offset="1" stop-color="#dfe6f0"/></linearGradient>
<linearGradient id="g_plain" x1="0" y1="0" x2="0" y2="1"><stop offset="0" stop-color="#ffffff"/><stop offset="1" stop-color="#f3f7fc"/></linearGradient>
<linearGradient id="g_accent" x1="0" y1="0" x2="0" y2="1"><stop offset="0" stop-color="#eef0fe"/><stop offset="1" stop-color="#dfe2fd"/></linearGradient>
</defs>
<rect x="0" y="0" width="940" height="226" fill="#ffffff"/>
<text x="470" y="30" font-family="Inter, ui-sans-serif, Segoe UI, Roboto, DejaVu Sans, Helvetica, Arial, sans-serif" font-size="16" fill="#0f172a" text-anchor="middle" font-weight="bold" dominant-baseline="middle" xml:space="preserve">Multimodal RAG: retrieve images and text, then ground</text>
<rect x="40" y="80.5" width="202" height="74" rx="13" ry="13" fill="#0f172a" opacity="0.055"/>
<rect x="40" y="83" width="202" height="74" rx="13" ry="13" fill="#1e293b" opacity="0.035"/>
<rect x="40" y="78" width="202" height="74" rx="13" ry="13" fill="url(#g_concept)" stroke="#2563eb" stroke-width="1.8"/>
<text x="141.0" y="107.25" font-family="Inter, ui-sans-serif, Segoe UI, Roboto, DejaVu Sans, Helvetica, Arial, sans-serif" font-size="13.5" fill="#1e3a8a" text-anchor="middle" font-weight="bold" dominant-baseline="middle" xml:space="preserve">Question</text>
<text x="141.0" y="120.0" font-family="Inter, ui-sans-serif, Segoe UI, Roboto, DejaVu Sans, Helvetica, Arial, sans-serif" font-size="10.5" fill="#5b6675" text-anchor="middle" font-weight="normal" dominant-baseline="middle" xml:space="preserve">in words</text>
<rect x="258" y="80.5" width="202" height="74" rx="13" ry="13" fill="#0f172a" opacity="0.055"/>
<rect x="258" y="83" width="202" height="74" rx="13" ry="13" fill="#1e293b" opacity="0.035"/>
<rect x="258" y="78" width="202" height="74" rx="13" ry="13" fill="url(#g_accent)" stroke="#4f46e5" stroke-width="1.8"/>
<text x="359.0" y="107.25" font-family="Inter, ui-sans-serif, Segoe UI, Roboto, DejaVu Sans, Helvetica, Arial, sans-serif" font-size="13.5" fill="#312e81" text-anchor="middle" font-weight="bold" dominant-baseline="middle" xml:space="preserve">Search index</text>
<text x="359.0" y="120.0" font-family="Inter, ui-sans-serif, Segoe UI, Roboto, DejaVu Sans, Helvetica, Arial, sans-serif" font-size="10.5" fill="#5b6675" text-anchor="middle" font-weight="normal" dominant-baseline="middle" xml:space="preserve">image + text vectors</text>
<line x1="236" y1="115" x2="242.0" y2="115.0" stroke="#475569" stroke-width="2.2" stroke-linecap="round"/>
<polygon points="254.0,115.0 242.0,119.8 242.0,110.2" fill="#475569"/>
<rect x="476" y="80.5" width="202" height="74" rx="13" ry="13" fill="#0f172a" opacity="0.055"/>
<rect x="476" y="83" width="202" height="74" rx="13" ry="13" fill="#1e293b" opacity="0.035"/>
<rect x="476" y="78" width="202" height="74" rx="13" ry="13" fill="url(#g_key)" stroke="#d97706" stroke-width="1.8"/>
<text x="577.0" y="107.25" font-family="Inter, ui-sans-serif, Segoe UI, Roboto, DejaVu Sans, Helvetica, Arial, sans-serif" font-size="13.5" fill="#7c2d12" text-anchor="middle" font-weight="bold" dominant-baseline="middle" xml:space="preserve">Top matches</text>
<text x="577.0" y="120.0" font-family="Inter, ui-sans-serif, Segoe UI, Roboto, DejaVu Sans, Helvetica, Arial, sans-serif" font-size="10.5" fill="#5b6675" text-anchor="middle" font-weight="normal" dominant-baseline="middle" xml:space="preserve">relevant images/passages</text>
<line x1="454" y1="115" x2="460.0" y2="115.0" stroke="#475569" stroke-width="2.2" stroke-linecap="round"/>
<polygon points="472.0,115.0 460.0,119.8 460.0,110.2" fill="#475569"/>
<rect x="694" y="80.5" width="202" height="74" rx="13" ry="13" fill="#0f172a" opacity="0.055"/>
<rect x="694" y="83" width="202" height="74" rx="13" ry="13" fill="#1e293b" opacity="0.035"/>
<rect x="694" y="78" width="202" height="74" rx="13" ry="13" fill="url(#g_deep)" stroke="#0d9488" stroke-width="1.8"/>
<text x="795.0" y="107.25" font-family="Inter, ui-sans-serif, Segoe UI, Roboto, DejaVu Sans, Helvetica, Arial, sans-serif" font-size="13.5" fill="#134e4a" text-anchor="middle" font-weight="bold" dominant-baseline="middle" xml:space="preserve">VLM grounds</text>
<text x="795.0" y="120.0" font-family="Inter, ui-sans-serif, Segoe UI, Roboto, DejaVu Sans, Helvetica, Arial, sans-serif" font-size="10.5" fill="#5b6675" text-anchor="middle" font-weight="normal" dominant-baseline="middle" xml:space="preserve">answer + cites the image</text>
<line x1="672" y1="115" x2="678.0" y2="115.0" stroke="#475569" stroke-width="2.2" stroke-linecap="round"/>
<polygon points="690.0,115.0 678.0,119.8 678.0,110.2" fill="#475569"/>
<text x="470" y="200" font-family="Inter, ui-sans-serif, Segoe UI, Roboto, DejaVu Sans, Helvetica, Arial, sans-serif" font-size="12" fill="#64748b" text-anchor="middle" font-weight="bold" dominant-baseline="middle" xml:space="preserve">The same RAG shape as Track 3 — but the “documents” can be images, charts, or scanned pages.</text>
</svg>
