<svg xmlns="http://www.w3.org/2000/svg" viewBox="0 0 960 296" width="960" height="296" font-family="Inter, ui-sans-serif, Segoe UI, Roboto, DejaVu Sans, Helvetica, Arial, sans-serif">
<defs>
<linearGradient id="g_concept" x1="0" y1="0" x2="0" y2="1"><stop offset="0" stop-color="#eff5ff"/><stop offset="1" stop-color="#dde9ff"/></linearGradient>
<linearGradient id="g_example" x1="0" y1="0" x2="0" y2="1"><stop offset="0" stop-color="#eefaf0"/><stop offset="1" stop-color="#d7f1de"/></linearGradient>
<linearGradient id="g_key" x1="0" y1="0" x2="0" y2="1"><stop offset="0" stop-color="#fff6ea"/><stop offset="1" stop-color="#ffecca"/></linearGradient>
<linearGradient id="g_practice" x1="0" y1="0" x2="0" y2="1"><stop offset="0" stop-color="#f4f0ff"/><stop offset="1" stop-color="#e7defb"/></linearGradient>
<linearGradient id="g_deep" x1="0" y1="0" x2="0" y2="1"><stop offset="0" stop-color="#eafaf6"/><stop offset="1" stop-color="#d3f1ea"/></linearGradient>
<linearGradient id="g_note" x1="0" y1="0" x2="0" y2="1"><stop offset="0" stop-color="#f1f5f9"/><stop offset="1" stop-color="#e5edf6"/></linearGradient>
<linearGradient id="g_warn" x1="0" y1="0" x2="0" y2="1"><stop offset="0" stop-color="#fef1ef"/><stop offset="1" stop-color="#fde2dd"/></linearGradient>
<linearGradient id="g_ink" x1="0" y1="0" x2="0" y2="1"><stop offset="0" stop-color="#eef2f7"/><stop offset="1" stop-color="#dfe6f0"/></linearGradient>
<linearGradient id="g_plain" x1="0" y1="0" x2="0" y2="1"><stop offset="0" stop-color="#ffffff"/><stop offset="1" stop-color="#f3f7fc"/></linearGradient>
<linearGradient id="g_accent" x1="0" y1="0" x2="0" y2="1"><stop offset="0" stop-color="#eef0fe"/><stop offset="1" stop-color="#dfe2fd"/></linearGradient>
</defs>
<rect x="0" y="0" width="960" height="296" fill="#ffffff"/>
<text x="480" y="30" font-family="Inter, ui-sans-serif, Segoe UI, Roboto, DejaVu Sans, Helvetica, Arial, sans-serif" font-size="16" fill="#0f172a" text-anchor="middle" font-weight="bold" dominant-baseline="middle" xml:space="preserve">Reasoning models: spend more compute at answer time</text>
<text x="28" y="104" font-family="Inter, ui-sans-serif, Segoe UI, Roboto, DejaVu Sans, Helvetica, Arial, sans-serif" font-size="12.5" fill="#475569" text-anchor="start" font-weight="bold" dominant-baseline="middle" xml:space="preserve">Standard</text>
<text x="28" y="206" font-family="Inter, ui-sans-serif, Segoe UI, Roboto, DejaVu Sans, Helvetica, Arial, sans-serif" font-size="12.5" fill="#7c3aed" text-anchor="start" font-weight="bold" dominant-baseline="middle" xml:space="preserve">Reasoning</text>
<rect x="150" y="78.5" width="150" height="58" rx="13" ry="13" fill="#0f172a" opacity="0.055"/>
<rect x="150" y="81" width="150" height="58" rx="13" ry="13" fill="#1e293b" opacity="0.035"/>
<rect x="150" y="76" width="150" height="58" rx="13" ry="13" fill="url(#g_concept)" stroke="#2563eb" stroke-width="1.8"/>
<text x="225.0" y="97.5" font-family="Inter, ui-sans-serif, Segoe UI, Roboto, DejaVu Sans, Helvetica, Arial, sans-serif" font-size="13" fill="#1e3a8a" text-anchor="middle" font-weight="bold" dominant-baseline="middle" xml:space="preserve">Prompt</text>
<text x="225.0" y="110.0" font-family="Inter, ui-sans-serif, Segoe UI, Roboto, DejaVu Sans, Helvetica, Arial, sans-serif" font-size="10" fill="#5b6675" text-anchor="middle" font-weight="normal" dominant-baseline="middle" xml:space="preserve">your question</text>
<rect x="340" y="78.5" width="280" height="58" rx="13" ry="13" fill="#0f172a" opacity="0.055"/>
<rect x="340" y="81" width="280" height="58" rx="13" ry="13" fill="#1e293b" opacity="0.035"/>
<rect x="340" y="76" width="280" height="58" rx="13" ry="13" fill="url(#g_note)" stroke="#64748b" stroke-width="1.8"/>
<text x="480.0" y="97.5" font-family="Inter, ui-sans-serif, Segoe UI, Roboto, DejaVu Sans, Helvetica, Arial, sans-serif" font-size="13" fill="#1e293b" text-anchor="middle" font-weight="bold" dominant-baseline="middle" xml:space="preserve">One quick pass</text>
<text x="480.0" y="110.0" font-family="Inter, ui-sans-serif, Segoe UI, Roboto, DejaVu Sans, Helvetica, Arial, sans-serif" font-size="10" fill="#5b6675" text-anchor="middle" font-weight="normal" dominant-baseline="middle" xml:space="preserve">little compute</text>
<rect x="660" y="78.5" width="150" height="58" rx="13" ry="13" fill="#0f172a" opacity="0.055"/>
<rect x="660" y="81" width="150" height="58" rx="13" ry="13" fill="#1e293b" opacity="0.035"/>
<rect x="660" y="76" width="150" height="58" rx="13" ry="13" fill="url(#g_example)" stroke="#16a34a" stroke-width="1.8"/>
<text x="735.0" y="97.5" font-family="Inter, ui-sans-serif, Segoe UI, Roboto, DejaVu Sans, Helvetica, Arial, sans-serif" font-size="13" fill="#14532d" text-anchor="middle" font-weight="bold" dominant-baseline="middle" xml:space="preserve">Answer</text>
<text x="735.0" y="110.0" font-family="Inter, ui-sans-serif, Segoe UI, Roboto, DejaVu Sans, Helvetica, Arial, sans-serif" font-size="10" fill="#5b6675" text-anchor="middle" font-weight="normal" dominant-baseline="middle" xml:space="preserve">fast, cheap</text>
<line x1="300" y1="105" x2="326.0" y2="105.0" stroke="#475569" stroke-width="2.2" stroke-linecap="round"/>
<polygon points="338.0,105.0 326.0,109.8 326.0,100.2" fill="#475569"/>
<line x1="620" y1="105" x2="646.0" y2="105.0" stroke="#475569" stroke-width="2.2" stroke-linecap="round"/>
<polygon points="658.0,105.0 646.0,109.8 646.0,100.2" fill="#475569"/>
<rect x="150" y="180.5" width="150" height="60" rx="13" ry="13" fill="#0f172a" opacity="0.055"/>
<rect x="150" y="183" width="150" height="60" rx="13" ry="13" fill="#1e293b" opacity="0.035"/>
<rect x="150" y="178" width="150" height="60" rx="13" ry="13" fill="url(#g_concept)" stroke="#2563eb" stroke-width="1.8"/>
<text x="225.0" y="200.5" font-family="Inter, ui-sans-serif, Segoe UI, Roboto, DejaVu Sans, Helvetica, Arial, sans-serif" font-size="13" fill="#1e3a8a" text-anchor="middle" font-weight="bold" dominant-baseline="middle" xml:space="preserve">Prompt</text>
<text x="225.0" y="213.0" font-family="Inter, ui-sans-serif, Segoe UI, Roboto, DejaVu Sans, Helvetica, Arial, sans-serif" font-size="10" fill="#5b6675" text-anchor="middle" font-weight="normal" dominant-baseline="middle" xml:space="preserve">a hard problem</text>
<rect x="340" y="180.5" width="280" height="60" rx="13" ry="13" fill="#0f172a" opacity="0.055"/>
<rect x="340" y="183" width="280" height="60" rx="13" ry="13" fill="#1e293b" opacity="0.035"/>
<rect x="340" y="178" width="280" height="60" rx="13" ry="13" fill="url(#g_accent)" stroke="#4f46e5" stroke-width="1.8"/>
<text x="480.0" y="200.5" font-family="Inter, ui-sans-serif, Segoe UI, Roboto, DejaVu Sans, Helvetica, Arial, sans-serif" font-size="13" fill="#312e81" text-anchor="middle" font-weight="bold" dominant-baseline="middle" xml:space="preserve">Long chain-of-thought</text>
<text x="480.0" y="213.0" font-family="Inter, ui-sans-serif, Segoe UI, Roboto, DejaVu Sans, Helvetica, Arial, sans-serif" font-size="10" fill="#5b6675" text-anchor="middle" font-weight="normal" dominant-baseline="middle" xml:space="preserve">test-time compute</text>
<rect x="660" y="180.5" width="150" height="60" rx="13" ry="13" fill="#0f172a" opacity="0.055"/>
<rect x="660" y="183" width="150" height="60" rx="13" ry="13" fill="#1e293b" opacity="0.035"/>
<rect x="660" y="178" width="150" height="60" rx="13" ry="13" fill="url(#g_key)" stroke="#d97706" stroke-width="1.8"/>
<text x="735.0" y="200.5" font-family="Inter, ui-sans-serif, Segoe UI, Roboto, DejaVu Sans, Helvetica, Arial, sans-serif" font-size="13" fill="#7c2d12" text-anchor="middle" font-weight="bold" dominant-baseline="middle" xml:space="preserve">Answer</text>
<text x="735.0" y="213.0" font-family="Inter, ui-sans-serif, Segoe UI, Roboto, DejaVu Sans, Helvetica, Arial, sans-serif" font-size="10" fill="#5b6675" text-anchor="middle" font-weight="normal" dominant-baseline="middle" xml:space="preserve">better on hard tasks</text>
<line x1="300" y1="208" x2="326.0" y2="208.0" stroke="#475569" stroke-width="2.2" stroke-linecap="round"/>
<polygon points="338.0,208.0 326.0,212.8 326.0,203.2" fill="#475569"/>
<line x1="620" y1="208" x2="646.0" y2="208.0" stroke="#475569" stroke-width="2.2" stroke-linecap="round"/>
<polygon points="658.0,208.0 646.0,212.8 646.0,203.2" fill="#475569"/>
<text x="480" y="274" font-family="Inter, ui-sans-serif, Segoe UI, Roboto, DejaVu Sans, Helvetica, Arial, sans-serif" font-size="11.5" fill="#64748b" text-anchor="middle" font-weight="bold" dominant-baseline="middle" xml:space="preserve">More 'thinking' (tokens) at inference can beat a bigger model on hard math/code/logic — but costs time and money.</text>
</svg>
