<svg xmlns="http://www.w3.org/2000/svg" viewBox="0 0 860 220" width="860" height="220" font-family="Inter, ui-sans-serif, Segoe UI, Roboto, DejaVu Sans, Helvetica, Arial, sans-serif">
<defs>
<linearGradient id="g_concept" x1="0" y1="0" x2="0" y2="1"><stop offset="0" stop-color="#eff5ff"/><stop offset="1" stop-color="#dde9ff"/></linearGradient>
<linearGradient id="g_example" x1="0" y1="0" x2="0" y2="1"><stop offset="0" stop-color="#eefaf0"/><stop offset="1" stop-color="#d7f1de"/></linearGradient>
<linearGradient id="g_key" x1="0" y1="0" x2="0" y2="1"><stop offset="0" stop-color="#fff6ea"/><stop offset="1" stop-color="#ffecca"/></linearGradient>
<linearGradient id="g_practice" x1="0" y1="0" x2="0" y2="1"><stop offset="0" stop-color="#f4f0ff"/><stop offset="1" stop-color="#e7defb"/></linearGradient>
<linearGradient id="g_deep" x1="0" y1="0" x2="0" y2="1"><stop offset="0" stop-color="#eafaf6"/><stop offset="1" stop-color="#d3f1ea"/></linearGradient>
<linearGradient id="g_note" x1="0" y1="0" x2="0" y2="1"><stop offset="0" stop-color="#f1f5f9"/><stop offset="1" stop-color="#e5edf6"/></linearGradient>
<linearGradient id="g_warn" x1="0" y1="0" x2="0" y2="1"><stop offset="0" stop-color="#fef1ef"/><stop offset="1" stop-color="#fde2dd"/></linearGradient>
<linearGradient id="g_ink" x1="0" y1="0" x2="0" y2="1"><stop offset="0" stop-color="#eef2f7"/><stop offset="1" stop-color="#dfe6f0"/></linearGradient>
<linearGradient id="g_plain" x1="0" y1="0" x2="0" y2="1"><stop offset="0" stop-color="#ffffff"/><stop offset="1" stop-color="#f3f7fc"/></linearGradient>
<linearGradient id="g_accent" x1="0" y1="0" x2="0" y2="1"><stop offset="0" stop-color="#eef0fe"/><stop offset="1" stop-color="#dfe2fd"/></linearGradient>
</defs>
<rect x="0" y="0" width="860" height="220" fill="#ffffff"/>
<text x="430" y="30" font-family="Inter, ui-sans-serif, Segoe UI, Roboto, DejaVu Sans, Helvetica, Arial, sans-serif" font-size="15.5" fill="#0f172a" text-anchor="middle" font-weight="bold" dominant-baseline="middle" xml:space="preserve">Why it works: each step becomes context for the next</text>
<rect x="24" y="80.5" width="124" height="64" rx="13" ry="13" fill="#0f172a" opacity="0.055"/>
<rect x="24" y="83" width="124" height="64" rx="13" ry="13" fill="#1e293b" opacity="0.035"/>
<rect x="24" y="78" width="124" height="64" rx="13" ry="13" fill="url(#g_note)" stroke="#64748b" stroke-width="1.8"/>
<text x="86.0" y="110.0" font-family="Inter, ui-sans-serif, Segoe UI, Roboto, DejaVu Sans, Helvetica, Arial, sans-serif" font-size="14" fill="#1e293b" text-anchor="middle" font-weight="bold" dominant-baseline="middle" xml:space="preserve">Question</text>
<rect x="196" y="80.5" width="124" height="64" rx="13" ry="13" fill="#0f172a" opacity="0.055"/>
<rect x="196" y="83" width="124" height="64" rx="13" ry="13" fill="#1e293b" opacity="0.035"/>
<rect x="196" y="78" width="124" height="64" rx="13" ry="13" fill="url(#g_concept)" stroke="#2563eb" stroke-width="1.8"/>
<text x="258.0" y="110.0" font-family="Inter, ui-sans-serif, Segoe UI, Roboto, DejaVu Sans, Helvetica, Arial, sans-serif" font-size="14" fill="#1e3a8a" text-anchor="middle" font-weight="bold" dominant-baseline="middle" xml:space="preserve">Step 1</text>
<rect x="368" y="80.5" width="124" height="64" rx="13" ry="13" fill="#0f172a" opacity="0.055"/>
<rect x="368" y="83" width="124" height="64" rx="13" ry="13" fill="#1e293b" opacity="0.035"/>
<rect x="368" y="78" width="124" height="64" rx="13" ry="13" fill="url(#g_concept)" stroke="#2563eb" stroke-width="1.8"/>
<text x="430.0" y="110.0" font-family="Inter, ui-sans-serif, Segoe UI, Roboto, DejaVu Sans, Helvetica, Arial, sans-serif" font-size="14" fill="#1e3a8a" text-anchor="middle" font-weight="bold" dominant-baseline="middle" xml:space="preserve">Step 2</text>
<rect x="540" y="80.5" width="124" height="64" rx="13" ry="13" fill="#0f172a" opacity="0.055"/>
<rect x="540" y="83" width="124" height="64" rx="13" ry="13" fill="#1e293b" opacity="0.035"/>
<rect x="540" y="78" width="124" height="64" rx="13" ry="13" fill="url(#g_concept)" stroke="#2563eb" stroke-width="1.8"/>
<text x="602.0" y="110.0" font-family="Inter, ui-sans-serif, Segoe UI, Roboto, DejaVu Sans, Helvetica, Arial, sans-serif" font-size="14" fill="#1e3a8a" text-anchor="middle" font-weight="bold" dominant-baseline="middle" xml:space="preserve">Step 3</text>
<rect x="712" y="80.5" width="124" height="64" rx="13" ry="13" fill="#0f172a" opacity="0.055"/>
<rect x="712" y="83" width="124" height="64" rx="13" ry="13" fill="#1e293b" opacity="0.035"/>
<rect x="712" y="78" width="124" height="64" rx="13" ry="13" fill="url(#g_key)" stroke="#d97706" stroke-width="1.8"/>
<text x="774.0" y="110.0" font-family="Inter, ui-sans-serif, Segoe UI, Roboto, DejaVu Sans, Helvetica, Arial, sans-serif" font-size="14" fill="#7c2d12" text-anchor="middle" font-weight="bold" dominant-baseline="middle" xml:space="preserve">Answer</text>
<line x1="148" y1="110" x2="206.0" y2="110.0" stroke="#475569" stroke-width="2.2" stroke-linecap="round"/>
<polygon points="218.0,110.0 206.0,114.8 206.0,105.2" fill="#475569"/>
<line x1="320" y1="110" x2="378.0" y2="110.0" stroke="#475569" stroke-width="2.2" stroke-linecap="round"/>
<polygon points="390.0,110.0 378.0,114.8 378.0,105.2" fill="#475569"/>
<line x1="492" y1="110" x2="550.0" y2="110.0" stroke="#475569" stroke-width="2.2" stroke-linecap="round"/>
<polygon points="562.0,110.0 550.0,114.8 550.0,105.2" fill="#475569"/>
<line x1="664" y1="110" x2="722.0" y2="110.0" stroke="#475569" stroke-width="2.2" stroke-linecap="round"/>
<polygon points="734.0,110.0 722.0,114.8 722.0,105.2" fill="#475569"/>
<text x="430" y="186" font-family="Inter, ui-sans-serif, Segoe UI, Roboto, DejaVu Sans, Helvetica, Arial, sans-serif" font-size="12.3" fill="#64748b" text-anchor="middle" font-weight="bold" dominant-baseline="middle" xml:space="preserve">Each written step is appended to the context, so the final token is computed from real</text>
<text x="430" y="204" font-family="Inter, ui-sans-serif, Segoe UI, Roboto, DejaVu Sans, Helvetica, Arial, sans-serif" font-size="12.3" fill="#64748b" text-anchor="middle" font-weight="bold" dominant-baseline="middle" xml:space="preserve">intermediate results — not guessed in a single leap.</text>
</svg>
