<svg xmlns="http://www.w3.org/2000/svg" viewBox="0 0 860 330" width="860" height="330" font-family="Inter, ui-sans-serif, Segoe UI, Roboto, DejaVu Sans, Helvetica, Arial, sans-serif">
<defs>
<linearGradient id="g_concept" x1="0" y1="0" x2="0" y2="1"><stop offset="0" stop-color="#eff5ff"/><stop offset="1" stop-color="#dde9ff"/></linearGradient>
<linearGradient id="g_example" x1="0" y1="0" x2="0" y2="1"><stop offset="0" stop-color="#eefaf0"/><stop offset="1" stop-color="#d7f1de"/></linearGradient>
<linearGradient id="g_key" x1="0" y1="0" x2="0" y2="1"><stop offset="0" stop-color="#fff6ea"/><stop offset="1" stop-color="#ffecca"/></linearGradient>
<linearGradient id="g_practice" x1="0" y1="0" x2="0" y2="1"><stop offset="0" stop-color="#f4f0ff"/><stop offset="1" stop-color="#e7defb"/></linearGradient>
<linearGradient id="g_deep" x1="0" y1="0" x2="0" y2="1"><stop offset="0" stop-color="#eafaf6"/><stop offset="1" stop-color="#d3f1ea"/></linearGradient>
<linearGradient id="g_note" x1="0" y1="0" x2="0" y2="1"><stop offset="0" stop-color="#f1f5f9"/><stop offset="1" stop-color="#e5edf6"/></linearGradient>
<linearGradient id="g_warn" x1="0" y1="0" x2="0" y2="1"><stop offset="0" stop-color="#fef1ef"/><stop offset="1" stop-color="#fde2dd"/></linearGradient>
<linearGradient id="g_ink" x1="0" y1="0" x2="0" y2="1"><stop offset="0" stop-color="#eef2f7"/><stop offset="1" stop-color="#dfe6f0"/></linearGradient>
<linearGradient id="g_plain" x1="0" y1="0" x2="0" y2="1"><stop offset="0" stop-color="#ffffff"/><stop offset="1" stop-color="#f3f7fc"/></linearGradient>
<linearGradient id="g_accent" x1="0" y1="0" x2="0" y2="1"><stop offset="0" stop-color="#eef0fe"/><stop offset="1" stop-color="#dfe2fd"/></linearGradient>
</defs>
<rect x="0" y="0" width="860" height="330" fill="#ffffff"/>
<text x="430" y="30" font-family="Inter, ui-sans-serif, Segoe UI, Roboto, DejaVu Sans, Helvetica, Arial, sans-serif" font-size="16" fill="#0f172a" text-anchor="middle" font-weight="bold" dominant-baseline="middle" xml:space="preserve">Finding nearest vectors: exact vs. approximate</text>
<text x="210" y="62" font-family="Inter, ui-sans-serif, Segoe UI, Roboto, DejaVu Sans, Helvetica, Arial, sans-serif" font-size="14" fill="#b45309" text-anchor="middle" font-weight="bold" dominant-baseline="middle" xml:space="preserve">Brute force (exact, slow)</text>
<line x1="150" y1="190" x2="80" y2="110" stroke="#cbd5e1" stroke-width="1.3" stroke-linecap="round"/>
<line x1="150" y1="190" x2="120" y2="250" stroke="#cbd5e1" stroke-width="1.3" stroke-linecap="round"/>
<line x1="150" y1="190" x2="225" y2="120" stroke="#cbd5e1" stroke-width="1.3" stroke-linecap="round"/>
<line x1="150" y1="190" x2="300" y2="105" stroke="#cbd5e1" stroke-width="1.3" stroke-linecap="round"/>
<line x1="150" y1="190" x2="345" y2="205" stroke="#cbd5e1" stroke-width="1.3" stroke-linecap="round"/>
<line x1="150" y1="190" x2="265" y2="262" stroke="#cbd5e1" stroke-width="1.3" stroke-linecap="round"/>
<line x1="150" y1="190" x2="205" y2="205" stroke="#cbd5e1" stroke-width="1.3" stroke-linecap="round"/>
<line x1="150" y1="190" x2="330" y2="268" stroke="#cbd5e1" stroke-width="1.3" stroke-linecap="round"/>
<line x1="150" y1="190" x2="95" y2="205" stroke="#cbd5e1" stroke-width="1.3" stroke-linecap="round"/>
<circle cx="80" cy="110" r="6" fill="#94a3b8"/>
<circle cx="120" cy="250" r="6" fill="#94a3b8"/>
<circle cx="225" cy="120" r="6" fill="#94a3b8"/>
<circle cx="300" cy="105" r="6" fill="#94a3b8"/>
<circle cx="345" cy="205" r="6" fill="#94a3b8"/>
<circle cx="265" cy="262" r="6" fill="#94a3b8"/>
<circle cx="205" cy="205" r="6" fill="#94a3b8"/>
<circle cx="330" cy="268" r="6" fill="#94a3b8"/>
<circle cx="95" cy="205" r="6" fill="#94a3b8"/>
<circle cx="150" cy="190" r="8" fill="#dc2626"/>
<text x="150" y="300" font-family="Inter, ui-sans-serif, Segoe UI, Roboto, DejaVu Sans, Helvetica, Arial, sans-serif" font-size="11.5" fill="#64748b" text-anchor="middle" font-weight="bold" dominant-baseline="middle" xml:space="preserve">compare query to ALL N vectors</text>
<text x="650" y="62" font-family="Inter, ui-sans-serif, Segoe UI, Roboto, DejaVu Sans, Helvetica, Arial, sans-serif" font-size="14" fill="#15803d" text-anchor="middle" font-weight="bold" dominant-baseline="middle" xml:space="preserve">ANN index — graph (fast, ~exact)</text>
<line x1="520" y1="120" x2="610" y2="100" stroke="#d1d5db" stroke-width="1.3" stroke-linecap="round"/>
<line x1="610" y1="100" x2="700" y2="110" stroke="#d1d5db" stroke-width="1.3" stroke-linecap="round"/>
<line x1="520" y1="120" x2="560" y2="205" stroke="#d1d5db" stroke-width="1.3" stroke-linecap="round"/>
<line x1="560" y1="205" x2="650" y2="185" stroke="#d1d5db" stroke-width="1.3" stroke-linecap="round"/>
<line x1="650" y1="185" x2="705" y2="130" stroke="#d1d5db" stroke-width="1.3" stroke-linecap="round"/>
<line x1="705" y1="130" x2="700" y2="110" stroke="#d1d5db" stroke-width="1.3" stroke-linecap="round"/>
<line x1="705" y1="130" x2="775" y2="200" stroke="#d1d5db" stroke-width="1.3" stroke-linecap="round"/>
<line x1="775" y1="200" x2="730" y2="240" stroke="#d1d5db" stroke-width="1.3" stroke-linecap="round"/>
<line x1="560" y1="205" x2="560" y2="285" stroke="#d1d5db" stroke-width="1.3" stroke-linecap="round"/>
<line x1="650" y1="185" x2="730" y2="240" stroke="#d1d5db" stroke-width="1.3" stroke-linecap="round"/>
<line x1="560" y1="285" x2="560" y2="205" stroke="#d1d5db" stroke-width="1.3" stroke-linecap="round"/>
<line x1="500" y1="285" x2="550.0" y2="285.0" stroke="#16a34a" stroke-width="2.4" stroke-linecap="round"/>
<polygon points="560.0,285.0 550.0,289.0 550.0,281.0" fill="#16a34a"/>
<line x1="560" y1="285" x2="560.0" y2="215.0" stroke="#16a34a" stroke-width="2.4" stroke-linecap="round"/>
<polygon points="560.0,205.0 564.0,215.0 556.0,215.0" fill="#16a34a"/>
<line x1="560" y1="205" x2="640.2381293981605" y2="187.16930457818657" stroke="#16a34a" stroke-width="2.4" stroke-linecap="round"/>
<polygon points="650.0,185.0 641.1,191.1 639.4,183.3" fill="#16a34a"/>
<line x1="650" y1="185" x2="694.4529980377478" y2="118.32050294337844" stroke="#16a34a" stroke-width="2.4" stroke-linecap="round"/>
<polygon points="700.0,110.0 697.8,120.5 691.1,116.1" fill="#16a34a"/>
<circle cx="520" cy="120" r="6" fill="#94a3b8"/>
<circle cx="610" cy="100" r="6" fill="#94a3b8"/>
<circle cx="705" cy="130" r="6" fill="#94a3b8"/>
<circle cx="775" cy="200" r="6" fill="#94a3b8"/>
<circle cx="560" cy="205" r="6" fill="#94a3b8"/>
<circle cx="650" cy="185" r="6" fill="#94a3b8"/>
<circle cx="730" cy="240" r="6" fill="#94a3b8"/>
<circle cx="560" cy="285" r="6" fill="#94a3b8"/>
<circle cx="700" cy="110" r="8" fill="#15803d"/>
<circle cx="500" cy="285" r="8" fill="#dc2626"/>
<text x="650" y="312" font-family="Inter, ui-sans-serif, Segoe UI, Roboto, DejaVu Sans, Helvetica, Arial, sans-serif" font-size="11.5" fill="#64748b" text-anchor="middle" font-weight="bold" dominant-baseline="middle" xml:space="preserve">hop along links to the neighborhood → few comparisons</text>
</svg>
