<svg xmlns="http://www.w3.org/2000/svg" viewBox="0 0 900 320" width="900" height="320" font-family="Inter, ui-sans-serif, Segoe UI, Roboto, DejaVu Sans, Helvetica, Arial, sans-serif">
<defs>
<linearGradient id="g_concept" x1="0" y1="0" x2="0" y2="1"><stop offset="0" stop-color="#eff5ff"/><stop offset="1" stop-color="#dde9ff"/></linearGradient>
<linearGradient id="g_example" x1="0" y1="0" x2="0" y2="1"><stop offset="0" stop-color="#eefaf0"/><stop offset="1" stop-color="#d7f1de"/></linearGradient>
<linearGradient id="g_key" x1="0" y1="0" x2="0" y2="1"><stop offset="0" stop-color="#fff6ea"/><stop offset="1" stop-color="#ffecca"/></linearGradient>
<linearGradient id="g_practice" x1="0" y1="0" x2="0" y2="1"><stop offset="0" stop-color="#f4f0ff"/><stop offset="1" stop-color="#e7defb"/></linearGradient>
<linearGradient id="g_deep" x1="0" y1="0" x2="0" y2="1"><stop offset="0" stop-color="#eafaf6"/><stop offset="1" stop-color="#d3f1ea"/></linearGradient>
<linearGradient id="g_note" x1="0" y1="0" x2="0" y2="1"><stop offset="0" stop-color="#f1f5f9"/><stop offset="1" stop-color="#e5edf6"/></linearGradient>
<linearGradient id="g_warn" x1="0" y1="0" x2="0" y2="1"><stop offset="0" stop-color="#fef1ef"/><stop offset="1" stop-color="#fde2dd"/></linearGradient>
<linearGradient id="g_ink" x1="0" y1="0" x2="0" y2="1"><stop offset="0" stop-color="#eef2f7"/><stop offset="1" stop-color="#dfe6f0"/></linearGradient>
<linearGradient id="g_plain" x1="0" y1="0" x2="0" y2="1"><stop offset="0" stop-color="#ffffff"/><stop offset="1" stop-color="#f3f7fc"/></linearGradient>
<linearGradient id="g_accent" x1="0" y1="0" x2="0" y2="1"><stop offset="0" stop-color="#eef0fe"/><stop offset="1" stop-color="#dfe2fd"/></linearGradient>
</defs>
<rect x="0" y="0" width="900" height="320" fill="#ffffff"/>
<text x="450" y="30" font-family="Inter, ui-sans-serif, Segoe UI, Roboto, DejaVu Sans, Helvetica, Arial, sans-serif" font-size="16" fill="#0f172a" text-anchor="middle" font-weight="bold" dominant-baseline="middle" xml:space="preserve">Evaluating RAG: two failure points</text>
<rect x="40" y="78.5" width="110" height="58" rx="13" ry="13" fill="#0f172a" opacity="0.055"/>
<rect x="40" y="81" width="110" height="58" rx="13" ry="13" fill="#1e293b" opacity="0.035"/>
<rect x="40" y="76" width="110" height="58" rx="13" ry="13" fill="url(#g_note)" stroke="#64748b" stroke-width="1.8"/>
<text x="95.0" y="105.0" font-family="Inter, ui-sans-serif, Segoe UI, Roboto, DejaVu Sans, Helvetica, Arial, sans-serif" font-size="14" fill="#1e293b" text-anchor="middle" font-weight="bold" dominant-baseline="middle" xml:space="preserve">Query</text>
<rect x="200" y="78.5" width="140" height="58" rx="13" ry="13" fill="#0f172a" opacity="0.055"/>
<rect x="200" y="81" width="140" height="58" rx="13" ry="13" fill="#1e293b" opacity="0.035"/>
<rect x="200" y="76" width="140" height="58" rx="13" ry="13" fill="url(#g_accent)" stroke="#4f46e5" stroke-width="1.8"/>
<text x="270.0" y="105.0" font-family="Inter, ui-sans-serif, Segoe UI, Roboto, DejaVu Sans, Helvetica, Arial, sans-serif" font-size="15" fill="#312e81" text-anchor="middle" font-weight="bold" dominant-baseline="middle" xml:space="preserve">Retrieve</text>
<rect x="390" y="78.5" width="140" height="58" rx="13" ry="13" fill="#0f172a" opacity="0.055"/>
<rect x="390" y="81" width="140" height="58" rx="13" ry="13" fill="#1e293b" opacity="0.035"/>
<rect x="390" y="76" width="140" height="58" rx="13" ry="13" fill="url(#g_key)" stroke="#d97706" stroke-width="1.8"/>
<text x="460.0" y="105.0" font-family="Inter, ui-sans-serif, Segoe UI, Roboto, DejaVu Sans, Helvetica, Arial, sans-serif" font-size="15" fill="#7c2d12" text-anchor="middle" font-weight="bold" dominant-baseline="middle" xml:space="preserve">Generate</text>
<rect x="580" y="78.5" width="140" height="58" rx="13" ry="13" fill="#0f172a" opacity="0.055"/>
<rect x="580" y="81" width="140" height="58" rx="13" ry="13" fill="#1e293b" opacity="0.035"/>
<rect x="580" y="76" width="140" height="58" rx="13" ry="13" fill="url(#g_example)" stroke="#16a34a" stroke-width="1.8"/>
<text x="650.0" y="105.0" font-family="Inter, ui-sans-serif, Segoe UI, Roboto, DejaVu Sans, Helvetica, Arial, sans-serif" font-size="15" fill="#14532d" text-anchor="middle" font-weight="bold" dominant-baseline="middle" xml:space="preserve">Answer</text>
<line x1="150" y1="105" x2="186.0" y2="105.0" stroke="#475569" stroke-width="2.2" stroke-linecap="round"/>
<polygon points="198.0,105.0 186.0,109.8 186.0,100.2" fill="#475569"/>
<line x1="340" y1="105" x2="376.0" y2="105.0" stroke="#475569" stroke-width="2.2" stroke-linecap="round"/>
<polygon points="388.0,105.0 376.0,109.8 376.0,100.2" fill="#475569"/>
<line x1="530" y1="105" x2="566.0" y2="105.0" stroke="#475569" stroke-width="2.2" stroke-linecap="round"/>
<polygon points="578.0,105.0 566.0,109.8 566.0,100.2" fill="#475569"/>
<line x1="270" y1="134" x2="270.0" y2="163.0" stroke="#dc2626" stroke-width="2" stroke-linecap="round"/>
<polygon points="270.0,172.0 266.4,163.0 273.6,163.0" fill="#dc2626"/>
<rect x="150" y="178" width="250" height="88" rx="10" ry="10" fill="#fef1ef" stroke="#dc2626" stroke-width="2"/>
<text x="275" y="200" font-family="Inter, ui-sans-serif, Segoe UI, Roboto, DejaVu Sans, Helvetica, Arial, sans-serif" font-size="12.5" fill="#b91c1c" text-anchor="middle" font-weight="bold" dominant-baseline="middle" xml:space="preserve">Failure A — retrieval miss</text>
<text x="275" y="222" font-family="Inter, ui-sans-serif, Segoe UI, Roboto, DejaVu Sans, Helvetica, Arial, sans-serif" font-size="11.5" fill="#475569" text-anchor="middle" font-weight="normal" dominant-baseline="middle" xml:space="preserve">relevant chunk wasn’t fetched</text>
<text x="275" y="246" font-family="Inter, ui-sans-serif, Segoe UI, Roboto, DejaVu Sans, Helvetica, Arial, sans-serif" font-size="11.5" fill="#7f1d1d" text-anchor="middle" font-weight="bold" dominant-baseline="middle" xml:space="preserve">metrics: Recall@k · MRR</text>
<line x1="460" y1="134" x2="460.0" y2="163.0" stroke="#dc2626" stroke-width="2" stroke-linecap="round"/>
<polygon points="460.0,172.0 456.4,163.0 463.6,163.0" fill="#dc2626"/>
<rect x="470" y="178" width="270" height="88" rx="10" ry="10" fill="#fef1ef" stroke="#dc2626" stroke-width="2"/>
<text x="605" y="200" font-family="Inter, ui-sans-serif, Segoe UI, Roboto, DejaVu Sans, Helvetica, Arial, sans-serif" font-size="12.5" fill="#b91c1c" text-anchor="middle" font-weight="bold" dominant-baseline="middle" xml:space="preserve">Failure B — generation slip</text>
<text x="605" y="222" font-family="Inter, ui-sans-serif, Segoe UI, Roboto, DejaVu Sans, Helvetica, Arial, sans-serif" font-size="11.5" fill="#475569" text-anchor="middle" font-weight="normal" dominant-baseline="middle" xml:space="preserve">ignored context or hallucinated</text>
<text x="605" y="246" font-family="Inter, ui-sans-serif, Segoe UI, Roboto, DejaVu Sans, Helvetica, Arial, sans-serif" font-size="11.5" fill="#7f1d1d" text-anchor="middle" font-weight="bold" dominant-baseline="middle" xml:space="preserve">metrics: faithfulness · correctness</text>
<text x="450" y="300" font-family="Inter, ui-sans-serif, Segoe UI, Roboto, DejaVu Sans, Helvetica, Arial, sans-serif" font-size="12.3" fill="#64748b" text-anchor="middle" font-weight="bold" dominant-baseline="middle" xml:space="preserve">Always ask separately: did we fetch the right text, and did the model use it?</text>
</svg>
