<svg xmlns="http://www.w3.org/2000/svg" viewBox="0 0 880 330" width="880" height="330" font-family="Inter, ui-sans-serif, Segoe UI, Roboto, DejaVu Sans, Helvetica, Arial, sans-serif">
<defs>
<linearGradient id="g_concept" x1="0" y1="0" x2="0" y2="1"><stop offset="0" stop-color="#eff5ff"/><stop offset="1" stop-color="#dde9ff"/></linearGradient>
<linearGradient id="g_example" x1="0" y1="0" x2="0" y2="1"><stop offset="0" stop-color="#eefaf0"/><stop offset="1" stop-color="#d7f1de"/></linearGradient>
<linearGradient id="g_key" x1="0" y1="0" x2="0" y2="1"><stop offset="0" stop-color="#fff6ea"/><stop offset="1" stop-color="#ffecca"/></linearGradient>
<linearGradient id="g_practice" x1="0" y1="0" x2="0" y2="1"><stop offset="0" stop-color="#f4f0ff"/><stop offset="1" stop-color="#e7defb"/></linearGradient>
<linearGradient id="g_deep" x1="0" y1="0" x2="0" y2="1"><stop offset="0" stop-color="#eafaf6"/><stop offset="1" stop-color="#d3f1ea"/></linearGradient>
<linearGradient id="g_note" x1="0" y1="0" x2="0" y2="1"><stop offset="0" stop-color="#f1f5f9"/><stop offset="1" stop-color="#e5edf6"/></linearGradient>
<linearGradient id="g_warn" x1="0" y1="0" x2="0" y2="1"><stop offset="0" stop-color="#fef1ef"/><stop offset="1" stop-color="#fde2dd"/></linearGradient>
<linearGradient id="g_ink" x1="0" y1="0" x2="0" y2="1"><stop offset="0" stop-color="#eef2f7"/><stop offset="1" stop-color="#dfe6f0"/></linearGradient>
<linearGradient id="g_plain" x1="0" y1="0" x2="0" y2="1"><stop offset="0" stop-color="#ffffff"/><stop offset="1" stop-color="#f3f7fc"/></linearGradient>
<linearGradient id="g_accent" x1="0" y1="0" x2="0" y2="1"><stop offset="0" stop-color="#eef0fe"/><stop offset="1" stop-color="#dfe2fd"/></linearGradient>
</defs>
<rect x="0" y="0" width="880" height="330" fill="#ffffff"/>
<text x="440" y="30" font-family="Inter, ui-sans-serif, Segoe UI, Roboto, DejaVu Sans, Helvetica, Arial, sans-serif" font-size="16" fill="#0f172a" text-anchor="middle" font-weight="bold" dominant-baseline="middle" xml:space="preserve">Two phases: index once, query every time</text>
<rect x="660" y="132.5" width="180" height="80" rx="13" ry="13" fill="#0f172a" opacity="0.055"/>
<rect x="660" y="135" width="180" height="80" rx="13" ry="13" fill="#1e293b" opacity="0.035"/>
<rect x="660" y="130" width="180" height="80" rx="13" ry="13" fill="url(#g_accent)" stroke="#4f46e5" stroke-width="1.8"/>
<text x="750.0" y="162.0" font-family="Inter, ui-sans-serif, Segoe UI, Roboto, DejaVu Sans, Helvetica, Arial, sans-serif" font-size="15" fill="#312e81" text-anchor="middle" font-weight="bold" dominant-baseline="middle" xml:space="preserve">Vector DB</text>
<text x="750.0" y="175.5" font-family="Inter, ui-sans-serif, Segoe UI, Roboto, DejaVu Sans, Helvetica, Arial, sans-serif" font-size="11" fill="#5b6675" text-anchor="middle" font-weight="normal" dominant-baseline="middle" xml:space="preserve">stored chunk vectors</text>
<text x="40" y="66" font-family="Inter, ui-sans-serif, Segoe UI, Roboto, DejaVu Sans, Helvetica, Arial, sans-serif" font-size="13" fill="#2563eb" text-anchor="start" font-weight="bold" dominant-baseline="middle" xml:space="preserve">① Indexing  (offline, once)</text>
<rect x="40" y="84.5" width="120" height="48" rx="13" ry="13" fill="#0f172a" opacity="0.055"/>
<rect x="40" y="87" width="120" height="48" rx="13" ry="13" fill="#1e293b" opacity="0.035"/>
<rect x="40" y="82" width="120" height="48" rx="13" ry="13" fill="url(#g_note)" stroke="#64748b" stroke-width="1.8"/>
<text x="100.0" y="106.0" font-family="Inter, ui-sans-serif, Segoe UI, Roboto, DejaVu Sans, Helvetica, Arial, sans-serif" font-size="12.5" fill="#1e293b" text-anchor="middle" font-weight="bold" dominant-baseline="middle" xml:space="preserve">Documents</text>
<rect x="190" y="84.5" width="110" height="48" rx="13" ry="13" fill="#0f172a" opacity="0.055"/>
<rect x="190" y="87" width="110" height="48" rx="13" ry="13" fill="#1e293b" opacity="0.035"/>
<rect x="190" y="82" width="110" height="48" rx="13" ry="13" fill="url(#g_concept)" stroke="#2563eb" stroke-width="1.8"/>
<text x="245.0" y="106.0" font-family="Inter, ui-sans-serif, Segoe UI, Roboto, DejaVu Sans, Helvetica, Arial, sans-serif" font-size="13" fill="#1e3a8a" text-anchor="middle" font-weight="bold" dominant-baseline="middle" xml:space="preserve">Chunk</text>
<rect x="330" y="84.5" width="110" height="48" rx="13" ry="13" fill="#0f172a" opacity="0.055"/>
<rect x="330" y="87" width="110" height="48" rx="13" ry="13" fill="#1e293b" opacity="0.035"/>
<rect x="330" y="82" width="110" height="48" rx="13" ry="13" fill="url(#g_concept)" stroke="#2563eb" stroke-width="1.8"/>
<text x="385.0" y="106.0" font-family="Inter, ui-sans-serif, Segoe UI, Roboto, DejaVu Sans, Helvetica, Arial, sans-serif" font-size="13" fill="#1e3a8a" text-anchor="middle" font-weight="bold" dominant-baseline="middle" xml:space="preserve">Embed</text>
<line x1="160" y1="106" x2="176.0" y2="106.0" stroke="#475569" stroke-width="2.2" stroke-linecap="round"/>
<polygon points="188.0,106.0 176.0,110.8 176.0,101.2" fill="#475569"/>
<line x1="300" y1="106" x2="316.0" y2="106.0" stroke="#475569" stroke-width="2.2" stroke-linecap="round"/>
<polygon points="328.0,106.0 316.0,110.8 316.0,101.2" fill="#475569"/>
<line x1="440" y1="106" x2="680.0384965557371" y2="127.12338769690486" stroke="#2563eb" stroke-width="2" stroke-linecap="round"/>
<polygon points="690.0,128.0 679.7,131.1 680.4,123.1" fill="#2563eb"/>
<text x="560" y="96" font-family="Inter, ui-sans-serif, Segoe UI, Roboto, DejaVu Sans, Helvetica, Arial, sans-serif" font-size="11" fill="#2563eb" text-anchor="middle" font-weight="bold" dominant-baseline="middle" xml:space="preserve">store</text>
<text x="40" y="236" font-family="Inter, ui-sans-serif, Segoe UI, Roboto, DejaVu Sans, Helvetica, Arial, sans-serif" font-size="13" fill="#15803d" text-anchor="start" font-weight="bold" dominant-baseline="middle" xml:space="preserve">② Querying  (online, each request)</text>
<rect x="40" y="254.5" width="120" height="48" rx="13" ry="13" fill="#0f172a" opacity="0.055"/>
<rect x="40" y="257" width="120" height="48" rx="13" ry="13" fill="#1e293b" opacity="0.035"/>
<rect x="40" y="252" width="120" height="48" rx="13" ry="13" fill="url(#g_note)" stroke="#64748b" stroke-width="1.8"/>
<text x="100.0" y="276.0" font-family="Inter, ui-sans-serif, Segoe UI, Roboto, DejaVu Sans, Helvetica, Arial, sans-serif" font-size="12.5" fill="#1e293b" text-anchor="middle" font-weight="bold" dominant-baseline="middle" xml:space="preserve">Question</text>
<rect x="210" y="254.5" width="110" height="48" rx="13" ry="13" fill="#0f172a" opacity="0.055"/>
<rect x="210" y="257" width="110" height="48" rx="13" ry="13" fill="#1e293b" opacity="0.035"/>
<rect x="210" y="252" width="110" height="48" rx="13" ry="13" fill="url(#g_concept)" stroke="#2563eb" stroke-width="1.8"/>
<text x="265.0" y="276.0" font-family="Inter, ui-sans-serif, Segoe UI, Roboto, DejaVu Sans, Helvetica, Arial, sans-serif" font-size="13" fill="#1e3a8a" text-anchor="middle" font-weight="bold" dominant-baseline="middle" xml:space="preserve">Embed</text>
<line x1="160" y1="276" x2="196.0" y2="276.0" stroke="#475569" stroke-width="2.2" stroke-linecap="round"/>
<polygon points="208.0,276.0 196.0,280.8 196.0,271.2" fill="#475569"/>
<line x1="320" y1="276" x2="680.1463228666496" y2="213.70441982847143" stroke="#15803d" stroke-width="2" stroke-linecap="round"/>
<polygon points="690.0,212.0 680.8,217.6 679.5,209.8" fill="#15803d"/>
<text x="470" y="268" font-family="Inter, ui-sans-serif, Segoe UI, Roboto, DejaVu Sans, Helvetica, Arial, sans-serif" font-size="11" fill="#15803d" text-anchor="middle" font-weight="bold" dominant-baseline="middle" xml:space="preserve">search</text>
<rect x="660" y="246.5" width="180" height="56" rx="13" ry="13" fill="#0f172a" opacity="0.055"/>
<rect x="660" y="249" width="180" height="56" rx="13" ry="13" fill="#1e293b" opacity="0.035"/>
<rect x="660" y="244" width="180" height="56" rx="13" ry="13" fill="url(#g_key)" stroke="#d97706" stroke-width="1.8"/>
<text x="750.0" y="272.0" font-family="Inter, ui-sans-serif, Segoe UI, Roboto, DejaVu Sans, Helvetica, Arial, sans-serif" font-size="14" fill="#7c2d12" text-anchor="middle" font-weight="bold" dominant-baseline="middle" xml:space="preserve">Top-k chunks</text>
<line x1="750" y1="210" x2="750.0" y2="233.0" stroke="#475569" stroke-width="2" stroke-linecap="round"/>
<polygon points="750.0,242.0 746.4,233.0 753.6,233.0" fill="#475569"/>
</svg>
