<svg xmlns="http://www.w3.org/2000/svg" viewBox="0 0 880 320" width="880" height="320" font-family="Inter, ui-sans-serif, Segoe UI, Roboto, DejaVu Sans, Helvetica, Arial, sans-serif">
<defs>
<linearGradient id="g_concept" x1="0" y1="0" x2="0" y2="1"><stop offset="0" stop-color="#eff5ff"/><stop offset="1" stop-color="#dde9ff"/></linearGradient>
<linearGradient id="g_example" x1="0" y1="0" x2="0" y2="1"><stop offset="0" stop-color="#eefaf0"/><stop offset="1" stop-color="#d7f1de"/></linearGradient>
<linearGradient id="g_key" x1="0" y1="0" x2="0" y2="1"><stop offset="0" stop-color="#fff6ea"/><stop offset="1" stop-color="#ffecca"/></linearGradient>
<linearGradient id="g_practice" x1="0" y1="0" x2="0" y2="1"><stop offset="0" stop-color="#f4f0ff"/><stop offset="1" stop-color="#e7defb"/></linearGradient>
<linearGradient id="g_deep" x1="0" y1="0" x2="0" y2="1"><stop offset="0" stop-color="#eafaf6"/><stop offset="1" stop-color="#d3f1ea"/></linearGradient>
<linearGradient id="g_note" x1="0" y1="0" x2="0" y2="1"><stop offset="0" stop-color="#f1f5f9"/><stop offset="1" stop-color="#e5edf6"/></linearGradient>
<linearGradient id="g_warn" x1="0" y1="0" x2="0" y2="1"><stop offset="0" stop-color="#fef1ef"/><stop offset="1" stop-color="#fde2dd"/></linearGradient>
<linearGradient id="g_ink" x1="0" y1="0" x2="0" y2="1"><stop offset="0" stop-color="#eef2f7"/><stop offset="1" stop-color="#dfe6f0"/></linearGradient>
<linearGradient id="g_plain" x1="0" y1="0" x2="0" y2="1"><stop offset="0" stop-color="#ffffff"/><stop offset="1" stop-color="#f3f7fc"/></linearGradient>
<linearGradient id="g_accent" x1="0" y1="0" x2="0" y2="1"><stop offset="0" stop-color="#eef0fe"/><stop offset="1" stop-color="#dfe2fd"/></linearGradient>
</defs>
<rect x="0" y="0" width="880" height="320" fill="#ffffff"/>
<text x="440" y="30" font-family="Inter, ui-sans-serif, Segoe UI, Roboto, DejaVu Sans, Helvetica, Arial, sans-serif" font-size="16" fill="#0f172a" text-anchor="middle" font-weight="bold" dominant-baseline="middle" xml:space="preserve">MCP: one standard plug for tools &amp; data</text>
<rect x="30" y="132.5" width="180" height="70" rx="13" ry="13" fill="#0f172a" opacity="0.055"/>
<rect x="30" y="135" width="180" height="70" rx="13" ry="13" fill="#1e293b" opacity="0.035"/>
<rect x="30" y="130" width="180" height="70" rx="13" ry="13" fill="url(#g_accent)" stroke="#4f46e5" stroke-width="1.8"/>
<text x="120.0" y="157.0" font-family="Inter, ui-sans-serif, Segoe UI, Roboto, DejaVu Sans, Helvetica, Arial, sans-serif" font-size="16" fill="#312e81" text-anchor="middle" font-weight="bold" dominant-baseline="middle" xml:space="preserve">AI app</text>
<text x="120.0" y="171.0" font-family="Inter, ui-sans-serif, Segoe UI, Roboto, DejaVu Sans, Helvetica, Arial, sans-serif" font-size="11" fill="#5b6675" text-anchor="middle" font-weight="normal" dominant-baseline="middle" xml:space="preserve">(MCP client)</text>
<rect x="280" y="70" width="110" height="190" rx="12" ry="12" fill="#f4f0ff" stroke="#7c3aed" stroke-width="2"/>
<text x="335" y="100" font-family="Inter, ui-sans-serif, Segoe UI, Roboto, DejaVu Sans, Helvetica, Arial, sans-serif" font-size="16" fill="#4c1d95" text-anchor="middle" font-weight="bold" dominant-baseline="middle" xml:space="preserve">MCP</text>
<text x="335" y="122" font-family="Inter, ui-sans-serif, Segoe UI, Roboto, DejaVu Sans, Helvetica, Arial, sans-serif" font-size="11.5" fill="#5b4b8a" text-anchor="middle" font-weight="normal" dominant-baseline="middle" xml:space="preserve">protocol</text>
<line x1="210" y1="165" x2="266.0" y2="165.0" stroke="#475569" stroke-width="2.2" stroke-linecap="round"/>
<polygon points="278.0,165.0 266.0,169.8 266.0,160.2" fill="#475569"/>
<rect x="480" y="82.5" width="160" height="42" rx="13" ry="13" fill="#0f172a" opacity="0.055"/>
<rect x="480" y="85" width="160" height="42" rx="13" ry="13" fill="#1e293b" opacity="0.035"/>
<rect x="480" y="80" width="160" height="42" rx="13" ry="13" fill="url(#g_note)" stroke="#64748b" stroke-width="1.8"/>
<text x="560.0" y="101.0" font-family="Inter, ui-sans-serif, Segoe UI, Roboto, DejaVu Sans, Helvetica, Arial, sans-serif" font-size="12.5" fill="#1e293b" text-anchor="middle" font-weight="bold" dominant-baseline="middle" xml:space="preserve">GitHub  server</text>
<line x1="390" y1="101" x2="470.0" y2="101.0" stroke="#94a3b8" stroke-width="1.8" stroke-linecap="round"/>
<polygon points="478.0,101.0 470.0,104.2 470.0,97.8" fill="#94a3b8"/>
<rect x="480" y="137.5" width="160" height="42" rx="13" ry="13" fill="#0f172a" opacity="0.055"/>
<rect x="480" y="140" width="160" height="42" rx="13" ry="13" fill="#1e293b" opacity="0.035"/>
<rect x="480" y="135" width="160" height="42" rx="13" ry="13" fill="url(#g_note)" stroke="#64748b" stroke-width="1.8"/>
<text x="560.0" y="156.0" font-family="Inter, ui-sans-serif, Segoe UI, Roboto, DejaVu Sans, Helvetica, Arial, sans-serif" font-size="12.5" fill="#1e293b" text-anchor="middle" font-weight="bold" dominant-baseline="middle" xml:space="preserve">Database  server</text>
<line x1="390" y1="156" x2="470.0" y2="156.0" stroke="#94a3b8" stroke-width="1.8" stroke-linecap="round"/>
<polygon points="478.0,156.0 470.0,159.2 470.0,152.8" fill="#94a3b8"/>
<rect x="480" y="192.5" width="160" height="42" rx="13" ry="13" fill="#0f172a" opacity="0.055"/>
<rect x="480" y="195" width="160" height="42" rx="13" ry="13" fill="#1e293b" opacity="0.035"/>
<rect x="480" y="190" width="160" height="42" rx="13" ry="13" fill="url(#g_note)" stroke="#64748b" stroke-width="1.8"/>
<text x="560.0" y="211.0" font-family="Inter, ui-sans-serif, Segoe UI, Roboto, DejaVu Sans, Helvetica, Arial, sans-serif" font-size="12.5" fill="#1e293b" text-anchor="middle" font-weight="bold" dominant-baseline="middle" xml:space="preserve">Files  server</text>
<line x1="390" y1="211" x2="470.0" y2="211.0" stroke="#94a3b8" stroke-width="1.8" stroke-linecap="round"/>
<polygon points="478.0,211.0 470.0,214.2 470.0,207.8" fill="#94a3b8"/>
<rect x="480" y="247.5" width="160" height="42" rx="13" ry="13" fill="#0f172a" opacity="0.055"/>
<rect x="480" y="250" width="160" height="42" rx="13" ry="13" fill="#1e293b" opacity="0.035"/>
<rect x="480" y="245" width="160" height="42" rx="13" ry="13" fill="url(#g_note)" stroke="#64748b" stroke-width="1.8"/>
<text x="560.0" y="266.0" font-family="Inter, ui-sans-serif, Segoe UI, Roboto, DejaVu Sans, Helvetica, Arial, sans-serif" font-size="12.5" fill="#1e293b" text-anchor="middle" font-weight="bold" dominant-baseline="middle" xml:space="preserve">Slack  server</text>
<line x1="390" y1="266" x2="470.0" y2="266.0" stroke="#94a3b8" stroke-width="1.8" stroke-linecap="round"/>
<polygon points="478.0,266.0 470.0,269.2 470.0,262.8" fill="#94a3b8"/>
<text x="440" y="300" font-family="Inter, ui-sans-serif, Segoe UI, Roboto, DejaVu Sans, Helvetica, Arial, sans-serif" font-size="12" fill="#64748b" text-anchor="middle" font-weight="bold" dominant-baseline="middle" xml:space="preserve">Build a tool as an MCP server once; any MCP-compatible agent can use it — the “USB-C for AI”.</text>
</svg>
