<svg xmlns="http://www.w3.org/2000/svg" viewBox="0 0 880 300" width="880" height="300" font-family="Inter, ui-sans-serif, Segoe UI, Roboto, DejaVu Sans, Helvetica, Arial, sans-serif">
<defs>
<linearGradient id="g_concept" x1="0" y1="0" x2="0" y2="1"><stop offset="0" stop-color="#eff5ff"/><stop offset="1" stop-color="#dde9ff"/></linearGradient>
<linearGradient id="g_example" x1="0" y1="0" x2="0" y2="1"><stop offset="0" stop-color="#eefaf0"/><stop offset="1" stop-color="#d7f1de"/></linearGradient>
<linearGradient id="g_key" x1="0" y1="0" x2="0" y2="1"><stop offset="0" stop-color="#fff6ea"/><stop offset="1" stop-color="#ffecca"/></linearGradient>
<linearGradient id="g_practice" x1="0" y1="0" x2="0" y2="1"><stop offset="0" stop-color="#f4f0ff"/><stop offset="1" stop-color="#e7defb"/></linearGradient>
<linearGradient id="g_deep" x1="0" y1="0" x2="0" y2="1"><stop offset="0" stop-color="#eafaf6"/><stop offset="1" stop-color="#d3f1ea"/></linearGradient>
<linearGradient id="g_note" x1="0" y1="0" x2="0" y2="1"><stop offset="0" stop-color="#f1f5f9"/><stop offset="1" stop-color="#e5edf6"/></linearGradient>
<linearGradient id="g_warn" x1="0" y1="0" x2="0" y2="1"><stop offset="0" stop-color="#fef1ef"/><stop offset="1" stop-color="#fde2dd"/></linearGradient>
<linearGradient id="g_ink" x1="0" y1="0" x2="0" y2="1"><stop offset="0" stop-color="#eef2f7"/><stop offset="1" stop-color="#dfe6f0"/></linearGradient>
<linearGradient id="g_plain" x1="0" y1="0" x2="0" y2="1"><stop offset="0" stop-color="#ffffff"/><stop offset="1" stop-color="#f3f7fc"/></linearGradient>
<linearGradient id="g_accent" x1="0" y1="0" x2="0" y2="1"><stop offset="0" stop-color="#eef0fe"/><stop offset="1" stop-color="#dfe2fd"/></linearGradient>
</defs>
<rect x="0" y="0" width="880" height="300" fill="#ffffff"/>
<text x="440" y="30" font-family="Inter, ui-sans-serif, Segoe UI, Roboto, DejaVu Sans, Helvetica, Arial, sans-serif" font-size="16" fill="#0f172a" text-anchor="middle" font-weight="bold" dominant-baseline="middle" xml:space="preserve">How training works: predict, measure, adjust</text>
<rect x="24" y="112.5" width="150" height="64" rx="13" ry="13" fill="#0f172a" opacity="0.055"/>
<rect x="24" y="115" width="150" height="64" rx="13" ry="13" fill="#1e293b" opacity="0.035"/>
<rect x="24" y="110" width="150" height="64" rx="13" ry="13" fill="url(#g_note)" stroke="#64748b" stroke-width="1.8"/>
<text x="99.0" y="134.5" font-family="Inter, ui-sans-serif, Segoe UI, Roboto, DejaVu Sans, Helvetica, Arial, sans-serif" font-size="12.5" fill="#1e293b" text-anchor="middle" font-weight="bold" dominant-baseline="middle" xml:space="preserve">Training example</text>
<text x="99.0" y="146.75" font-family="Inter, ui-sans-serif, Segoe UI, Roboto, DejaVu Sans, Helvetica, Arial, sans-serif" font-size="10" fill="#5b6675" text-anchor="middle" font-weight="normal" dominant-baseline="middle" xml:space="preserve">input → correct output</text>
<rect x="214" y="112.5" width="130" height="64" rx="13" ry="13" fill="#0f172a" opacity="0.055"/>
<rect x="214" y="115" width="130" height="64" rx="13" ry="13" fill="#1e293b" opacity="0.035"/>
<rect x="214" y="110" width="130" height="64" rx="13" ry="13" fill="url(#g_accent)" stroke="#4f46e5" stroke-width="1.8"/>
<text x="279.0" y="142.0" font-family="Inter, ui-sans-serif, Segoe UI, Roboto, DejaVu Sans, Helvetica, Arial, sans-serif" font-size="13.5" fill="#312e81" text-anchor="middle" font-weight="bold" dominant-baseline="middle" xml:space="preserve">Model predicts</text>
<rect x="384" y="112.5" width="150" height="64" rx="13" ry="13" fill="#0f172a" opacity="0.055"/>
<rect x="384" y="115" width="150" height="64" rx="13" ry="13" fill="#1e293b" opacity="0.035"/>
<rect x="384" y="110" width="150" height="64" rx="13" ry="13" fill="url(#g_warn)" stroke="#dc2626" stroke-width="1.8"/>
<text x="459.0" y="134.25" font-family="Inter, ui-sans-serif, Segoe UI, Roboto, DejaVu Sans, Helvetica, Arial, sans-serif" font-size="14" fill="#7f1d1d" text-anchor="middle" font-weight="bold" dominant-baseline="middle" xml:space="preserve">Loss</text>
<text x="459.0" y="147.25" font-family="Inter, ui-sans-serif, Segoe UI, Roboto, DejaVu Sans, Helvetica, Arial, sans-serif" font-size="10.5" fill="#5b6675" text-anchor="middle" font-weight="normal" dominant-baseline="middle" xml:space="preserve">how wrong it was</text>
<rect x="574" y="112.5" width="170" height="64" rx="13" ry="13" fill="#0f172a" opacity="0.055"/>
<rect x="574" y="115" width="170" height="64" rx="13" ry="13" fill="#1e293b" opacity="0.035"/>
<rect x="574" y="110" width="170" height="64" rx="13" ry="13" fill="url(#g_key)" stroke="#d97706" stroke-width="1.8"/>
<text x="659.0" y="134.5" font-family="Inter, ui-sans-serif, Segoe UI, Roboto, DejaVu Sans, Helvetica, Arial, sans-serif" font-size="13.5" fill="#7c2d12" text-anchor="middle" font-weight="bold" dominant-baseline="middle" xml:space="preserve">Adjust weights</text>
<text x="659.0" y="147.25" font-family="Inter, ui-sans-serif, Segoe UI, Roboto, DejaVu Sans, Helvetica, Arial, sans-serif" font-size="10" fill="#5b6675" text-anchor="middle" font-weight="normal" dominant-baseline="middle" xml:space="preserve">nudge to be less wrong</text>
<line x1="174" y1="142" x2="200.0" y2="142.0" stroke="#475569" stroke-width="2.2" stroke-linecap="round"/>
<polygon points="212.0,142.0 200.0,146.8 200.0,137.2" fill="#475569"/>
<line x1="344" y1="142" x2="370.0" y2="142.0" stroke="#475569" stroke-width="2.2" stroke-linecap="round"/>
<polygon points="382.0,142.0 370.0,146.8 370.0,137.2" fill="#475569"/>
<line x1="534" y1="142" x2="560.0" y2="142.0" stroke="#475569" stroke-width="2.2" stroke-linecap="round"/>
<polygon points="572.0,142.0 560.0,146.8 560.0,137.2" fill="#475569"/>
<line x1="659" y1="174" x2="659" y2="232" stroke="#94a3b8" stroke-width="2.2" stroke-linecap="round"/>
<line x1="659" y1="232" x2="99" y2="232" stroke="#94a3b8" stroke-width="2.2" stroke-linecap="round"/>
<line x1="99" y1="232" x2="99.0" y2="188.0" stroke="#94a3b8" stroke-width="2.2" stroke-linecap="round"/>
<polygon points="99.0,176.0 103.8,188.0 94.2,188.0" fill="#94a3b8"/>
<text x="380" y="224" font-family="Inter, ui-sans-serif, Segoe UI, Roboto, DejaVu Sans, Helvetica, Arial, sans-serif" font-size="11.5" fill="#64748b" text-anchor="middle" font-weight="bold" dominant-baseline="middle" xml:space="preserve">repeat over millions of examples — the weights slowly improve</text>
<text x="440" y="284" font-family="Inter, ui-sans-serif, Segoe UI, Roboto, DejaVu Sans, Helvetica, Arial, sans-serif" font-size="12" fill="#64748b" text-anchor="middle" font-weight="bold" dominant-baseline="middle" xml:space="preserve">This is gradient descent. Pre-training does it on the whole web; fine-tuning does a little more on your data.</text>
</svg>
