<svg xmlns="http://www.w3.org/2000/svg" viewBox="0 0 920 290" width="920" height="290" font-family="Inter, ui-sans-serif, Segoe UI, Roboto, DejaVu Sans, Helvetica, Arial, sans-serif">
<defs>
<linearGradient id="g_concept" x1="0" y1="0" x2="0" y2="1"><stop offset="0" stop-color="#eff5ff"/><stop offset="1" stop-color="#dde9ff"/></linearGradient>
<linearGradient id="g_example" x1="0" y1="0" x2="0" y2="1"><stop offset="0" stop-color="#eefaf0"/><stop offset="1" stop-color="#d7f1de"/></linearGradient>
<linearGradient id="g_key" x1="0" y1="0" x2="0" y2="1"><stop offset="0" stop-color="#fff6ea"/><stop offset="1" stop-color="#ffecca"/></linearGradient>
<linearGradient id="g_practice" x1="0" y1="0" x2="0" y2="1"><stop offset="0" stop-color="#f4f0ff"/><stop offset="1" stop-color="#e7defb"/></linearGradient>
<linearGradient id="g_deep" x1="0" y1="0" x2="0" y2="1"><stop offset="0" stop-color="#eafaf6"/><stop offset="1" stop-color="#d3f1ea"/></linearGradient>
<linearGradient id="g_note" x1="0" y1="0" x2="0" y2="1"><stop offset="0" stop-color="#f1f5f9"/><stop offset="1" stop-color="#e5edf6"/></linearGradient>
<linearGradient id="g_warn" x1="0" y1="0" x2="0" y2="1"><stop offset="0" stop-color="#fef1ef"/><stop offset="1" stop-color="#fde2dd"/></linearGradient>
<linearGradient id="g_ink" x1="0" y1="0" x2="0" y2="1"><stop offset="0" stop-color="#eef2f7"/><stop offset="1" stop-color="#dfe6f0"/></linearGradient>
<linearGradient id="g_plain" x1="0" y1="0" x2="0" y2="1"><stop offset="0" stop-color="#ffffff"/><stop offset="1" stop-color="#f3f7fc"/></linearGradient>
<linearGradient id="g_accent" x1="0" y1="0" x2="0" y2="1"><stop offset="0" stop-color="#eef0fe"/><stop offset="1" stop-color="#dfe2fd"/></linearGradient>
</defs>
<rect x="0" y="0" width="920" height="290" fill="#ffffff"/>
<text x="460" y="30" font-family="Inter, ui-sans-serif, Segoe UI, Roboto, DejaVu Sans, Helvetica, Arial, sans-serif" font-size="16" fill="#0f172a" text-anchor="middle" font-weight="bold" dominant-baseline="middle" xml:space="preserve">The evaluation flywheel</text>
<rect x="20" y="112.5" width="165" height="64" rx="13" ry="13" fill="#0f172a" opacity="0.055"/>
<rect x="20" y="115" width="165" height="64" rx="13" ry="13" fill="#1e293b" opacity="0.035"/>
<rect x="20" y="110" width="165" height="64" rx="13" ry="13" fill="url(#g_key)" stroke="#d97706" stroke-width="1.8"/>
<text x="102.5" y="134.25" font-family="Inter, ui-sans-serif, Segoe UI, Roboto, DejaVu Sans, Helvetica, Arial, sans-serif" font-size="14" fill="#7c2d12" text-anchor="middle" font-weight="bold" dominant-baseline="middle" xml:space="preserve">Golden set</text>
<text x="102.5" y="147.25" font-family="Inter, ui-sans-serif, Segoe UI, Roboto, DejaVu Sans, Helvetica, Arial, sans-serif" font-size="10.5" fill="#5b6675" text-anchor="middle" font-weight="normal" dominant-baseline="middle" xml:space="preserve">+ LLM-judge</text>
<rect x="200" y="112.5" width="165" height="64" rx="13" ry="13" fill="#0f172a" opacity="0.055"/>
<rect x="200" y="115" width="165" height="64" rx="13" ry="13" fill="#1e293b" opacity="0.035"/>
<rect x="200" y="110" width="165" height="64" rx="13" ry="13" fill="url(#g_concept)" stroke="#2563eb" stroke-width="1.8"/>
<text x="282.5" y="134.25" font-family="Inter, ui-sans-serif, Segoe UI, Roboto, DejaVu Sans, Helvetica, Arial, sans-serif" font-size="14" fill="#1e3a8a" text-anchor="middle" font-weight="bold" dominant-baseline="middle" xml:space="preserve">Offline eval</text>
<text x="282.5" y="147.25" font-family="Inter, ui-sans-serif, Segoe UI, Roboto, DejaVu Sans, Helvetica, Arial, sans-serif" font-size="10.5" fill="#5b6675" text-anchor="middle" font-weight="normal" dominant-baseline="middle" xml:space="preserve">CI gate</text>
<rect x="380" y="112.5" width="165" height="64" rx="13" ry="13" fill="#0f172a" opacity="0.055"/>
<rect x="380" y="115" width="165" height="64" rx="13" ry="13" fill="#1e293b" opacity="0.035"/>
<rect x="380" y="110" width="165" height="64" rx="13" ry="13" fill="url(#g_example)" stroke="#16a34a" stroke-width="1.8"/>
<text x="462.5" y="134.25" font-family="Inter, ui-sans-serif, Segoe UI, Roboto, DejaVu Sans, Helvetica, Arial, sans-serif" font-size="14" fill="#14532d" text-anchor="middle" font-weight="bold" dominant-baseline="middle" xml:space="preserve">Ship</text>
<text x="462.5" y="147.25" font-family="Inter, ui-sans-serif, Segoe UI, Roboto, DejaVu Sans, Helvetica, Arial, sans-serif" font-size="10.5" fill="#5b6675" text-anchor="middle" font-weight="normal" dominant-baseline="middle" xml:space="preserve">to production</text>
<rect x="540" y="112.5" width="165" height="64" rx="13" ry="13" fill="#0f172a" opacity="0.055"/>
<rect x="540" y="115" width="165" height="64" rx="13" ry="13" fill="#1e293b" opacity="0.035"/>
<rect x="540" y="110" width="165" height="64" rx="13" ry="13" fill="url(#g_accent)" stroke="#4f46e5" stroke-width="1.8"/>
<text x="622.5" y="134.25" font-family="Inter, ui-sans-serif, Segoe UI, Roboto, DejaVu Sans, Helvetica, Arial, sans-serif" font-size="14" fill="#312e81" text-anchor="middle" font-weight="bold" dominant-baseline="middle" xml:space="preserve">Tracing</text>
<text x="622.5" y="147.25" font-family="Inter, ui-sans-serif, Segoe UI, Roboto, DejaVu Sans, Helvetica, Arial, sans-serif" font-size="10.5" fill="#5b6675" text-anchor="middle" font-weight="normal" dominant-baseline="middle" xml:space="preserve">watch every request</text>
<rect x="720" y="112.5" width="165" height="64" rx="13" ry="13" fill="#0f172a" opacity="0.055"/>
<rect x="720" y="115" width="165" height="64" rx="13" ry="13" fill="#1e293b" opacity="0.035"/>
<rect x="720" y="110" width="165" height="64" rx="13" ry="13" fill="url(#g_practice)" stroke="#7c3aed" stroke-width="1.8"/>
<text x="802.5" y="134.25" font-family="Inter, ui-sans-serif, Segoe UI, Roboto, DejaVu Sans, Helvetica, Arial, sans-serif" font-size="14" fill="#4c1d95" text-anchor="middle" font-weight="bold" dominant-baseline="middle" xml:space="preserve">Online eval</text>
<text x="802.5" y="147.25" font-family="Inter, ui-sans-serif, Segoe UI, Roboto, DejaVu Sans, Helvetica, Arial, sans-serif" font-size="10.5" fill="#5b6675" text-anchor="middle" font-weight="normal" dominant-baseline="middle" xml:space="preserve">A/B + feedback</text>
<line x1="185" y1="142" x2="186.0" y2="142.0" stroke="#475569" stroke-width="2.2" stroke-linecap="round"/>
<polygon points="198.0,142.0 186.0,146.8 186.0,137.2" fill="#475569"/>
<line x1="365" y1="142" x2="366.0" y2="142.0" stroke="#475569" stroke-width="2.2" stroke-linecap="round"/>
<polygon points="378.0,142.0 366.0,146.8 366.0,137.2" fill="#475569"/>
<line x1="545" y1="142" x2="550.0" y2="142.0" stroke="#475569" stroke-width="2.2" stroke-linecap="round"/>
<polygon points="538.0,142.0 550.0,137.2 550.0,146.8" fill="#475569"/>
<line x1="705" y1="142" x2="706.0" y2="142.0" stroke="#475569" stroke-width="2.2" stroke-linecap="round"/>
<polygon points="718.0,142.0 706.0,146.8 706.0,137.2" fill="#475569"/>
<line x1="802" y1="174" x2="802" y2="232" stroke="#16a34a" stroke-width="2.2" stroke-linecap="round"/>
<line x1="802" y1="232" x2="102" y2="232" stroke="#16a34a" stroke-width="2.2" stroke-linecap="round"/>
<line x1="102" y1="232" x2="102.0" y2="188.0" stroke="#16a34a" stroke-width="2.2" stroke-linecap="round"/>
<polygon points="102.0,176.0 106.8,188.0 97.2,188.0" fill="#16a34a"/>
<text x="452" y="224" font-family="Inter, ui-sans-serif, Segoe UI, Roboto, DejaVu Sans, Helvetica, Arial, sans-serif" font-size="11.5" fill="#16a34a" text-anchor="middle" font-weight="bold" dominant-baseline="middle" xml:space="preserve">fold production failures back into the golden set</text>
<text x="460" y="276" font-family="Inter, ui-sans-serif, Segoe UI, Roboto, DejaVu Sans, Helvetica, Arial, sans-serif" font-size="12" fill="#64748b" text-anchor="middle" font-weight="bold" dominant-baseline="middle" xml:space="preserve">Measure offline to ship safely, watch online to learn, and keep growing the golden set.</text>
</svg>
