<svg xmlns="http://www.w3.org/2000/svg" viewBox="0 0 920 300" width="920" height="300" font-family="Inter, ui-sans-serif, Segoe UI, Roboto, DejaVu Sans, Helvetica, Arial, sans-serif">
<defs>
<linearGradient id="g_concept" x1="0" y1="0" x2="0" y2="1"><stop offset="0" stop-color="#eff5ff"/><stop offset="1" stop-color="#dde9ff"/></linearGradient>
<linearGradient id="g_example" x1="0" y1="0" x2="0" y2="1"><stop offset="0" stop-color="#eefaf0"/><stop offset="1" stop-color="#d7f1de"/></linearGradient>
<linearGradient id="g_key" x1="0" y1="0" x2="0" y2="1"><stop offset="0" stop-color="#fff6ea"/><stop offset="1" stop-color="#ffecca"/></linearGradient>
<linearGradient id="g_practice" x1="0" y1="0" x2="0" y2="1"><stop offset="0" stop-color="#f4f0ff"/><stop offset="1" stop-color="#e7defb"/></linearGradient>
<linearGradient id="g_deep" x1="0" y1="0" x2="0" y2="1"><stop offset="0" stop-color="#eafaf6"/><stop offset="1" stop-color="#d3f1ea"/></linearGradient>
<linearGradient id="g_note" x1="0" y1="0" x2="0" y2="1"><stop offset="0" stop-color="#f1f5f9"/><stop offset="1" stop-color="#e5edf6"/></linearGradient>
<linearGradient id="g_warn" x1="0" y1="0" x2="0" y2="1"><stop offset="0" stop-color="#fef1ef"/><stop offset="1" stop-color="#fde2dd"/></linearGradient>
<linearGradient id="g_ink" x1="0" y1="0" x2="0" y2="1"><stop offset="0" stop-color="#eef2f7"/><stop offset="1" stop-color="#dfe6f0"/></linearGradient>
<linearGradient id="g_plain" x1="0" y1="0" x2="0" y2="1"><stop offset="0" stop-color="#ffffff"/><stop offset="1" stop-color="#f3f7fc"/></linearGradient>
<linearGradient id="g_accent" x1="0" y1="0" x2="0" y2="1"><stop offset="0" stop-color="#eef0fe"/><stop offset="1" stop-color="#dfe2fd"/></linearGradient>
</defs>
<rect x="0" y="0" width="920" height="300" fill="#ffffff"/>
<text x="460" y="30" font-family="Inter, ui-sans-serif, Segoe UI, Roboto, DejaVu Sans, Helvetica, Arial, sans-serif" font-size="16" fill="#0f172a" text-anchor="middle" font-weight="bold" dominant-baseline="middle" xml:space="preserve">Content safety: moderate the input AND the output</text>
<rect x="24" y="112.5" width="120" height="56" rx="13" ry="13" fill="#0f172a" opacity="0.055"/>
<rect x="24" y="115" width="120" height="56" rx="13" ry="13" fill="#1e293b" opacity="0.035"/>
<rect x="24" y="110" width="120" height="56" rx="13" ry="13" fill="url(#g_note)" stroke="#64748b" stroke-width="1.8"/>
<text x="84.0" y="138.0" font-family="Inter, ui-sans-serif, Segoe UI, Roboto, DejaVu Sans, Helvetica, Arial, sans-serif" font-size="13" fill="#1e293b" text-anchor="middle" font-weight="bold" dominant-baseline="middle" xml:space="preserve">User input</text>
<rect x="180" y="112.5" width="150" height="56" rx="13" ry="13" fill="#0f172a" opacity="0.055"/>
<rect x="180" y="115" width="150" height="56" rx="13" ry="13" fill="#1e293b" opacity="0.035"/>
<rect x="180" y="110" width="150" height="56" rx="13" ry="13" fill="url(#g_key)" stroke="#d97706" stroke-width="1.8"/>
<text x="255.0" y="138.0" font-family="Inter, ui-sans-serif, Segoe UI, Roboto, DejaVu Sans, Helvetica, Arial, sans-serif" font-size="13" fill="#7c2d12" text-anchor="middle" font-weight="bold" dominant-baseline="middle" xml:space="preserve">Input moderation</text>
<rect x="380" y="112.5" width="110" height="56" rx="13" ry="13" fill="#0f172a" opacity="0.055"/>
<rect x="380" y="115" width="110" height="56" rx="13" ry="13" fill="#1e293b" opacity="0.035"/>
<rect x="380" y="110" width="110" height="56" rx="13" ry="13" fill="url(#g_accent)" stroke="#4f46e5" stroke-width="1.8"/>
<text x="435.0" y="138.0" font-family="Inter, ui-sans-serif, Segoe UI, Roboto, DejaVu Sans, Helvetica, Arial, sans-serif" font-size="15" fill="#312e81" text-anchor="middle" font-weight="bold" dominant-baseline="middle" xml:space="preserve">LLM</text>
<rect x="540" y="112.5" width="160" height="56" rx="13" ry="13" fill="#0f172a" opacity="0.055"/>
<rect x="540" y="115" width="160" height="56" rx="13" ry="13" fill="#1e293b" opacity="0.035"/>
<rect x="540" y="110" width="160" height="56" rx="13" ry="13" fill="url(#g_key)" stroke="#d97706" stroke-width="1.8"/>
<text x="620.0" y="138.0" font-family="Inter, ui-sans-serif, Segoe UI, Roboto, DejaVu Sans, Helvetica, Arial, sans-serif" font-size="13" fill="#7c2d12" text-anchor="middle" font-weight="bold" dominant-baseline="middle" xml:space="preserve">Output moderation</text>
<rect x="750" y="112.5" width="140" height="56" rx="13" ry="13" fill="#0f172a" opacity="0.055"/>
<rect x="750" y="115" width="140" height="56" rx="13" ry="13" fill="#1e293b" opacity="0.035"/>
<rect x="750" y="110" width="140" height="56" rx="13" ry="13" fill="url(#g_example)" stroke="#16a34a" stroke-width="1.8"/>
<text x="820.0" y="138.0" font-family="Inter, ui-sans-serif, Segoe UI, Roboto, DejaVu Sans, Helvetica, Arial, sans-serif" font-size="14" fill="#14532d" text-anchor="middle" font-weight="bold" dominant-baseline="middle" xml:space="preserve">Response</text>
<line x1="144" y1="138" x2="166.0" y2="138.0" stroke="#475569" stroke-width="2.2" stroke-linecap="round"/>
<polygon points="178.0,138.0 166.0,142.8 166.0,133.2" fill="#475569"/>
<line x1="330" y1="138" x2="366.0" y2="138.0" stroke="#475569" stroke-width="2.2" stroke-linecap="round"/>
<polygon points="378.0,138.0 366.0,142.8 366.0,133.2" fill="#475569"/>
<line x1="490" y1="138" x2="526.0" y2="138.0" stroke="#475569" stroke-width="2.2" stroke-linecap="round"/>
<polygon points="538.0,138.0 526.0,142.8 526.0,133.2" fill="#475569"/>
<line x1="700" y1="138" x2="736.0" y2="138.0" stroke="#475569" stroke-width="2.2" stroke-linecap="round"/>
<polygon points="748.0,138.0 736.0,142.8 736.0,133.2" fill="#475569"/>
<rect x="180" y="212.5" width="150" height="44" rx="13" ry="13" fill="#0f172a" opacity="0.055"/>
<rect x="180" y="215" width="150" height="44" rx="13" ry="13" fill="#1e293b" opacity="0.035"/>
<rect x="180" y="210" width="150" height="44" rx="13" ry="13" fill="url(#g_warn)" stroke="#dc2626" stroke-width="1.8"/>
<text x="255.0" y="232.0" font-family="Inter, ui-sans-serif, Segoe UI, Roboto, DejaVu Sans, Helvetica, Arial, sans-serif" font-size="12.5" fill="#7f1d1d" text-anchor="middle" font-weight="bold" dominant-baseline="middle" xml:space="preserve">Block / refuse</text>
<rect x="540" y="212.5" width="160" height="44" rx="13" ry="13" fill="#0f172a" opacity="0.055"/>
<rect x="540" y="215" width="160" height="44" rx="13" ry="13" fill="#1e293b" opacity="0.035"/>
<rect x="540" y="210" width="160" height="44" rx="13" ry="13" fill="url(#g_warn)" stroke="#dc2626" stroke-width="1.8"/>
<text x="620.0" y="232.0" font-family="Inter, ui-sans-serif, Segoe UI, Roboto, DejaVu Sans, Helvetica, Arial, sans-serif" font-size="12" fill="#7f1d1d" text-anchor="middle" font-weight="bold" dominant-baseline="middle" xml:space="preserve">Block / regenerate</text>
<line x1="255" y1="166" x2="255.0" y2="200.0" stroke="#dc2626" stroke-width="2" stroke-linecap="round"/>
<polygon points="255.0,208.0 251.8,200.0 258.2,200.0" fill="#dc2626"/>
<text x="300" y="190" font-family="Inter, ui-sans-serif, Segoe UI, Roboto, DejaVu Sans, Helvetica, Arial, sans-serif" font-size="10" fill="#b91c1c" text-anchor="start" font-weight="bold" dominant-baseline="middle" xml:space="preserve">unsafe</text>
<line x1="620" y1="166" x2="620.0" y2="200.0" stroke="#dc2626" stroke-width="2" stroke-linecap="round"/>
<polygon points="620.0,208.0 616.8,200.0 623.2,200.0" fill="#dc2626"/>
<text x="665" y="190" font-family="Inter, ui-sans-serif, Segoe UI, Roboto, DejaVu Sans, Helvetica, Arial, sans-serif" font-size="10" fill="#b91c1c" text-anchor="start" font-weight="bold" dominant-baseline="middle" xml:space="preserve">unsafe</text>
<text x="460" y="280" font-family="Inter, ui-sans-serif, Segoe UI, Roboto, DejaVu Sans, Helvetica, Arial, sans-serif" font-size="12" fill="#64748b" text-anchor="middle" font-weight="bold" dominant-baseline="middle" xml:space="preserve">Classifiers catch unsafe input before the model, and unsafe output before the user.</text>
</svg>
