<svg xmlns="http://www.w3.org/2000/svg" viewBox="0 0 920 320" width="920" height="320" font-family="Inter, ui-sans-serif, Segoe UI, Roboto, DejaVu Sans, Helvetica, Arial, sans-serif">
<defs>
<linearGradient id="g_concept" x1="0" y1="0" x2="0" y2="1"><stop offset="0" stop-color="#eff5ff"/><stop offset="1" stop-color="#dde9ff"/></linearGradient>
<linearGradient id="g_example" x1="0" y1="0" x2="0" y2="1"><stop offset="0" stop-color="#eefaf0"/><stop offset="1" stop-color="#d7f1de"/></linearGradient>
<linearGradient id="g_key" x1="0" y1="0" x2="0" y2="1"><stop offset="0" stop-color="#fff6ea"/><stop offset="1" stop-color="#ffecca"/></linearGradient>
<linearGradient id="g_practice" x1="0" y1="0" x2="0" y2="1"><stop offset="0" stop-color="#f4f0ff"/><stop offset="1" stop-color="#e7defb"/></linearGradient>
<linearGradient id="g_deep" x1="0" y1="0" x2="0" y2="1"><stop offset="0" stop-color="#eafaf6"/><stop offset="1" stop-color="#d3f1ea"/></linearGradient>
<linearGradient id="g_note" x1="0" y1="0" x2="0" y2="1"><stop offset="0" stop-color="#f1f5f9"/><stop offset="1" stop-color="#e5edf6"/></linearGradient>
<linearGradient id="g_warn" x1="0" y1="0" x2="0" y2="1"><stop offset="0" stop-color="#fef1ef"/><stop offset="1" stop-color="#fde2dd"/></linearGradient>
<linearGradient id="g_ink" x1="0" y1="0" x2="0" y2="1"><stop offset="0" stop-color="#eef2f7"/><stop offset="1" stop-color="#dfe6f0"/></linearGradient>
<linearGradient id="g_plain" x1="0" y1="0" x2="0" y2="1"><stop offset="0" stop-color="#ffffff"/><stop offset="1" stop-color="#f3f7fc"/></linearGradient>
<linearGradient id="g_accent" x1="0" y1="0" x2="0" y2="1"><stop offset="0" stop-color="#eef0fe"/><stop offset="1" stop-color="#dfe2fd"/></linearGradient>
</defs>
<rect x="0" y="0" width="920" height="320" fill="#ffffff"/>
<text x="460" y="30" font-family="Inter, ui-sans-serif, Segoe UI, Roboto, DejaVu Sans, Helvetica, Arial, sans-serif" font-size="16" fill="#0f172a" text-anchor="middle" font-weight="bold" dominant-baseline="middle" xml:space="preserve">The trust boundary: everything in is untrusted</text>
<rect x="24" y="72.5" width="190" height="50" rx="13" ry="13" fill="#0f172a" opacity="0.055"/>
<rect x="24" y="75" width="190" height="50" rx="13" ry="13" fill="#1e293b" opacity="0.035"/>
<rect x="24" y="70" width="190" height="50" rx="13" ry="13" fill="url(#g_warn)" stroke="#dc2626" stroke-width="1.8"/>
<text x="119.0" y="95.0" font-family="Inter, ui-sans-serif, Segoe UI, Roboto, DejaVu Sans, Helvetica, Arial, sans-serif" font-size="13" fill="#7f1d1d" text-anchor="middle" font-weight="bold" dominant-baseline="middle" xml:space="preserve">User input</text>
<rect x="24" y="142.5" width="190" height="50" rx="13" ry="13" fill="#0f172a" opacity="0.055"/>
<rect x="24" y="145" width="190" height="50" rx="13" ry="13" fill="#1e293b" opacity="0.035"/>
<rect x="24" y="140" width="190" height="50" rx="13" ry="13" fill="url(#g_warn)" stroke="#dc2626" stroke-width="1.8"/>
<text x="119.0" y="165.0" font-family="Inter, ui-sans-serif, Segoe UI, Roboto, DejaVu Sans, Helvetica, Arial, sans-serif" font-size="13" fill="#7f1d1d" text-anchor="middle" font-weight="bold" dominant-baseline="middle" xml:space="preserve">Retrieved docs</text>
<rect x="24" y="212.5" width="190" height="50" rx="13" ry="13" fill="#0f172a" opacity="0.055"/>
<rect x="24" y="215" width="190" height="50" rx="13" ry="13" fill="#1e293b" opacity="0.035"/>
<rect x="24" y="210" width="190" height="50" rx="13" ry="13" fill="url(#g_warn)" stroke="#dc2626" stroke-width="1.8"/>
<text x="119.0" y="235.0" font-family="Inter, ui-sans-serif, Segoe UI, Roboto, DejaVu Sans, Helvetica, Arial, sans-serif" font-size="13" fill="#7f1d1d" text-anchor="middle" font-weight="bold" dominant-baseline="middle" xml:space="preserve">Tool / web results</text>
<rect x="300" y="112.5" width="180" height="96" rx="13" ry="13" fill="#0f172a" opacity="0.055"/>
<rect x="300" y="115" width="180" height="96" rx="13" ry="13" fill="#1e293b" opacity="0.035"/>
<rect x="300" y="110" width="180" height="96" rx="13" ry="13" fill="url(#g_accent)" stroke="#4f46e5" stroke-width="1.8"/>
<text x="390.0" y="143.0" font-family="Inter, ui-sans-serif, Segoe UI, Roboto, DejaVu Sans, Helvetica, Arial, sans-serif" font-size="15" fill="#312e81" text-anchor="middle" font-weight="bold" dominant-baseline="middle" xml:space="preserve">Your LLM app</text>
<text x="390.0" y="156.5" font-family="Inter, ui-sans-serif, Segoe UI, Roboto, DejaVu Sans, Helvetica, Arial, sans-serif" font-size="11" fill="#5b6675" text-anchor="middle" font-weight="normal" dominant-baseline="middle" xml:space="preserve">the only part</text>
<text x="390.0" y="170.5" font-family="Inter, ui-sans-serif, Segoe UI, Roboto, DejaVu Sans, Helvetica, Arial, sans-serif" font-size="11" fill="#5b6675" text-anchor="middle" font-weight="normal" dominant-baseline="middle" xml:space="preserve">you control</text>
<rect x="580" y="92.5" width="200" height="50" rx="13" ry="13" fill="#0f172a" opacity="0.055"/>
<rect x="580" y="95" width="200" height="50" rx="13" ry="13" fill="#1e293b" opacity="0.035"/>
<rect x="580" y="90" width="200" height="50" rx="13" ry="13" fill="url(#g_example)" stroke="#16a34a" stroke-width="1.8"/>
<text x="680.0" y="115.0" font-family="Inter, ui-sans-serif, Segoe UI, Roboto, DejaVu Sans, Helvetica, Arial, sans-serif" font-size="13.5" fill="#14532d" text-anchor="middle" font-weight="bold" dominant-baseline="middle" xml:space="preserve">Response to user</text>
<rect x="580" y="162.5" width="200" height="50" rx="13" ry="13" fill="#0f172a" opacity="0.055"/>
<rect x="580" y="165" width="200" height="50" rx="13" ry="13" fill="#1e293b" opacity="0.035"/>
<rect x="580" y="160" width="200" height="50" rx="13" ry="13" fill="url(#g_example)" stroke="#16a34a" stroke-width="1.8"/>
<text x="680.0" y="185.0" font-family="Inter, ui-sans-serif, Segoe UI, Roboto, DejaVu Sans, Helvetica, Arial, sans-serif" font-size="12.5" fill="#14532d" text-anchor="middle" font-weight="bold" dominant-baseline="middle" xml:space="preserve">Actions (tools, writes)</text>
<line x1="214" y1="95" x2="291.3070517709735" y2="145.61771246908978" stroke="#dc2626" stroke-width="1.8" stroke-linecap="round"/>
<polygon points="298.0,150.0 289.6,148.3 293.1,142.9" fill="#dc2626"/>
<line x1="214" y1="165" x2="290.12457939593213" y2="151.40632510786926" stroke="#dc2626" stroke-width="1.8" stroke-linecap="round"/>
<polygon points="298.0,150.0 290.7,154.6 289.6,148.3" fill="#dc2626"/>
<line x1="214" y1="235" x2="292.3767167033875" y2="155.6902271453817" stroke="#dc2626" stroke-width="1.8" stroke-linecap="round"/>
<polygon points="298.0,150.0 294.7,157.9 290.1,153.4" fill="#dc2626"/>
<line x1="480" y1="140" x2="566.37238261847" y2="117.96622892385969" stroke="#475569" stroke-width="2.2" stroke-linecap="round"/>
<polygon points="578.0,115.0 567.6,122.6 565.2,113.3" fill="#475569"/>
<line x1="480" y1="165" x2="566.2423512946351" y2="182.600479856048" stroke="#475569" stroke-width="2.2" stroke-linecap="round"/>
<polygon points="578.0,185.0 565.3,187.3 567.2,177.9" fill="#475569"/>
<line x1="258" y1="50" x2="258" y2="270" stroke="#dc2626" stroke-width="2" stroke-dasharray="6 5"/>
<text x="258" y="292" font-family="Inter, ui-sans-serif, Segoe UI, Roboto, DejaVu Sans, Helvetica, Arial, sans-serif" font-size="11.5" fill="#b91c1c" text-anchor="middle" font-weight="bold" dominant-baseline="middle" xml:space="preserve">trust boundary — validate here</text>
<text x="720" y="280" font-family="Inter, ui-sans-serif, Segoe UI, Roboto, DejaVu Sans, Helvetica, Arial, sans-serif" font-size="11" fill="#15803d" text-anchor="middle" font-weight="bold" dominant-baseline="middle" xml:space="preserve">validate outputs too</text>
<text x="560" y="250" font-family="Inter, ui-sans-serif, Segoe UI, Roboto, DejaVu Sans, Helvetica, Arial, sans-serif" font-size="11.5" fill="#64748b" text-anchor="middle" font-weight="bold" dominant-baseline="middle" xml:space="preserve">Untrusted text can carry instructions; outputs can leak data or trigger bad actions.</text>
</svg>
