<svg xmlns="http://www.w3.org/2000/svg" viewBox="0 0 900 300" width="900" height="300" font-family="Inter, ui-sans-serif, Segoe UI, Roboto, DejaVu Sans, Helvetica, Arial, sans-serif">
<defs>
<linearGradient id="g_concept" x1="0" y1="0" x2="0" y2="1"><stop offset="0" stop-color="#eff5ff"/><stop offset="1" stop-color="#dde9ff"/></linearGradient>
<linearGradient id="g_example" x1="0" y1="0" x2="0" y2="1"><stop offset="0" stop-color="#eefaf0"/><stop offset="1" stop-color="#d7f1de"/></linearGradient>
<linearGradient id="g_key" x1="0" y1="0" x2="0" y2="1"><stop offset="0" stop-color="#fff6ea"/><stop offset="1" stop-color="#ffecca"/></linearGradient>
<linearGradient id="g_practice" x1="0" y1="0" x2="0" y2="1"><stop offset="0" stop-color="#f4f0ff"/><stop offset="1" stop-color="#e7defb"/></linearGradient>
<linearGradient id="g_deep" x1="0" y1="0" x2="0" y2="1"><stop offset="0" stop-color="#eafaf6"/><stop offset="1" stop-color="#d3f1ea"/></linearGradient>
<linearGradient id="g_note" x1="0" y1="0" x2="0" y2="1"><stop offset="0" stop-color="#f1f5f9"/><stop offset="1" stop-color="#e5edf6"/></linearGradient>
<linearGradient id="g_warn" x1="0" y1="0" x2="0" y2="1"><stop offset="0" stop-color="#fef1ef"/><stop offset="1" stop-color="#fde2dd"/></linearGradient>
<linearGradient id="g_ink" x1="0" y1="0" x2="0" y2="1"><stop offset="0" stop-color="#eef2f7"/><stop offset="1" stop-color="#dfe6f0"/></linearGradient>
<linearGradient id="g_plain" x1="0" y1="0" x2="0" y2="1"><stop offset="0" stop-color="#ffffff"/><stop offset="1" stop-color="#f3f7fc"/></linearGradient>
<linearGradient id="g_accent" x1="0" y1="0" x2="0" y2="1"><stop offset="0" stop-color="#eef0fe"/><stop offset="1" stop-color="#dfe2fd"/></linearGradient>
</defs>
<rect x="0" y="0" width="900" height="300" fill="#ffffff"/>
<text x="450" y="30" font-family="Inter, ui-sans-serif, Segoe UI, Roboto, DejaVu Sans, Helvetica, Arial, sans-serif" font-size="16" fill="#0f172a" text-anchor="middle" font-weight="bold" dominant-baseline="middle" xml:space="preserve">Batching: keep the GPU busy for high throughput</text>
<rect x="30" y="82.5" width="130" height="38" rx="13" ry="13" fill="#0f172a" opacity="0.055"/>
<rect x="30" y="85" width="130" height="38" rx="13" ry="13" fill="#1e293b" opacity="0.035"/>
<rect x="30" y="80" width="130" height="38" rx="13" ry="13" fill="url(#g_note)" stroke="#64748b" stroke-width="1.8"/>
<text x="95.0" y="99.0" font-family="Inter, ui-sans-serif, Segoe UI, Roboto, DejaVu Sans, Helvetica, Arial, sans-serif" font-size="12" fill="#1e293b" text-anchor="middle" font-weight="bold" dominant-baseline="middle" xml:space="preserve">request 1</text>
<rect x="30" y="128.5" width="130" height="38" rx="13" ry="13" fill="#0f172a" opacity="0.055"/>
<rect x="30" y="131" width="130" height="38" rx="13" ry="13" fill="#1e293b" opacity="0.035"/>
<rect x="30" y="126" width="130" height="38" rx="13" ry="13" fill="url(#g_note)" stroke="#64748b" stroke-width="1.8"/>
<text x="95.0" y="145.0" font-family="Inter, ui-sans-serif, Segoe UI, Roboto, DejaVu Sans, Helvetica, Arial, sans-serif" font-size="12" fill="#1e293b" text-anchor="middle" font-weight="bold" dominant-baseline="middle" xml:space="preserve">request 2</text>
<rect x="30" y="174.5" width="130" height="38" rx="13" ry="13" fill="#0f172a" opacity="0.055"/>
<rect x="30" y="177" width="130" height="38" rx="13" ry="13" fill="#1e293b" opacity="0.035"/>
<rect x="30" y="172" width="130" height="38" rx="13" ry="13" fill="url(#g_note)" stroke="#64748b" stroke-width="1.8"/>
<text x="95.0" y="191.0" font-family="Inter, ui-sans-serif, Segoe UI, Roboto, DejaVu Sans, Helvetica, Arial, sans-serif" font-size="12" fill="#1e293b" text-anchor="middle" font-weight="bold" dominant-baseline="middle" xml:space="preserve">request 3</text>
<rect x="30" y="220.5" width="130" height="38" rx="13" ry="13" fill="#0f172a" opacity="0.055"/>
<rect x="30" y="223" width="130" height="38" rx="13" ry="13" fill="#1e293b" opacity="0.035"/>
<rect x="30" y="218" width="130" height="38" rx="13" ry="13" fill="url(#g_note)" stroke="#64748b" stroke-width="1.8"/>
<text x="95.0" y="237.0" font-family="Inter, ui-sans-serif, Segoe UI, Roboto, DejaVu Sans, Helvetica, Arial, sans-serif" font-size="12" fill="#1e293b" text-anchor="middle" font-weight="bold" dominant-baseline="middle" xml:space="preserve">request 4</text>
<rect x="230" y="132.5" width="130" height="60" rx="13" ry="13" fill="#0f172a" opacity="0.055"/>
<rect x="230" y="135" width="130" height="60" rx="13" ry="13" fill="#1e293b" opacity="0.035"/>
<rect x="230" y="130" width="130" height="60" rx="13" ry="13" fill="url(#g_key)" stroke="#d97706" stroke-width="1.8"/>
<text x="295.0" y="152.25" font-family="Inter, ui-sans-serif, Segoe UI, Roboto, DejaVu Sans, Helvetica, Arial, sans-serif" font-size="14" fill="#7c2d12" text-anchor="middle" font-weight="bold" dominant-baseline="middle" xml:space="preserve">Batch</text>
<text x="295.0" y="165.25" font-family="Inter, ui-sans-serif, Segoe UI, Roboto, DejaVu Sans, Helvetica, Arial, sans-serif" font-size="10.5" fill="#5b6675" text-anchor="middle" font-weight="normal" dominant-baseline="middle" xml:space="preserve">grouped</text>
<rect x="430" y="132.5" width="150" height="60" rx="13" ry="13" fill="#0f172a" opacity="0.055"/>
<rect x="430" y="135" width="150" height="60" rx="13" ry="13" fill="#1e293b" opacity="0.035"/>
<rect x="430" y="130" width="150" height="60" rx="13" ry="13" fill="url(#g_accent)" stroke="#4f46e5" stroke-width="1.8"/>
<text x="505.0" y="152.25" font-family="Inter, ui-sans-serif, Segoe UI, Roboto, DejaVu Sans, Helvetica, Arial, sans-serif" font-size="15" fill="#312e81" text-anchor="middle" font-weight="bold" dominant-baseline="middle" xml:space="preserve">GPU</text>
<text x="505.0" y="165.75" font-family="Inter, ui-sans-serif, Segoe UI, Roboto, DejaVu Sans, Helvetica, Arial, sans-serif" font-size="10.5" fill="#5b6675" text-anchor="middle" font-weight="normal" dominant-baseline="middle" xml:space="preserve">one efficient pass</text>
<line x1="160" y1="99" x2="222.4" y2="145.8" stroke="#94a3b8" stroke-width="1.6" stroke-linecap="round"/>
<polygon points="228.0,150.0 220.7,148.0 224.1,143.6" fill="#94a3b8"/>
<line x1="160" y1="145" x2="221.01884662296766" y2="149.4866798987476" stroke="#94a3b8" stroke-width="1.6" stroke-linecap="round"/>
<polygon points="228.0,150.0 220.8,152.3 221.2,146.7" fill="#94a3b8"/>
<line x1="160" y1="191" x2="222.0053420556345" y2="153.6144261135145" stroke="#94a3b8" stroke-width="1.6" stroke-linecap="round"/>
<polygon points="228.0,150.0 223.5,156.0 220.6,151.2" fill="#94a3b8"/>
<line x1="160" y1="237" x2="223.68926162369243" y2="155.51520939321702" stroke="#94a3b8" stroke-width="1.6" stroke-linecap="round"/>
<polygon points="228.0,150.0 225.9,157.2 221.5,153.8" fill="#94a3b8"/>
<line x1="360" y1="160" x2="416.0" y2="160.0" stroke="#475569" stroke-width="2.2" stroke-linecap="round"/>
<polygon points="428.0,160.0 416.0,164.8 416.0,155.2" fill="#475569"/>
<rect x="650" y="82.5" width="130" height="38" rx="13" ry="13" fill="#0f172a" opacity="0.055"/>
<rect x="650" y="85" width="130" height="38" rx="13" ry="13" fill="#1e293b" opacity="0.035"/>
<rect x="650" y="80" width="130" height="38" rx="13" ry="13" fill="url(#g_example)" stroke="#16a34a" stroke-width="1.8"/>
<text x="715.0" y="99.0" font-family="Inter, ui-sans-serif, Segoe UI, Roboto, DejaVu Sans, Helvetica, Arial, sans-serif" font-size="12" fill="#14532d" text-anchor="middle" font-weight="bold" dominant-baseline="middle" xml:space="preserve">response 1</text>
<line x1="580" y1="160" x2="642.7893274476155" y2="103.67427978963899" stroke="#94a3b8" stroke-width="1.6" stroke-linecap="round"/>
<polygon points="648.0,99.0 644.7,105.8 640.9,101.6" fill="#94a3b8"/>
<rect x="650" y="128.5" width="130" height="38" rx="13" ry="13" fill="#0f172a" opacity="0.055"/>
<rect x="650" y="131" width="130" height="38" rx="13" ry="13" fill="#1e293b" opacity="0.035"/>
<rect x="650" y="126" width="130" height="38" rx="13" ry="13" fill="url(#g_example)" stroke="#16a34a" stroke-width="1.8"/>
<text x="715.0" y="145.0" font-family="Inter, ui-sans-serif, Segoe UI, Roboto, DejaVu Sans, Helvetica, Arial, sans-serif" font-size="12" fill="#14532d" text-anchor="middle" font-weight="bold" dominant-baseline="middle" xml:space="preserve">response 2</text>
<line x1="580" y1="160" x2="641.1643335857525" y2="146.50786759137813" stroke="#94a3b8" stroke-width="1.6" stroke-linecap="round"/>
<polygon points="648.0,145.0 641.8,149.2 640.6,143.8" fill="#94a3b8"/>
<rect x="650" y="174.5" width="130" height="38" rx="13" ry="13" fill="#0f172a" opacity="0.055"/>
<rect x="650" y="177" width="130" height="38" rx="13" ry="13" fill="#1e293b" opacity="0.035"/>
<rect x="650" y="172" width="130" height="38" rx="13" ry="13" fill="url(#g_example)" stroke="#16a34a" stroke-width="1.8"/>
<text x="715.0" y="191.0" font-family="Inter, ui-sans-serif, Segoe UI, Roboto, DejaVu Sans, Helvetica, Arial, sans-serif" font-size="12" fill="#14532d" text-anchor="middle" font-weight="bold" dominant-baseline="middle" xml:space="preserve">response 3</text>
<line x1="580" y1="160" x2="641.6306463381416" y2="188.09632406591746" stroke="#94a3b8" stroke-width="1.6" stroke-linecap="round"/>
<polygon points="648.0,191.0 640.5,190.6 642.8,185.5" fill="#94a3b8"/>
<rect x="650" y="220.5" width="130" height="38" rx="13" ry="13" fill="#0f172a" opacity="0.055"/>
<rect x="650" y="223" width="130" height="38" rx="13" ry="13" fill="#1e293b" opacity="0.035"/>
<rect x="650" y="218" width="130" height="38" rx="13" ry="13" fill="url(#g_example)" stroke="#16a34a" stroke-width="1.8"/>
<text x="715.0" y="237.0" font-family="Inter, ui-sans-serif, Segoe UI, Roboto, DejaVu Sans, Helvetica, Arial, sans-serif" font-size="12" fill="#14532d" text-anchor="middle" font-weight="bold" dominant-baseline="middle" xml:space="preserve">response 4</text>
<line x1="580" y1="160" x2="643.366395268505" y2="231.75312405404247" stroke="#94a3b8" stroke-width="1.6" stroke-linecap="round"/>
<polygon points="648.0,237.0 641.3,233.6 645.5,229.9" fill="#94a3b8"/>
<text x="450" y="270" font-family="Inter, ui-sans-serif, Segoe UI, Roboto, DejaVu Sans, Helvetica, Arial, sans-serif" font-size="12" fill="#64748b" text-anchor="middle" font-weight="bold" dominant-baseline="middle" xml:space="preserve">Continuous batching processes many requests together → far more throughput per GPU dollar.</text>
</svg>
