<svg xmlns="http://www.w3.org/2000/svg" viewBox="0 0 940 360" width="940" height="360" font-family="Inter, ui-sans-serif, Segoe UI, Roboto, DejaVu Sans, Helvetica, Arial, sans-serif">
<defs>
<linearGradient id="g_concept" x1="0" y1="0" x2="0" y2="1"><stop offset="0" stop-color="#eff5ff"/><stop offset="1" stop-color="#dde9ff"/></linearGradient>
<linearGradient id="g_example" x1="0" y1="0" x2="0" y2="1"><stop offset="0" stop-color="#eefaf0"/><stop offset="1" stop-color="#d7f1de"/></linearGradient>
<linearGradient id="g_key" x1="0" y1="0" x2="0" y2="1"><stop offset="0" stop-color="#fff6ea"/><stop offset="1" stop-color="#ffecca"/></linearGradient>
<linearGradient id="g_practice" x1="0" y1="0" x2="0" y2="1"><stop offset="0" stop-color="#f4f0ff"/><stop offset="1" stop-color="#e7defb"/></linearGradient>
<linearGradient id="g_deep" x1="0" y1="0" x2="0" y2="1"><stop offset="0" stop-color="#eafaf6"/><stop offset="1" stop-color="#d3f1ea"/></linearGradient>
<linearGradient id="g_note" x1="0" y1="0" x2="0" y2="1"><stop offset="0" stop-color="#f1f5f9"/><stop offset="1" stop-color="#e5edf6"/></linearGradient>
<linearGradient id="g_warn" x1="0" y1="0" x2="0" y2="1"><stop offset="0" stop-color="#fef1ef"/><stop offset="1" stop-color="#fde2dd"/></linearGradient>
<linearGradient id="g_ink" x1="0" y1="0" x2="0" y2="1"><stop offset="0" stop-color="#eef2f7"/><stop offset="1" stop-color="#dfe6f0"/></linearGradient>
<linearGradient id="g_plain" x1="0" y1="0" x2="0" y2="1"><stop offset="0" stop-color="#ffffff"/><stop offset="1" stop-color="#f3f7fc"/></linearGradient>
<linearGradient id="g_accent" x1="0" y1="0" x2="0" y2="1"><stop offset="0" stop-color="#eef0fe"/><stop offset="1" stop-color="#dfe2fd"/></linearGradient>
</defs>
<rect x="0" y="0" width="940" height="360" fill="#ffffff"/>
<text x="470" y="30" font-family="Inter, ui-sans-serif, Segoe UI, Roboto, DejaVu Sans, Helvetica, Arial, sans-serif" font-size="16" fill="#0f172a" text-anchor="middle" font-weight="bold" dominant-baseline="middle" xml:space="preserve">“Design a support assistant” — the whole picture</text>
<rect x="24" y="122.5" width="90" height="60" rx="13" ry="13" fill="#0f172a" opacity="0.055"/>
<rect x="24" y="125" width="90" height="60" rx="13" ry="13" fill="#1e293b" opacity="0.035"/>
<rect x="24" y="120" width="90" height="60" rx="13" ry="13" fill="url(#g_note)" stroke="#64748b" stroke-width="1.8"/>
<text x="69.0" y="150.0" font-family="Inter, ui-sans-serif, Segoe UI, Roboto, DejaVu Sans, Helvetica, Arial, sans-serif" font-size="12.5" fill="#1e293b" text-anchor="middle" font-weight="bold" dominant-baseline="middle" xml:space="preserve">User</text>
<rect x="140" y="122.5" width="130" height="60" rx="13" ry="13" fill="#0f172a" opacity="0.055"/>
<rect x="140" y="125" width="130" height="60" rx="13" ry="13" fill="#1e293b" opacity="0.035"/>
<rect x="140" y="120" width="130" height="60" rx="13" ry="13" fill="url(#g_warn)" stroke="#dc2626" stroke-width="1.8"/>
<text x="205.0" y="142.75" font-family="Inter, ui-sans-serif, Segoe UI, Roboto, DejaVu Sans, Helvetica, Arial, sans-serif" font-size="12.5" fill="#7f1d1d" text-anchor="middle" font-weight="bold" dominant-baseline="middle" xml:space="preserve">Input guard</text>
<text x="205.0" y="155.0" font-family="Inter, ui-sans-serif, Segoe UI, Roboto, DejaVu Sans, Helvetica, Arial, sans-serif" font-size="9.5" fill="#5b6675" text-anchor="middle" font-weight="normal" dominant-baseline="middle" xml:space="preserve">moderate · fence</text>
<rect x="300" y="122.5" width="150" height="60" rx="13" ry="13" fill="#0f172a" opacity="0.055"/>
<rect x="300" y="125" width="150" height="60" rx="13" ry="13" fill="#1e293b" opacity="0.035"/>
<rect x="300" y="120" width="150" height="60" rx="13" ry="13" fill="url(#g_key)" stroke="#d97706" stroke-width="1.8"/>
<text x="375.0" y="142.75" font-family="Inter, ui-sans-serif, Segoe UI, Roboto, DejaVu Sans, Helvetica, Arial, sans-serif" font-size="12.5" fill="#7c2d12" text-anchor="middle" font-weight="bold" dominant-baseline="middle" xml:space="preserve">RAG retrieve</text>
<text x="375.0" y="155.0" font-family="Inter, ui-sans-serif, Segoe UI, Roboto, DejaVu Sans, Helvetica, Arial, sans-serif" font-size="9.5" fill="#5b6675" text-anchor="middle" font-weight="normal" dominant-baseline="middle" xml:space="preserve">chunk·embed·DB·rerank</text>
<rect x="480" y="122.5" width="150" height="60" rx="13" ry="13" fill="#0f172a" opacity="0.055"/>
<rect x="480" y="125" width="150" height="60" rx="13" ry="13" fill="#1e293b" opacity="0.035"/>
<rect x="480" y="120" width="150" height="60" rx="13" ry="13" fill="url(#g_accent)" stroke="#4f46e5" stroke-width="1.8"/>
<text x="555.0" y="142.75" font-family="Inter, ui-sans-serif, Segoe UI, Roboto, DejaVu Sans, Helvetica, Arial, sans-serif" font-size="12.5" fill="#312e81" text-anchor="middle" font-weight="bold" dominant-baseline="middle" xml:space="preserve">LLM</text>
<text x="555.0" y="155.0" font-family="Inter, ui-sans-serif, Segoe UI, Roboto, DejaVu Sans, Helvetica, Arial, sans-serif" font-size="9.5" fill="#5b6675" text-anchor="middle" font-weight="normal" dominant-baseline="middle" xml:space="preserve">grounded · routed</text>
<rect x="660" y="122.5" width="150" height="60" rx="13" ry="13" fill="#0f172a" opacity="0.055"/>
<rect x="660" y="125" width="150" height="60" rx="13" ry="13" fill="#1e293b" opacity="0.035"/>
<rect x="660" y="120" width="150" height="60" rx="13" ry="13" fill="url(#g_key)" stroke="#d97706" stroke-width="1.8"/>
<text x="735.0" y="142.75" font-family="Inter, ui-sans-serif, Segoe UI, Roboto, DejaVu Sans, Helvetica, Arial, sans-serif" font-size="12.5" fill="#7c2d12" text-anchor="middle" font-weight="bold" dominant-baseline="middle" xml:space="preserve">Output checks</text>
<text x="735.0" y="155.0" font-family="Inter, ui-sans-serif, Segoe UI, Roboto, DejaVu Sans, Helvetica, Arial, sans-serif" font-size="9.5" fill="#5b6675" text-anchor="middle" font-weight="normal" dominant-baseline="middle" xml:space="preserve">validate · moderate</text>
<rect x="840" y="122.5" width="80" height="60" rx="13" ry="13" fill="#0f172a" opacity="0.055"/>
<rect x="840" y="125" width="80" height="60" rx="13" ry="13" fill="#1e293b" opacity="0.035"/>
<rect x="840" y="120" width="80" height="60" rx="13" ry="13" fill="url(#g_example)" stroke="#16a34a" stroke-width="1.8"/>
<text x="880.0" y="150.0" font-family="Inter, ui-sans-serif, Segoe UI, Roboto, DejaVu Sans, Helvetica, Arial, sans-serif" font-size="12.5" fill="#14532d" text-anchor="middle" font-weight="bold" dominant-baseline="middle" xml:space="preserve">Response</text>
<line x1="114" y1="150" x2="126.0" y2="150.0" stroke="#475569" stroke-width="2.2" stroke-linecap="round"/>
<polygon points="138.0,150.0 126.0,154.8 126.0,145.2" fill="#475569"/>
<line x1="270" y1="150" x2="286.0" y2="150.0" stroke="#475569" stroke-width="2.2" stroke-linecap="round"/>
<polygon points="298.0,150.0 286.0,154.8 286.0,145.2" fill="#475569"/>
<line x1="450" y1="150" x2="466.0" y2="150.0" stroke="#475569" stroke-width="2.2" stroke-linecap="round"/>
<polygon points="478.0,150.0 466.0,154.8 466.0,145.2" fill="#475569"/>
<line x1="630" y1="150" x2="646.0" y2="150.0" stroke="#475569" stroke-width="2.2" stroke-linecap="round"/>
<polygon points="658.0,150.0 646.0,154.8 646.0,145.2" fill="#475569"/>
<line x1="810" y1="150" x2="826.0" y2="150.0" stroke="#475569" stroke-width="2.2" stroke-linecap="round"/>
<polygon points="838.0,150.0 826.0,154.8 826.0,145.2" fill="#475569"/>
<rect x="300" y="232.5" width="150" height="46" rx="13" ry="13" fill="#0f172a" opacity="0.055"/>
<rect x="300" y="235" width="150" height="46" rx="13" ry="13" fill="#1e293b" opacity="0.035"/>
<rect x="300" y="230" width="150" height="46" rx="13" ry="13" fill="url(#g_concept)" stroke="#2563eb" stroke-width="1.8"/>
<text x="375.0" y="245.75" font-family="Inter, ui-sans-serif, Segoe UI, Roboto, DejaVu Sans, Helvetica, Arial, sans-serif" font-size="12" fill="#1e3a8a" text-anchor="middle" font-weight="bold" dominant-baseline="middle" xml:space="preserve">Knowledge base</text>
<text x="375.0" y="257.75" font-family="Inter, ui-sans-serif, Segoe UI, Roboto, DejaVu Sans, Helvetica, Arial, sans-serif" font-size="9.5" fill="#5b6675" text-anchor="middle" font-weight="normal" dominant-baseline="middle" xml:space="preserve">indexed offline</text>
<line x1="375" y1="230" x2="375.0" y2="191.0" stroke="#2563eb" stroke-width="2" stroke-linecap="round"/>
<polygon points="375.0,182.0 378.6,191.0 371.4,191.0" fill="#2563eb"/>
<rect x="480" y="232.5" width="150" height="46" rx="13" ry="13" fill="#0f172a" opacity="0.055"/>
<rect x="480" y="235" width="150" height="46" rx="13" ry="13" fill="#1e293b" opacity="0.035"/>
<rect x="480" y="230" width="150" height="46" rx="13" ry="13" fill="url(#g_practice)" stroke="#7c3aed" stroke-width="1.8"/>
<text x="555.0" y="245.75" font-family="Inter, ui-sans-serif, Segoe UI, Roboto, DejaVu Sans, Helvetica, Arial, sans-serif" font-size="12.5" fill="#4c1d95" text-anchor="middle" font-weight="bold" dominant-baseline="middle" xml:space="preserve">Cache</text>
<text x="555.0" y="258.0" font-family="Inter, ui-sans-serif, Segoe UI, Roboto, DejaVu Sans, Helvetica, Arial, sans-serif" font-size="9.5" fill="#5b6675" text-anchor="middle" font-weight="normal" dominant-baseline="middle" xml:space="preserve">skip repeats</text>
<line x1="555" y1="230" x2="555.0" y2="191.0" stroke="#7c3aed" stroke-width="2" stroke-linecap="round"/>
<polygon points="555.0,182.0 558.6,191.0 551.4,191.0" fill="#7c3aed"/>
<rect x="660" y="232.5" width="150" height="46" rx="13" ry="13" fill="#0f172a" opacity="0.055"/>
<rect x="660" y="235" width="150" height="46" rx="13" ry="13" fill="#1e293b" opacity="0.035"/>
<rect x="660" y="230" width="150" height="46" rx="13" ry="13" fill="url(#g_warn)" stroke="#dc2626" stroke-width="1.8"/>
<text x="735.0" y="245.75" font-family="Inter, ui-sans-serif, Segoe UI, Roboto, DejaVu Sans, Helvetica, Arial, sans-serif" font-size="11" fill="#7f1d1d" text-anchor="middle" font-weight="bold" dominant-baseline="middle" xml:space="preserve">Escalate → human</text>
<text x="735.0" y="257.25" font-family="Inter, ui-sans-serif, Segoe UI, Roboto, DejaVu Sans, Helvetica, Arial, sans-serif" font-size="9.5" fill="#5b6675" text-anchor="middle" font-weight="normal" dominant-baseline="middle" xml:space="preserve">low confidence</text>
<line x1="735" y1="182" x2="735.0" y2="219.0" stroke="#dc2626" stroke-width="2" stroke-linecap="round"/>
<polygon points="735.0,228.0 731.4,219.0 738.6,219.0" fill="#dc2626"/>
<text x="470" y="312" font-family="Inter, ui-sans-serif, Segoe UI, Roboto, DejaVu Sans, Helvetica, Arial, sans-serif" font-size="12" fill="#64748b" text-anchor="middle" font-weight="bold" dominant-baseline="middle" xml:space="preserve">Cross-cutting: evaluated offline + online, traced in production, guarded end-to-end, cost-budgeted.</text>
<text x="470" y="334" font-family="Inter, ui-sans-serif, Segoe UI, Roboto, DejaVu Sans, Helvetica, Arial, sans-serif" font-size="11.5" fill="#94a3b8" text-anchor="middle" font-weight="normal" dominant-baseline="middle" xml:space="preserve">This single diagram answers fundamentals, RAG, agents, safety, evals, and serving at once.</text>
</svg>
